<?xml version="1.0" encoding="utf-8"?>
<!-- Generator: Adobe Illustrator 21.1.0, SVG Export Plug-In . SVG Version: 6.00 Build 0)  -->
<svg version="1.1" id="Layer_1" xmlns="http://www.w3.org/2000/svg" xmlns:xlink="http://www.w3.org/1999/xlink" x="0px" y="0px"
	 viewBox="0 0 190 150" enable-background="new 0 0 190 150" xml:space="preserve">
<g>
	<g>
		<g>
			<path display="none" fill="none" stroke="#42A8C1" stroke-width="1.65" stroke-miterlimit="10" d="M81.908,40.616
				c-2.115,2.254-3.919,4.718-5.412,7.393l-0.456-1.013c-0.834-1.881-1.603-2.823-2.304-2.823c-0.507,0-1.102,0.312-1.786,0.937
				c0.507,0.051,0.977,0.386,1.412,1.007c0.435,0.619,0.968,1.71,1.601,3.272l0.292,0.722c0.269,0.676,0.433,1.165,0.493,1.469
				c0.346-0.312,0.759-0.625,1.24-0.937l0.558-0.367c0.936-2.565,2.46-5.186,4.57-7.862c2.11-2.675,4.401-4.887,6.875-6.634
				l-0.381-0.659C86.256,36.531,84.022,38.362,81.908,40.616z"/>
			<path fill="none" stroke="#42A8C1" stroke-width="1.65" stroke-miterlimit="10" d="M129.143,35.712
				c-5.777,0-10.461-4.684-10.461-10.461c0-5.778,4.684-10.461,10.461-10.461c5.778,0,10.461,4.687,10.461,10.461
				C139.603,31.025,134.921,35.712,129.143,35.712z M81.347,39.846l9.91,6.576c0.761-0.55,1.609-0.897,2.503-0.928
				c1.271-0.043,2.562,0.387,3.533,1.362c0,0,0.022,0.025,0.029,0.025l0.593,0.413l5.382,3.674v-1.563
				c1-11.885,14.774-11.71,14.774-11.71h5.967l5.014,8.251l5.039-8.245h5.721c15.543,0.29,14.994,11.704,14.994,11.704v26.639
				h-0.009c-0.005,0.068,0.009,0.151,0.009,0.204c0,2.537-2.048,4.576-4.576,4.576c-2.519,0-4.567-2.047-4.567-4.576
				c0-0.054,0-0.137,0.009-0.204h-0.009V51.405h-2.858l0.034,77.619c0,3.413-2.772,6.185-6.172,6.185
				c-3.413,0-6.178-2.772-6.178-6.185V78.932h-2.751v50.148l-0.051,0.055c-0.045,3.353-2.774,6.073-6.147,6.073
				c-3.387,0-6.144-2.76-6.144-6.145l0.017-77.788h-2.974v8.103v0.04c0,2.52-2.047,4.57-4.563,4.57
				c-0.742,0-1.409-0.211-2.039-0.535l-0.022,0.029l-4.715-3.215l-3.905-2.546l-0.366-0.238l-6.039-4.075
				c-0.003-0.017-0.011-0.017-0.02-0.031c-1.512-1.497-1.743-3.725-0.807-5.48l0.927-1.366 M105.565,39.085v-16.28
				c0-1.369-1.116-2.482-2.48-2.482H37.67c-1.372,0-2.48,1.108-2.48,2.482v48.092c0,1.369,1.108,2.48,2.48,2.48h65.414
				c1.369,0,2.48-1.111,2.48-2.48v-3.799"/>
		</g>
	</g>
</g>
<line fill="none" stroke="#42A8C1" stroke-width="1.65" stroke-miterlimit="10" x1="42.361" y1="48.467" x2="62.56" y2="48.467"/>
<line fill="none" stroke="#42A8C1" stroke-width="1.65" stroke-miterlimit="10" x1="42.361" y1="59.115" x2="71.84" y2="59.115"/>
<line fill="none" stroke="#42A8C1" stroke-width="1.65" stroke-miterlimit="10" x1="42.361" y1="53.791" x2="71.84" y2="53.791"/>
<polyline fill="none" stroke="#42A8C1" stroke-width="1.65" stroke-miterlimit="10" points="61.471,39.66 69.361,47.5 
	82.209,30.211 "/>
</svg>
