<svg xmlns="http://www.w3.org/2000/svg" viewBox="0 0 190 150"><g fill="#7DBECD"><path d="M148.354 101.34c.09-.097.188-.184.276-.283l1.106-1.233-1.172-1.172c-.352-.352-.823-.81-1.074-1.004l-.22-.143c-.396-.218-.79-.422-.872-.462l-.104-.048c-.657-.27-1.3-.45-1.37-.47l-.114-.028c-2.582-.525-5.314-.283-7.69.68-.594.24-1.153.526-1.69.835-.655-.26-1.287-.433-1.448-.473-2.582-.53-5.313-.29-7.69.68-2.63 1.06-4.677 2.91-6.386 4.56-1.828 1.75-3.494 3.31-5.374 4.71l-.677.5c-1.41 1.05-2.855 2.15-4.16 3.43-.346-.02-.69-.04-1.037-.04-2.22-.03-4.683-.71-7.31-2.03-.187-.1-1.033-.58-1.373-.78l-.062-.04c-.64-.43-1.287-.87-1.944-1.32l-.71-.45c-.95-.52-1.39-.64-1.53-.68-2.38-.67-10.88-2.88-20.38-3.4-7.19-.41-13.4.26-18.48 1.98l-.11.03c-.14.04-.28.08-.42.13-.35.1-.69.24-1.04.37-.25.1-.49.2-.72.29l-.42.18c-.09.04-.17.08-.31.14-2.79 1.24-5.38 2.71-7.69 4.39-2.55 1.85-4.74 4.01-6.86 6.11l-2.21 2.18 14.81 21.4 1.45-1.11c.66-.51 1.38-.99 2.11-1.41 2.62-1.49 5.52-2.24 8.61-2.24 2.82 0 5.85.37 9.82 1.22 2.73.58 5.5 1.27 8.18 1.95l2.87.72c3.38.84 7.32 1.78 11.29 2.39 1.86.28 4.04.54 6.33.54 1.74 0 3.54-.15 5.31-.57h.34l.42-.27c3.61-2.24 6.51-5.21 9.32-8.08 1.38-1.43 2.742-2.81 4.162-4.11 1.016-.93 2.17-1.98 3.424-2.79l1.03-.73.53-.06c1.4-.17 2.63-.46 3.77-.87l.17-.06c2.01-.73 5.56-2.03 5.71-5.2l.02-.02c1.02-.87 2.05-1.73 3.09-2.6 1.52-1.28 3.05-2.56 4.56-3.85 1.2-1.04 2.63-2.28 4.08-3.64.35-.34.72-.67 1.08-1 .76-.69 1.55-1.4 2.27-2.21l1-1.12-.95-1.16c-.87-1.07-2.13-1.87-3.61-2.35zm-9.92-.92c1.703-.688 3.742-.873 5.613-.506.1.028.324.097.58.188l-.586.53-.29.266c-2.75.315-5.01 1.843-6.85 3.32-.63.51-1.23 1.07-1.82 1.613-.65.61-1.27 1.19-1.98 1.74l-.29.23c-.23.18-.49.34-.81.51l-.21.11-.04.05-.07.03-.26.14c-.02.02-.6.39-1.29.94l-.12.09c-.09.06-.16.12-.23.18-.34.27-.69.58-1.06.94-.37.35-.65.66-.87.97-.16.2-.29.37-.43.55-.25-.04-.49-.1-.75-.14-.81-.12-1.66-.19-2.53-.25.85-.71 1.75-1.4 2.68-2.1l.68-.51c2.03-1.5 3.78-3.15 5.71-4.99 1.48-1.42 3.23-3.01 5.28-3.84zm-21.807 9.877c2.033-1.51 3.784-3.15 5.704-4.99 1.48-1.422 3.23-3.01 5.28-3.843 1.27-.513 2.72-.743 4.15-.678-.35.322-.69.643-1.02.957-1.83 1.753-3.5 3.316-5.37 4.71l-.68.51c-1.53 1.15-3.13 2.34-4.51 3.773l-1.09 1.097c-.15.006-.31.008-.46.014-.69.03-1.44.026-2.31-.014-.52-.018-1.06-.048-1.59-.083.41-.314.83-.628 1.25-.946l.68-.507zm13.265 10.878l-.18.064c-.88.32-1.855.54-2.974.68-.305.03-.608.05-.88.08-1.503.09-3.052 0-4.234-.08l-25.616-.01v3.5h24.86c-.38.33-.738.66-1.07.96-1.492 1.36-2.894 2.79-4.313 4.25-2.588 2.64-5.26 5.38-8.395 7.38-3.518.81-7.35.41-10.303-.04-3.814-.59-7.663-1.52-10.975-2.34l-2.863-.72c-2.71-.68-5.52-1.39-8.31-1.98-4.22-.9-7.48-1.31-10.56-1.31-3.71 0-7.18.91-10.36 2.7-.34.2-.68.4-1 .61l-11.07-15.99.11-.12c2.12-2.1 4.13-4.08 6.45-5.77 2.11-1.53 4.49-2.89 7-4.01.15-.06.3-.13.45-.21l.27-.11c.19-.09.4-.18.6-.26.28-.11.57-.23.86-.32l.13-.04.02-.01.34-.1c4.66-1.59 10.45-2.21 17.22-1.83 9.14.504 17.33 2.634 19.63 3.274.06.01.32.12.8.38l.4.26c.69.47 1.36.93 2.03 1.37l.22.13c.38.22 1.34.76 1.53.856 3.12 1.56 6.09 2.37 8.85 2.4 1.35.02 2.7.12 4.13.23 1.12.08 2.27.17 3.4.21.96.043 1.82.045 2.6.01 1.19-.047 2.45-.086 3.69-.05 1.34.025 2.54.12 3.66.28.563.086 1.114.19 1.71.33.1.02.202.05.304.074l.86.23c2.284.58 3.825 1.06 4.255 2.42l.03.17c.18.91-1.05 1.54-3.38 2.38zm17.395-15.604c-.39.36-.78.71-1.143 1.05-1.396 1.31-2.788 2.52-3.965 3.54-1.5 1.29-3.01 2.55-4.53 3.82l-2.06 1.73c-1.12-1.37-2.81-2.06-4.39-2.52.23-.22.47-.43.71-.62l.07-.06c.06-.03.13-.09.27-.2.39-.31.73-.55.89-.65.16-.07.32-.16.47-.25l.19-.09.03-.03c.39-.22.74-.44 1.06-.68l.21-.16c.06-.04.11-.09.15-.12.78-.59 1.49-1.26 2.17-1.89.56-.52 1.08-1.01 1.62-1.44 1.57-1.25 3.28-2.43 5.23-2.6.58-.05 1.19-.03 1.78.06.71.1 1.34.28 1.88.54l-.69.63zM59.49 45.1c-.968 0-1.75.783-1.75 1.75v42.235c0 .967.782 1.75 1.75 1.75h71.02c.968 0 1.75-.783 1.75-1.75V55.008c0-.967-.782-1.75-1.75-1.75h-18.66v-18.38c0-.967-.783-1.75-1.75-1.75H81.674c-.967 0-1.75.783-1.75 1.75V45.1H59.49zm20.43 42.235H61.24V48.6h18.68v38.735zm12.6 0v-7.1h6.73v7.1h-6.73zm36.24-30.577v30.577h-16.91V56.758h16.91zm-45.338-20.13h24.926v50.707h-5.598v-8.85c0-.968-.783-1.75-1.75-1.75H90.77c-.967 0-1.75.782-1.75 1.75v8.85h-5.598V36.628z"/><path d="M66.273 56.663h8.614c.967 0 1.75-.783 1.75-1.75s-.783-1.75-1.75-1.75h-8.614c-.967 0-1.75.783-1.75 1.75s.784 1.75 1.75 1.75zm0 8.58h8.614c.967 0 1.75-.784 1.75-1.75s-.783-1.75-1.75-1.75h-8.614c-.967 0-1.75.782-1.75 1.75s.784 1.75 1.75 1.75zm0 8.577h8.614c.967 0 1.75-.782 1.75-1.75s-.783-1.75-1.75-1.75h-8.614c-.967 0-1.75.784-1.75 1.75s.784 1.75 1.75 1.75zm0 8.58h8.614c.967 0 1.75-.783 1.75-1.75s-.783-1.75-1.75-1.75h-8.614c-.967 0-1.75.783-1.75 1.75s.784 1.75 1.75 1.75zm33.19-28.29h3.08c.965 0 1.75-.782 1.75-1.75s-.785-1.75-1.75-1.75h-3.08c-.968 0-1.75.784-1.75 1.75s.782 1.75 1.75 1.75zm-10.23 0h3.077c.967 0 1.75-.782 1.75-1.75s-.783-1.75-1.75-1.75h-3.078c-.967 0-1.75.784-1.75 1.75s.784 1.75 1.75 1.75zm10.23 8.43h3.08c.965 0 1.75-.783 1.75-1.75s-.785-1.75-1.75-1.75h-3.08c-.968 0-1.75.783-1.75 1.75s.782 1.75 1.75 1.75zm-10.23 0h3.077c.967 0 1.75-.783 1.75-1.75s-.783-1.75-1.75-1.75h-3.078c-.967 0-1.75.783-1.75 1.75s.784 1.75 1.75 1.75zm10.23 8.43h3.08c.965 0 1.75-.784 1.75-1.75s-.785-1.75-1.75-1.75h-3.08c-.968 0-1.75.782-1.75 1.75s.782 1.75 1.75 1.75zm-10.23 0h3.077c.967 0 1.75-.784 1.75-1.75s-.783-1.75-1.75-1.75h-3.078c-.967 0-1.75.782-1.75 1.75s.784 1.75 1.75 1.75zm10.23-25.287h3.08c.965 0 1.75-.783 1.75-1.75s-.785-1.75-1.75-1.75h-3.08c-.968 0-1.75.783-1.75 1.75s.782 1.75 1.75 1.75zm-10.23 0h3.077c.967 0 1.75-.783 1.75-1.75s-.783-1.75-1.75-1.75h-3.078c-.967 0-1.75.783-1.75 1.75s.784 1.75 1.75 1.75zm29.533 19.685h3.078c.967 0 1.75-.783 1.75-1.75s-.783-1.75-1.75-1.75h-3.078c-.967 0-1.75.783-1.75 1.75s.783 1.75 1.75 1.75zm0 8.43h3.078c.967 0 1.75-.784 1.75-1.75s-.783-1.75-1.75-1.75h-3.078c-.967 0-1.75.782-1.75 1.75s.783 1.75 1.75 1.75zm0 8.428h3.078c.967 0 1.75-.783 1.75-1.75s-.783-1.75-1.75-1.75h-3.078c-.967 0-1.75.783-1.75 1.75s.783 1.75 1.75 1.75zm22.36 6.56l7.14 2.957c.22.09.447.133.67.133.687 0 1.34-.406 1.618-1.08.37-.894-.055-1.917-.947-2.287l-7.142-2.96c-.896-.37-1.917.05-2.287.94-.37.89.054 1.91.947 2.28zM40.393 47.06l6 2.484c.22.09.445.133.668.133.69 0 1.34-.408 1.62-1.08.37-.896-.05-1.92-.94-2.29l-6-2.483c-.89-.372-1.91.055-2.28.947-.37.9.06 1.92.95 2.29zM57.07 32.33c.343.343.79.514 1.238.514s.894-.17 1.235-.513c.684-.68.684-1.79 0-2.47l-4.59-4.59c-.685-.68-1.792-.68-2.476 0-.685.69-.685 1.79 0 2.48l4.59 4.6zm16.456-11.81c.28.674.932 1.08 1.618 1.08.223 0 .45-.043.67-.133.892-.37 1.315-1.395.946-2.287l-2.485-6c-.37-.89-1.392-1.312-2.287-.946-.893.37-1.316 1.395-.947 2.287l2.49 6zM95 17.648c.967 0 1.75-.783 1.75-1.75V9.405c0-.967-.783-1.75-1.75-1.75s-1.75.783-1.75 1.75v6.493c0 .967.783 1.75 1.75 1.75zm19.186 3.817c.22.09.446.133.67.133.686 0 1.338-.406 1.617-1.08l2.485-6c.37-.892-.055-1.916-.947-2.286-.89-.366-1.91.055-2.28.947l-2.48 5.99c-.37.89.06 1.91.95 2.28zm17.504 11.38c.447 0 .895-.17 1.236-.512l4.59-4.592c.685-.68.685-1.79 0-2.47-.683-.68-1.79-.68-2.474 0l-4.59 4.59c-.685.69-.685 1.79 0 2.48.342.34.79.52 1.237.52zM47.535 85.553l-7.142 2.957c-.893.37-1.316 1.392-.947 2.285.28.674.93 1.08 1.618 1.08.223 0 .45-.043.67-.133l7.14-2.957c.894-.37 1.317-1.394.948-2.287-.37-.893-1.386-1.313-2.287-.948zm95.403-35.872c.223 0 .45-.04.67-.13l5.997-2.48c.893-.37 1.316-1.39.947-2.28-.37-.89-1.395-1.31-2.287-.94l-5.998 2.49c-.893.37-1.316 1.4-.947 2.29.28.67.932 1.08 1.618 1.08zM46.1 67.79c0-.967-.784-1.75-1.75-1.75h-7.73c-.967 0-1.75.783-1.75 1.75s.783 1.75 1.75 1.75h7.73c.965 0 1.75-.783 1.75-1.75zm107.28-1.75h-6.493c-.967 0-1.75.783-1.75 1.75s.783 1.75 1.75 1.75h6.493c.967 0 1.75-.783 1.75-1.75s-.783-1.75-1.75-1.75z"/></g></svg>