<svg xmlns="http://www.w3.org/2000/svg" viewBox="0 0 190 150"><g fill="#7DBECD"><path d="M158.384 40.64c-13.666-20.86-41.744-26.738-62.59-13.095-10.117 6.61-17.05 16.763-19.52 28.587-2.472 11.82-.19 23.9 6.42 34.016 8.667 13.243 23.152 20.442 37.92 20.442 8.485 0 17.065-2.38 24.683-7.355h.002c20.84-13.665 26.71-41.743 13.08-62.594zm-15 59.665c-19.26 12.58-45.17 7.166-57.76-12.073-6.1-9.33-8.204-20.478-5.925-31.384 2.28-10.908 8.67-20.274 18-26.374 7.02-4.593 14.92-6.787 22.75-6.787 13.62 0 26.99 6.647 34.99 18.87 12.58 19.237 7.162 45.142-12.07 57.748z"/><path d="M165.823 35.77c-7.916-12.098-20.068-20.393-34.218-23.353-14.144-2.96-28.597-.233-40.684 7.68C69 34.433 60.54 61.935 70.47 85.967l-57.9 38.453 10.626 16.007L80.8 102.145c17.76 19.232 47.306 22.953 69.38 8.53 24.963-16.352 31.98-49.953 15.646-74.904zm-17.56 71.975c-21.05 13.754-49.357 9.87-65.878-9.072l-1.012-1.113-57.204 38.014-6.76-10.174 56.2-37.322.78-.53v-1.31l-.15-.34c-10.13-22.77-2.31-49.21 18.59-62.874 11.3-7.398 24.81-9.948 38.05-7.182 13.23 2.77 24.6 10.528 32 21.846 15.28 23.336 8.712 54.764-14.63 70.057z"/><path d="M131.447 67.546c-2.235-1.36-4.758-2.257-7.196-3.124-.44-.16-.89-.318-1.34-.48l-.1-.035V44.284l.18.03c4.92.844 8.42 4.064 9.92 6.566l3.74-2.262c-2.87-4.78-7.99-8.038-13.7-8.732l-.13-.016v-5.078h-4.42V39.8l-.132.014c-3.61.376-6.774 1.59-9.147 3.51-3.11 2.514-4.89 6.29-4.89 10.365 0 5.5 3.47 8.43 5.537 9.68 2.236 1.36 4.76 2.26 7.203 3.13.443.16.89.31 1.33.47l.1.035v19.7l-.177-.03c-4.896-.856-8.404-4.113-9.92-6.64l-3.743 2.26c2.893 4.82 8.01 8.104 13.707 8.807l.13.018v5.08h4.426v-5l.135-.014c3.57-.39 6.73-1.63 9.15-3.584 3.106-2.514 4.89-6.265 4.89-10.292 0-4.063-2.02-7.622-5.54-9.764zM118.39 62.32l-.203-.075c-2.234-.816-4.55-1.695-6.153-2.67-2.3-1.398-3.394-2.636-3.394-5.886 0-2.82 1.112-5.14 3.304-6.91 2.278-1.52 4.21-2.3 6.277-2.55l.17-.02v18.1zm10.868 21.823c-1.602 1.296-3.77 2.175-6.274 2.542l-.172.025V68.606l.202.074c2.237.818 4.556 1.698 6.153 2.67 2.25 1.37 3.395 2.667 3.395 5.96 0 2.8-1.082 5.036-3.304 6.833z"/></g></svg>