<svg xmlns="http://www.w3.org/2000/svg" viewBox="0 0 190 150"><g fill="#7DBECD"><path d="M23.04 59.986c-4.09 4.113-8.366 11.02-8.698 17.182l3.494.188c.24-4.44 3.365-10.523 7.612-14.827 5.057-3.98 7.255-4.03 9.022-4.07.42-.01.854-.02 1.307-.07.453.05.887.06 1.31.07 1.77.04 3.972.08 9.02 4.06 4.254 4.31 7.385 10.39 7.624 14.82l1.78-.1 1.78.09c.23-4.43 3.36-10.51 7.62-14.84 5.07-3.98 7.27-4.03 9.03-4.06.42-.01.85-.02 1.3-.07.45.05.88.05 1.3.06 1.77.03 3.97.07 9.03 4.05 4.26 4.31 7.38 10.4 7.61 14.84l1.79-.1 1.79.09c.23-4.43 3.36-10.51 7.62-14.84 5.06-3.98 7.25-4.02 9.02-4.06.42-.01.85-.02 1.3-.07.46.05.89.05 1.31.06 1.77.03 3.97.07 9.02 4.05 3.89 3.94 6.83 9.35 7.49 13.63l.15 1.31c.02.16.03.32.03.47h1.72V79h.07v-1.09h1.72c0-.152.01-.314.03-.476v-.093c.23-4.43 3.36-10.52 7.61-14.83 5.07-3.98 7.27-4.02 9.03-4.05.42-.01.85-.01 1.3-.06.46.05.89.06 1.31.06 1.77.04 3.97.08 9.03 4.06 4.26 4.32 7.39 10.41 7.62 14.84l3.5-.18c-.31-6.14-4.6-13.06-8.7-17.19l-.16-.14c-2.19-1.73-3.98-2.83-5.47-3.55 3.48-2.27 5.79-6.2 5.79-10.66 0-7.02-5.72-12.74-12.74-12.74s-12.74 5.72-12.74 12.75c0 4.4 2.24 8.29 5.64 10.58-1.53.71-3.37 1.84-5.65 3.64l-.16.14c-2.61 2.63-5.3 6.4-6.99 10.38-1.69-3.98-4.38-7.75-6.99-10.39l-.15-.13c-2.18-1.73-3.97-2.84-5.46-3.55 3.48-2.28 5.79-6.2 5.79-10.66 0-7.02-5.72-12.74-12.74-12.74s-12.74 5.72-12.74 12.74c0 4.4 2.24 8.29 5.64 10.58-1.53.72-3.37 1.84-5.64 3.64l-.15.14c-2.62 2.63-5.304 6.4-6.994 10.38-1.686-3.98-4.37-7.75-6.986-10.38l-.16-.14c-2.236-1.76-4.05-2.88-5.56-3.59 3.43-2.292 5.71-6.2 5.71-10.63 0-7.03-5.72-12.742-12.745-12.742s-12.76 5.71-12.76 12.74c0 4.43 2.272 8.338 5.72 10.62-1.518.716-3.33 1.83-5.56 3.596l-.16.14c-2.626 2.63-5.31 6.4-7 10.38-1.69-3.98-4.376-7.745-6.99-10.37l-.154-.14c-2.233-1.77-4.05-2.89-5.562-3.6 3.448-2.286 5.728-6.195 5.728-10.63 0-7.03-5.71-12.75-12.74-12.75s-12.75 5.7-12.75 12.72c0 4.43 2.28 8.34 5.72 10.62-1.52.71-3.33 1.83-5.57 3.6l-.16.14zM145.063 45.62c0-5.097 4.146-9.243 9.243-9.243s9.243 4.146 9.243 9.243-4.15 9.243-9.25 9.243-9.25-4.146-9.25-9.243zm-39.455 0c0-5.097 4.145-9.243 9.24-9.243 5.098 0 9.244 4.146 9.244 9.243s-4.146 9.243-9.243 9.243-9.24-4.146-9.24-9.243zm-39.617 0c0-5.097 4.15-9.243 9.25-9.243s9.25 4.146 9.25 9.243-4.14 9.243-9.24 9.243S66 50.717 66 45.62zm-39.45 0c0-5.097 4.15-9.243 9.25-9.243s9.25 4.146 9.25 9.243-4.14 9.243-9.24 9.243-9.24-4.146-9.24-9.243z"/><path d="M166.728 97.288c-2.19-1.73-3.975-2.835-5.47-3.55 3.482-2.277 5.792-6.204 5.792-10.666 0-7.026-5.717-12.743-12.743-12.743s-12.743 5.71-12.743 12.74c0 4.4 2.244 8.28 5.646 10.58-1.53.71-3.37 1.84-5.648 3.63l-.156.14c-2.616 2.63-5.3 6.4-6.987 10.38-1.69-3.98-4.38-7.75-7-10.39l-.16-.14c-2.19-1.74-3.97-2.84-5.47-3.56 3.48-2.28 5.79-6.21 5.79-10.67 0-7.03-5.72-12.75-12.75-12.75s-12.74 5.72-12.74 12.75c0 4.4 2.24 8.28 5.64 10.57-1.53.71-3.37 1.84-5.64 3.64l-.16.14c-2.62 2.63-5.31 6.4-7 10.38-1.69-3.98-4.37-7.75-6.99-10.38l-.15-.14c-2.23-1.76-4.05-2.88-5.56-3.6 3.44-2.28 5.72-6.19 5.72-10.62 0-7.02-5.72-12.74-12.75-12.74s-12.74 5.72-12.74 12.74c0 4.43 2.27 8.34 5.72 10.62-1.52.71-3.33 1.83-5.56 3.59l-.16.14c-2.62 2.63-5.31 6.4-7 10.38-1.69-3.98-4.38-7.75-6.99-10.37l-.16-.14c-2.24-1.77-4.05-2.89-5.56-3.6 3.44-2.29 5.72-6.2 5.72-10.63 0-7.03-5.72-12.75-12.75-12.75s-12.7 5.76-12.7 12.78c0 4.43 2.28 8.34 5.72 10.62-1.52.71-3.33 1.83-5.57 3.6l-.16.14c-4.09 4.11-8.36 11.02-8.69 17.18l3.5.19c.24-4.44 3.37-10.53 7.61-14.83 5.06-3.98 7.26-4.03 9.02-4.07.43-.01.86-.02 1.31-.07.46.05.89.06 1.31.07 1.77.04 3.98.08 9.02 4.06 4.26 4.31 7.39 10.39 7.63 14.82l1.78-.1 1.78.09c.23-4.43 3.36-10.52 7.63-14.84 5.06-3.98 7.26-4.02 9.03-4.06.42-.01.85-.02 1.3-.07.45.05.88.06 1.3.06 1.77.03 3.97.07 9.03 4.06 4.26 4.31 7.38 10.4 7.61 14.84l1.79-.09 1.78.09c.23-4.43 3.36-10.52 7.62-14.84 5.06-3.98 7.25-4.02 9.02-4.06.42-.007.85-.015 1.3-.06.45.05.88.053 1.3.06 1.77.03 3.97.072 9.02 4.06 3.89 3.94 6.826 9.35 7.49 13.63l.144 1.31c.015.16.02.32.02.47h1.716v1.09h.07v-1.09h1.715c0-.16.01-.32.03-.48l.01-.1c.23-4.436 3.35-10.52 7.61-14.836 5.06-3.98 7.26-4.02 9.03-4.06.42 0 .85-.01 1.3-.06.45.05.88.06 1.3.07 1.77.04 3.97.08 9.03 4.06 4.26 4.32 7.39 10.41 7.62 14.83l3.5-.18c-.32-6.14-4.61-13.06-8.71-17.19l-.16-.14zM26.538 83.072c0-5.097 4.145-9.243 9.242-9.243s9.243 4.14 9.243 9.24c0 5.09-4.142 9.24-9.236 9.24h-.02c-5.09-.01-9.23-4.15-9.23-9.24zm39.455 0c0-5.097 4.146-9.243 9.243-9.243s9.243 4.14 9.243 9.24-4.15 9.24-9.25 9.24-9.25-4.15-9.25-9.25zm39.616 0c0-5.097 4.14-9.243 9.24-9.243 5.09 0 9.24 4.14 9.24 9.24s-4.15 9.24-9.25 9.24-9.24-4.15-9.24-9.25zm39.45 0c0-5.097 4.14-9.243 9.24-9.243s9.24 4.14 9.24 9.24-4.15 9.24-9.25 9.24-9.25-4.15-9.25-9.25z"/></g></svg>