<?xml version="1.0" encoding="UTF-8"?>
<svg xmlns="http://www.w3.org/2000/svg" viewBox="0 0 42.41 35.13">
  <path d="M4.69 30.46l-1.63 3.43-1.64-3.39c-.08-.15-.12-.2-.18-.2s-.09 0-.12.17l-.6 3.95c0 .22-.08.43-.24.47H.1s-.11 0-.11.06.09.08.12.08h1.25c.08 0 .16 0 .16-.08s0-.06-.11-.06h-.25c-.11 0-.17-.08-.17-.18v-.28L1.32 32c0 .08.29.6.29.6l.34.72c.07.17.54 1.08.7 1.38.09.17.15.28.21.28s.1-.06.24-.35l1.32-2.75.36 2.66a.89.89 0 0 1 0 .13v.11s-.08 0-.08.08.06.07.19.08 1.05.06 1.22.06.17 0 .17-.08-.08-.06-.11-.06a1.19 1.19 0 0 1-.37-.06c-.18-.05-.23-.24-.29-.6l-.57-3.69c0-.13-.06-.2-.12-.2s-.08.06-.13.15zm4.74-.05H6.75c-.07 0-.15 0-.15.07s.08.07.12.07h.23c.2 0 .24.14.25.33s0 .36 0 1.28v2.35s-.06.3-.16.32h-.22s-.11 0-.11.06 0 .08.14.08h2.39c.23 0 .3 0 .34-.17a4.72 4.72 0 0 0 .08-.68c0-.06 0-.12-.06-.12s-.07 0-.08.1c0 .25-.11.37-.26.44a1.54 1.54 0 0 1-.56.07c-.63 0-.7-.1-.71-.49V32.8h.86c.19 0 .29.09.33.22v.22a.06.06 0 0 0 .07.07c.07 0 .07-.08.07-.13v-.88s0-.06-.06-.06-.06 0-.1.07a.4.4 0 0 1-.29.1h-1v-1.57h.86c.3 0 .35.11.39.21a.65.65 0 0 1 0 .21s0 .1.07.1.07-.06.07-.08v-.79s0-.07-.05-.07h.22zm2.33.04h-1.15c-.07 0-.15 0-.15.07s.08.07.12.07h.2c.2 0 .24.14.25.33s0 .36 0 1.28v2.35s-.06.3-.16.32h-.22s-.11 0-.11.06.1.08.14.08h2.52c.32 0 .36 0 .4-.17a4.73 4.73 0 0 0 .09-.7c0-.06 0-.12-.06-.12s-.08.07-.08.1a.74.74 0 0 1-.15.35c-.14.15-.36.17-.7.17s-.63 0-.72-.13-.12-.53-.12-1.29v-2.29s.07-.3.21-.33h.23c.06 0 .12 0 .12-.07s-.07-.07-.14-.07zm3.74 0h-1.26c-.07 0-.15 0-.15.07s.08.07.12.07h.23c.2 0 .24.14.25.33s0 .36 0 1.28v2.35s-.05.3-.16.32h-.22s-.11 0-.11.06.1.08.14.08h1.6c1.13 0 1.63-.67 1.63-1.33a1.47 1.47 0 0 0-1.09-1.31 1.3 1.3 0 0 0 .6-1.05c0-.22-.09-.92-1.3-.92zm.2.27c.54 0 .74.57.74.92a.78.78 0 0 1-.24.63.61.61 0 0 1-.43.11h-.28v-1.65zm0 4c-.19-.08-.2-.17-.2-.57v-1.46h.26a.86.86 0 0 1 .49.14 1.45 1.45 0 0 1 .56 1.17.69.69 0 0 1-.72.76 1.07 1.07 0 0 1-.43-.07zm2.5-1.98a2.32 2.32 0 0 0 2.45 2.39 2.4 2.4 0 0 0 2.52-2.5 2.2 2.2 0 0 0-2.46-2.28 2.35 2.35 0 0 0-2.51 2.39zm.86-.19c0-1.63.92-1.88 1.47-1.88 1 0 1.76.9 1.76 2.18 0 1.75-1 1.94-1.39 1.94-1.08.01-1.84-.91-1.84-2.23zm8.76-2.1h-.88c-.07 0-.14 0-.14.07s.08.07.12.07h.21c.2 0 .24.14.25.33s0 .36 0 1.28v.8a2.06 2.06 0 0 1-.35 1.49 1.18 1.18 0 0 1-.82.32 1.11 1.11 0 0 1-.75-.24c-.24-.2-.47-.51-.47-1.48v-2.13s.07-.3.21-.33h.17s.11 0 .11-.07-.08-.07-.15-.07h-1.58c-.07 0-.15 0-.15.07s.08.07.12.07h.23c.2 0 .24.14.25.33s0 .36 0 1.28v.88a2 2 0 0 0 .54 1.62 2 2 0 0 0 1.35.42 1.83 1.83 0 0 0 1.27-.44 2.29 2.29 0 0 0 .58-1.86v-1.93s.07-.3.21-.33h.17c.06 0 .12 0 .12-.07s-.07-.07-.14-.07zm2.62 0h-1.28c-.07 0-.15 0-.15.07s.08.07.12.07h.23c.2 0 .24.14.25.33s0 .36 0 1.28v2.35s0 .3-.16.32h-.22s-.11 0-.11.06.1.08.14.08h1.63s.14 0 .14-.08 0-.06-.09-.06h-.3c-.16 0-.2-.13-.22-.32s0-.74 0-1.29v-.08h.52a.11.11 0 0 1 .1 0l.29.4.31.44a2.91 2.91 0 0 0 .83.89 1.26 1.26 0 0 0 .65.12h.58s.13 0 .13-.08 0-.06-.09-.06h-.17a1.21 1.21 0 0 1-.67-.41c-.31-.32-.66-.76-1.1-1.32l-.2-.26a1.72 1.72 0 0 0 .79-1.36 1.06 1.06 0 0 0-.45-.84 2 2 0 0 0-1.12-.26zm0 2.33v-2a1.3 1.3 0 0 1 .32 0c.34 0 .91.23.91 1.09a1 1 0 0 1-.35.9.59.59 0 0 1-.42.1 1.58 1.58 0 0 1-.48-.09zm4.11-2.22l-.05 3.58c0 .52 0 .69-.18.74a1.07 1.07 0 0 1-.27 0s-.11 0-.11.06.08.08.15.08h1.4s.15 0 .15-.08-.08-.06-.12-.06a.94.94 0 0 1-.31 0c-.13 0-.19-.24-.2-.66 0 0-.06-2.46-.07-2.51l.12.13c.26.28.78.86 1.31 1.38l.8.8 1 1c.07.07.14.14.22.14s.09-.1.09-.2l.07-3.82c0-.34.06-.46.21-.5h.18c.08 0 .12 0 .12-.07s-.09-.07-.15-.07h-1.34c-.07 0-.17 0-.17.07s.06.07.11.07a1 1 0 0 1 .31 0c.13.05.19.15.2.53 0 0 .06 2.54.06 2.7l-.42-.45-.9-.93c-.92-.91-1.87-1.93-1.88-1.94l-.06-.06c-.07-.08-.12-.13-.18-.13s-.09.1-.09.2zm7.59-.15h-2.67c-.07 0-.15 0-.15.07s.08.07.12.07h.23c.2 0 .24.14.25.33s0 .36 0 1.28v2.35s0 .3-.16.32h-.22s-.11 0-.11.06.1.08.14.08h.76l.61.03h1c.23 0 .3 0 .34-.17a4.68 4.68 0 0 0 .08-.68c0-.06 0-.12-.06-.12s-.07 0-.08.1c0 .25-.11.37-.26.44a1.54 1.54 0 0 1-.56.07c-.63 0-.7-.1-.71-.49V32.8h.86c.19 0 .29.09.33.22v.22a.06.06 0 0 0 .07.07c.07 0 .07-.08.07-.13v-.88s0-.06-.06-.06-.06 0-.1.08a.4.4 0 0 1-.29.1h-1v-1.59h.86c.3 0 .35.11.39.21a.65.65 0 0 1 0 .21s0 .1.07.1.07-.06.08-.08v-.79s0-.07-.05-.07h-.06zM21.16 27a10.43 10.43 0 0 0-3.47-2.06h-.1l-.65-.29-.16-.06-.11-.05a9.3 9.3 0 0 1-6.49-8.74v-.52a17.64 17.64 0 0 1 .11-1.91l.18-1.37.35-2c0-.21.05-.32.07-.37V8.5a3.3 3.3 0 0 0-1.13-2.97l-.12-.11 1.76-2.3-.05-.07a1.14 1.14 0 0 1-.24-.57v-.26l.25.09.48.15h.07L13.64.21l.08.13a1.89 1.89 0 0 0 1.79.82A7.53 7.53 0 0 0 16.82 1l1.74-.24 1.46-.17h.11c.34 0 .71-.05 1.09-.05a17 17 0 0 1 2.43.19l1.29.17 1.52.25h.74a2.06 2.06 0 0 0 1.5-.48 1.64 1.64 0 0 0 .2-.22l.17-.22 1.57 2.17h.08l1.07-.4.32-.12a11.2 11.2 0 0 1 1.47-.45l.36-.08-.13.29a4 4 0 0 1-.31.6l-.19.29.33-.13.43-.17-.21.39a4.29 4.29 0 0 1-.93 1.17l-.09.06.06.09a.54.54 0 0 1 .06.28.7.7 0 0 1-.06.28 1.25 1.25 0 0 1-.24.35l-.07.07.43.57-.08.08a3.43 3.43 0 0 0-1.24 3v.22a8.59 8.59 0 0 0 .07 1l.17 1.34.23 1.37.17 1.5.06 1.38v.16a9.29 9.29 0 0 1-1.93 5.82 9.34 9.34 0 0 1-4.73 3.25 12.63 12.63 0 0 0-4.3 2.27v.05l-.09.1z" fill="#fff"/>
  <path d="M32.54 5.3h-.06a.1.1 0 0 1 .06 0zm0 0zm1-3a4.2 4.2 0 0 0 .32-.61l.21-.49-.52.11a11.26 11.26 0 0 0-1.49.45l-.32.11-1.08.39L29.04.09l-.26.33a1.49 1.49 0 0 1-.19.21 2 2 0 0 1-1.43.45h-.72l-1.5-.3-1.26-.19A17.1 17.1 0 0 0 21.24.4a11.29 11.29 0 0 0-1.21.06l-1.48.17-1.74.27a7.34 7.34 0 0 1-1.28.1 1.79 1.79 0 0 1-1.7-.77L13.66 0l-1.8 2.35-.48-.15-.44-.14v.43a1.24 1.24 0 0 0 .26.62L9.51 5.42l.18.18a3.2 3.2 0 0 1 1.14 2.85c0 .39 0 .79-.05 1.1 0 .05 0 .16-.07.38L10.37 12l-.18 1.33a17.85 17.85 0 0 0-.11 1.93v.53a9.41 9.41 0 0 0 6.66 8.88l.16.06.64.24h.1a10.34 10.34 0 0 1 3.44 2l.16.16.17-.18a12.55 12.55 0 0 1 4.27-2.25 9.44 9.44 0 0 0 4.77-3.28 9.4 9.4 0 0 0 2-5.89v-.16l.01-1.37-.16-1.49-.23-1.37-.21-1.33a8.36 8.36 0 0 1-.06-1v-.22a3.32 3.32 0 0 1 1.19-2.86l.17-.13-.44-.58a1.37 1.37 0 0 0 .22-.46.8.8 0 0 0 0-.67 4.33 4.33 0 0 0 1-1.21l.33-.68zm-21.3.16l1.4-1.83a2.41 2.41 0 0 0 2.11.79l.54-.06 2.3-.36 1.54-.17a17.45 17.45 0 0 1 4.39.26l2 .33a2.8 2.8 0 0 0 2.42-.59l.1-.13 1.3 1.71-.12.05-.53.2h-.07l-.68-.85a4.24 4.24 0 0 1-2.37.39l-1.2-.2-1.43-.23-1.57-.18a14.43 14.43 0 0 0-2.82.06l-1.3.18-2.16.33a4 4 0 0 1-2.31-.4l-.67.87-.27-.05zm16.44 4.05c0 .21-.27.26-.35.43l-.11.06a.42.42 0 0 0 .28-.16c.17-.05.71-.17.73-.06s0 .2-.18.32a2 2 0 0 1-1.11.31 2.79 2.79 0 0 0-.67.11l-1.13.33a2.63 2.63 0 0 1-1.27.05 7.67 7.67 0 0 0-1.93-.23.28.28 0 0 0-.22.15h.24s0 .56-.2.74a.63.63 0 0 1-.1-.22c0-.08-.3-1.27.23-1.65a1.23 1.23 0 0 1 .82.14c.4.22 1.09.33 1.63.54.23 0 .46-.1.7-.13l1.6-.24c.29.05.33-.32.58-.34s.27-.12.4-.19.06.01.06.04zm-13.3.73a.74.74 0 0 1 .48-.07 2.07 2.07 0 0 1 .84.31c.56.18 1 .57 1.56.74l-.08-.12a5.11 5.11 0 0 1 1.1-.68 1.17 1.17 0 0 1 1-.53h.09v.13a2.44 2.44 0 0 1-.25.72 4 4 0 0 0-.51.23l-1.32.78c-.34.27-.5 0-.85-.27a5 5 0 0 1-1.17-.75s.1 0 .06-.07a2.61 2.61 0 0 0-.53.14c-.08 0-.26.1-.32 0h.09c.11-.07.15-.22.33-.27a1 1 0 0 0-.58-.18zm14.92.1c0 .1-.19.34-.44.39a1 1 0 0 1-.76-.11c0 .22.38.3.65.25a1.29 1.29 0 0 1-.95.34 1.72 1.72 0 0 1-.91-.32c0 .21.37.4.66.42a1.71 1.71 0 0 1-1.29.06 1.27 1.27 0 0 1-.51-.27c0 .17.22.3.42.35a.86.86 0 0 1-1-.33c.62-.18 1.09-.34 1.72-.5a1.64 1.64 0 0 0 1.41-.42.77.77 0 0 0 .15-.26.4.4 0 0 1 .19 0c.01.06.61.17.67.4zm-5.15.9a2.57 2.57 0 0 0 .84-.07c.07.12-.07.31-.18.27 0 .16.2.38.17.57l-.57-.22a1.09 1.09 0 0 1 .2.69c-.17-.13-.53-.14-.68-.25.07.26.24.64 0 .89-.21-.15-.32-.39-.49-.56a1.23 1.23 0 0 1-.08.86c-.11-.14-.58-.32-.57-.48s-.17.5-.33.6a4.24 4.24 0 0 0-.52-.74c.06-.07.14 0 .11-.15s-.29-.23-.53-.34a1.42 1.42 0 0 1 .14-.23 3.16 3.16 0 0 0 .38-.69 1.78 1.78 0 0 0 .12-.47l.78.08c.31.08.79.19 1.21.24zm-5.32-.09a.62.62 0 0 0 .07 1 .87.87 0 0 0 .34.17 1.09 1.09 0 0 0-.67.78.63.63 0 0 1-.12-.54.65.65 0 0 1-.4.22.57.57 0 0 1 .1-.5c0-.08-.32 0-.45.05a.36.36 0 0 1 .2-.4c0-.09-.15 0-.37 0a6.05 6.05 0 0 0 .59-.34zm.11 6.57c.34.55.37.57.56.89s1 1.5 1.1 1.74a6.75 6.75 0 0 0 1.45 1.84c-.39.43-.2 1-.85 1.06-.37.06-1.43.38-1.79-.23a3.94 3.94 0 0 1-.42-2.35 3.5 3.5 0 0 0 1 1.18 11.07 11.07 0 0 1-1.05-1.64 1.51 1.51 0 0 1-.22-.79v-1.28a2.51 2.51 0 0 0-.08-.7c0-.09-.09-.34-.11-.43a.83.83 0 0 1 0-.2 10 10 0 0 0 .41.91zm2.56-8.17a5.14 5.14 0 0 1-1 .78c-.33.16-.64.3-.85.2S20.53 7 20.53 7v-.14c.16-.08.39 0 .45-.23a4.63 4.63 0 0 0 .08-.52c.07-.14.27-.21.32-.37-.27.17-.48.43-.81.42-.1 0 0-.16-.09-.22s-.07-.08-.08-.13h-.09v-.17h-.17c0-.17.13-.32.14-.51 0 0 .13 0 .08.09a.1.1 0 0 0 0 .1c0-.08.29-.19.13-.24s-.26 0-.27-.07a.72.72 0 0 1 .15-.4c.17.14.41.27.46.5.06.07.12.16.21.16s.29.12.47.1a.1.1 0 0 1 .06-.1.1.1 0 0 1 .12 0c0 .09 0 .14-.08.2a.48.48 0 0 1-.24.08c.15.1.28-.06.42-.1a.14.14 0 0 1 .16.08c.06.35-.09.86.35 1zm6.84 12.72c-.28 0-.53 0-.63.25s-.22.57-.33.76a1.14 1.14 0 0 1-.72.53c-.37.1-.88.13-.94-.09.09-.45.7-.52 1-.64.49-.23.53-.66.55-1.1-.68-.44-2.06-1.53-2.06-1.53a18.54 18.54 0 0 0 1.83 1.61.73.73 0 0 1-.39.75c-.19.11-.41.19-.69.33-.47.26-.33.64-1 .88-.26.1-.91.19-.74-.16s0-.36 0-.36a4.11 4.11 0 0 1-.74.16c-.12 0-.25-.08-.14-.18l.17-.12a.65.65 0 0 0 .19-.2c.07-.12.12-.28 0-.32a.25.25 0 0 0-.28.05c-.26.29-.28.78-1 .64 0 0-.89-.2-.17-1.2.2-.27-.35-.58-.68-1-.62-.76-2.41-3.65-2.41-3.65-.18-.27-.38-.59-.55-.85s-.23-.82.17-.77c.19 0 .25.12.45 0s.14.16 0 .27a.24.24 0 0 0 0 .35c.15.09.19-.09.36 0s.3.47.61.56h.16s-.1-.3-.06-.45a.93.93 0 0 0 .36.29c.22.12.34.15.28 0s-.09-.34-.09-.34a.25.25 0 0 1 .22-.27.22.22 0 0 1 .17.12c.14.25.07.39.38.49a10 10 0 0 0 2.14 2.64 1.74 1.74 0 0 0 .42.24l-.35-.33a7.88 7.88 0 0 1-2-2.56c.36-.15.42-.5.52-.45s-.11.32-.08.46.1.2.33.19c-.41.41.63.75 1.4.73a4.48 4.48 0 0 0 1.34.6s.06.28.24.29a10.37 10.37 0 0 0 1 1.28c.59.55 1.25 1.57 1.79 2.1zm-4.4-.69c-1.24-1.32-2.47-3.32-2.63-3.38 0 0 1.53 2.32 1.8 2.71s.66.77.83 1.08a.32.32 0 0 0 0-.41zm-2.3-11.81c-.53.51.1 1.78-.26 2.3l-.11.18a2 2 0 0 0-.7-.1 4.22 4.22 0 0 0-.43 0 6 6 0 0 0-.76.05.92.92 0 0 1 .11-.18.62.62 0 0 1-.55-.18.43.43 0 0 1-.06-.39c.07-.19.27-.37.35-.54a1.59 1.59 0 0 0 .19-.49.36.36 0 0 0 .3.29 1.33 1.33 0 0 0 .86-.23 1.19 1.19 0 0 1-.91.54 1.42 1.42 0 0 0 .8-.2 3.71 3.71 0 0 0 .88-.88c.1-.1.33-.2.29-.17zm-.6 1.78a.54.54 0 0 1-.54.3c-.44 0-.54-.24-.54-.24a.47.47 0 0 0 .55.4.49.49 0 0 0 .54-.45zm10.6-3.1a3.32 3.32 0 0 0-1.1 1.93 8.25 8.25 0 0 0 0 2.68l.4 2.68.13 1.17.05 1.37a9.1 9.1 0 0 1-6.63 9.11l-1.26.49a10.76 10.76 0 0 0-3 1.8 13.13 13.13 0 0 0-4.24-2.31 9.06 9.06 0 0 1-6.53-8.32 17.81 17.81 0 0 1 .11-2.86l.2-1.41.33-1.92a7.08 7.08 0 0 0-.16-3.27 3.27 3.27 0 0 0-.9-1.22l1.39-1.83a2.75 2.75 0 0 0 .23.48l.11.19-.76 1a5.51 5.51 0 0 1 .93 4.05l-.11.87-.41 2.48-.16 1.39-.05 1.3c-.16 3.18 2.26 7.25 6.71 8.58a14.81 14.81 0 0 1 3.32 1.77 14.54 14.54 0 0 1 3.34-1.74c5.15-1.45 6.71-5.42 6.77-8a17.1 17.1 0 0 0-.12-2.91l-.2-1.32-.27-1.64a8.7 8.7 0 0 1 0-2.9 1.44 1.44 0 0 0 .75-1v-.08a4.18 4.18 0 0 0 .92-.88s.14.15.22.28zm1-3.88c-.36.82-.58 1.06-1.13 1.25 0 0-1.77.54-2.22.72a8.5 8.5 0 0 0-1.2.57 4.43 4.43 0 0 0-3.1 0 9 9 0 0 0-1.95 1.08c-.09-.08-.2-.22-.3-.23a.51.51 0 0 1 .24.49c.08 0 .36-.24.56-.07s0 .38-.07.55c.21-.16.44-.29.67-.14s0 .48-.12.62c.19 0 .39-.18.52 0s-.07.3-.26.41c.18 0 .2.13.73.16l-.67.07c-.12 0-.26-.09-.5-.16-.61-.17-1-.36-1.22-.44a1.3 1.3 0 0 0-.7 0h-.18c.81-.29.57-1.26 1-1.85a2.46 2.46 0 0 1 1.93-1c.95-.13 2.43-.27 2.87-.36a13.51 13.51 0 0 0 2-.58c.24-.11 1.31-.49 1.72-.64a11.8 11.8 0 0 1 1.36-.44zm.05 1a2.72 2.72 0 0 1-1 1.24 6 6 0 0 1-2.13.56 2.58 2.58 0 0 1-1.13-.09 1.29 1.29 0 0 1-.26-.11 16.44 16.44 0 0 1 3.45-1.23c.71-.26.8-.29 1.05-.39zM21.24 3.62a1 1 0 0 0-.8.46c-.09-.08-.06-.23 0-.37a.75.75 0 0 1 .8-.09zm11.49.83a1.13 1.13 0 0 1-.35.42 5.1 5.1 0 0 1-3 .37c.77-.31.85-.57.89-.76a6.41 6.41 0 0 0 2.4-.48c.11-.05.13.31.06.45zM28.61 4c.22.07.56.23.4.28a20.41 20.41 0 0 0-4.07 1.37.6.6 0 0 0-.23 0 .36.36 0 0 0-.11-.35.45.45 0 0 0-.51-.06 9.75 9.75 0 0 1 1.93-1.05 5.42 5.42 0 0 1 1.78-.31 2.23 2.23 0 0 1 .81.12zm-6.2.07a.29.29 0 0 1-.12.31c-.23.11-.38-.13-.57-.19-.36-.05-.78 0-1.13-.08a.9.9 0 0 1 .43-.34 1.78 1.78 0 0 1 .92-.04.62.62 0 0 1 .46.37zm.29.12a.17.17 0 0 1 0 .11.17.17 0 0 1-.2.07.27.27 0 0 1 .13-.25.08.08 0 0 1 .06.1zm7.45.29c0 .17-.28.37-.48.48s-.52.2-.63.36a11.54 11.54 0 0 1-1.9.68c-.56.14-1 .26-1.56.35a.45.45 0 0 0-.35-.06c.14-.29.08-.48-.17-.56l2.73-1a7.57 7.57 0 0 1 1.55-.34 2.9 2.9 0 0 0 .8.12zm-8.33-.12a1.49 1.49 0 0 1 .58.54.41.41 0 0 1-.11.35.35.35 0 0 0-.18.18.28.28 0 0 0-.06-.22.49.49 0 0 1-.2-.21c-.28 0-.71 0-.86-.13a.28.28 0 0 0-.05-.14h.6s.43 0 .48.08 0 0-.06 0h-.06a.23.23 0 0 0 .24.19.1.1 0 0 0 0-.15c-.05-.1-.18-.12-.34-.14s-1 0-1 0a1.75 1.75 0 0 0-.41-.3c0-.06.06-.11.1-.09a7.16 7.16 0 0 0 1.32.07zm1.09 0c0 .05 0 0 .07.1a.28.28 0 0 1-.15.23.25.25 0 0 1-.27 0 .73.73 0 0 0-.14-.05c0-.18.21-.27.35-.33a.107.107 0 0 1 .17.13zm-8.22.14c.79.14.75.85.95 1.16a4.52 4.52 0 0 1-1.48-.06 3.23 3.23 0 0 1-2.65-2.42 8.15 8.15 0 0 0 3.17 1.4zm17.65.48a4.11 4.11 0 0 1-1.4 1.22 1.37 1.37 0 0 1-.92.05 1.56 1.56 0 0 1-.6-.27c-.3-.24-.28-.4-.27-.48s.1-.18.2-.15a5.22 5.22 0 0 0 2.98-.29zm-9.57-.15h.1c0 .16-.13.21-.23.23s-.12-.05-.14-.11a.22.22 0 0 0 0-.15.07.07 0 0 1 0-.06.23.23 0 0 0 .25.17zm-7.06.95a1.79 1.79 0 0 0 .54.6 3.57 3.57 0 0 1-.77.1 5.73 5.73 0 0 1-.85 0 3.13 3.13 0 0 1-1.69-1.11 4.77 4.77 0 0 0 1.5.48 4.9 4.9 0 0 0 1.25 0zm2.15.57a.3.3 0 0 0 .15.29 2.45 2.45 0 0 0-.42 0 2 2 0 0 1-1.78-.91 2.36 2.36 0 0 1 .6 0 5.38 5.38 0 0 1 1.43.69zm12.18 0a.79.79 0 0 1-.6.39s0-.22-.35-.2a1.15 1.15 0 0 0-.3.06.26.26 0 0 0 0-.27.12.12 0 0 0-.08-.05.5.5 0 0 0-.27.09 1.1 1.1 0 0 1-.29.08.69.69 0 0 0-.36.31h-.15L26.39 7a3.3 3.3 0 0 1-.9-.11s.32-.16.15-.44c0 0 1.58-.34 2.2-.52a7.59 7.59 0 0 0 1.17-.39c0 .14.1.4.35.59a2.07 2.07 0 0 0 .66.26zm1.32-.31a1.15 1.15 0 0 1-1.71.76.92.92 0 0 0 .52-.43 1.5 1.5 0 0 0 1.17-.29zm-13.86.74a.19.19 0 0 0-.08.28.39.39 0 0 0 .17.17.81.81 0 0 0-.22.22 4.22 4.22 0 0 0-.58-.28 1.91 1.91 0 0 0-1.1-.32 2.11 2.11 0 0 0-.45.15 1.71 1.71 0 0 1-.75-.39 4.66 4.66 0 0 0 1.06 0 4.87 4.87 0 0 0 .78-.11 2.64 2.64 0 0 0 1.15.32zm5.31 2.89c-.12 0 0 .06-.31.27a.8.8 0 0 1-.41.05.3.3 0 0 0 0-.35.39.39 0 0 0-.31-.24.73.73 0 0 1 .25.3.26.26 0 0 1-.09.3.66.66 0 0 0-.26.14.65.65 0 0 0-.33-.66.75.75 0 0 1 .21.74c-.06.13-.56.47-.71.34s0-.39-.13-.63c0 0 0-.1-.07-.09.07.23 0 .33 0 .58a.68.68 0 0 1-.38.07.41.41 0 0 1-.06-.36 1.6 1.6 0 0 1 .33-.6.47.47 0 0 0-.15.09.87.87 0 0 0-.31.65.32.32 0 0 0 .08.22s-.27 0-.34-.15.06-.52.2-.69a1 1 0 0 1 .31-.23 3.8 3.8 0 0 1 1-.13 1.74 1.74 0 0 1 .82.08 2 2 0 0 1 .64.34zM27.44 15c0 .2-.22.34-.42.36h-.08c0-.19 0-.55.16-.58a.25.25 0 0 1 .34.22zm-3.1-2.18a5.87 5.87 0 0 0 1.2 1.18 7.74 7.74 0 0 1-.92-1 26.12 26.12 0 0 0 2.78 1.75c-.18 0-.4-.06-.51.08s0 .37-.09.58a.21.21 0 0 1-.2.19.8.8 0 0 0-.58-.7 1 1 0 0 1 .31.5 5.15 5.15 0 0 1-1.3-.61 2.41 2.41 0 0 1-1.27-.21c-.32-.21.35-.25.08-.47-.12-.1-.26 0-.37-.15s.19-.33.08-.55-.21-.14-.32 0-.19.55-.53.47-.14-.39-.36-.56a.34.34 0 0 0-.45 0 .45.45 0 0 0-.11.35 5.11 5.11 0 0 1 0-2.55 3.31 3.31 0 0 0-.1 2.69.9.9 0 0 1-.32-.32 1.58 1.58 0 0 1-.19-.79c-.26.45.24 1.28 0 1.27s-.16-.32-.37-.43-.29.08-.37 0 .35-.4 0-.62c-.21-.12-.31.1-.48 0a.65.65 0 0 0-.4-.06 10.91 10.91 0 0 1 .39-2.2.89.89 0 0 0 .71-.09c.22.42.67.08.87-.09s.19-.23.37-.31.41 0 .6 0a.46.46 0 0 0 .25-.22 5.38 5.38 0 0 1 .71 1.37 7.67 7.67 0 0 0 .9 1.52zm-4.06-6.2a1.18 1.18 0 0 0-1.16.57 2.23 2.23 0 0 0-1.05.65 3.69 3.69 0 0 1-.61-.29.51.51 0 0 1 .26-.28c-.11-.07-.31-.17-.27-.29s.37-.1.71-.24c-.14-.07-.3-.17-.23-.36s.37-.16.61-.1a.29.29 0 0 1 0-.44.9.9 0 0 1 .4-.07.82.82 0 0 1 .22-.41c-.14 0-.23.22-.28.32-.44 0-.64.18-.54.46a.44.44 0 0 0-.51.18 4.76 4.76 0 0 0-1.89-.59h-.2a1 1 0 0 1-.14-.32 1.07 1.07 0 0 0-.44-.71 14.13 14.13 0 0 1 2.84.72 13.08 13.08 0 0 0-3.49-1 8.14 8.14 0 0 1-2.59-1 1.37 1.37 0 0 1-.65-.95 10.07 10.07 0 0 0 1.47.38l1.2.24c.51.11 1.24.33 1.24.33 1.15.33 2.43.12 3.55.5.5.2.48.81.56 1.28l.12.12c.04.68.35.9.87 1.3zm3.66 6.19A9.28 9.28 0 0 0 25 14a5 5 0 0 1-1.12-1 3.25 3.25 0 0 1-.76-1.62 5.74 5.74 0 0 0 .82 1.43zm-5.9-8.33a8.75 8.75 0 0 0-2.1-.48 5.19 5.19 0 0 1-.61-.17c.21 0 .4.1.63.13a8.44 8.44 0 0 1 2.12.38 1.14 1.14 0 0 1 .61.86 1.64 1.64 0 0 0-.65-.72z" fill="#094183"/>
  <path d="M5.41 19.41h-.13v.13a3 3 0 0 1-.86 3.1l-.27.24.35-.06a4 4 0 0 1 1-.07 3.89 3.89 0 0 1 2 .58l-.53 2.62a.51.51 0 0 0 0 .11.78.78 0 0 0 .17.44 2.71 2.71 0 0 0 1.35.67A7.85 7.85 0 0 0 14.74 26l1-.67.45-.28.54-.33a8.17 8.17 0 0 1 2.88-1.13 8.05 8.05 0 0 1 5.76 1.14l.21.12 1.35.88.84.53a7.86 7.86 0 0 0 6.27.9c.34-.11 1-.35 1.14-1l-.53-2.75.07-.05a4.5 4.5 0 0 1 3-.44l.37.07-.28-.25a3 3 0 0 1-.85-3.1v-.12h-.13a10.69 10.69 0 0 0-3.56.53c-.53.21-1.34.51-1.58 1.24v2.93a5.89 5.89 0 0 1-3.2-1.22l-.31-.21-1.24-.79a11.25 11.25 0 0 0-4.49-1.67 11 11 0 0 0-7.6 1.86l-1.18.8a5.87 5.87 0 0 1-3.15 1.21v-2.79c0-.42-.33-.81-1-1.16a9.25 9.25 0 0 0-4.11-.84z" fill="#094183"/>
  <path d="M9.27 22.44a2.22 2.22 0 0 0 1-.47v2.2a3.26 3.26 0 0 1-2.17-.67.44.44 0 0 1-.16-.29.24.24 0 0 1 0-.11 1.26 1.26 0 0 1 .88-.52l.28-.08zm22.67-.35a2.84 2.84 0 0 0 1.15.53 3 3 0 0 1 1 .43.32.32 0 0 1 .14.23.24.24 0 0 1 0 .1 1.64 1.64 0 0 1-1 .66 5.11 5.11 0 0 1-1.31.19z" fill="#fff"/>
  <path d="M5.71 20.4a3.84 3.84 0 0 0-.07-.71 9 9 0 0 1 3.94.87c.31.2.66.47.66.84-.06.47-.53.61-.94.73l-.54.17a1.47 1.47 0 0 0-1.1.71A4.75 4.75 0 0 0 5 22.43a3.18 3.18 0 0 0 .71-2.03zm28 2.11l-.53-.16a2.13 2.13 0 0 1-1.13-.56.5.5 0 0 1-.08-.28.64.64 0 0 1 .05-.25 2.88 2.88 0 0 1 1.72-1l.17-.05a11.26 11.26 0 0 1 2.7-.36 4.4 4.4 0 0 0-.07.75 3.07 3.07 0 0 0 .69 2 5 5 0 0 0-2.67.57 1.18 1.18 0 0 0-.82-.66zm-20.24.91l1.82-1.17a10.42 10.42 0 0 1 7-1.65 10.73 10.73 0 0 1 4.15 1.48l1.17.73 1.2.78a5.49 5.49 0 0 0 3.94.88 2.69 2.69 0 0 0 1.61-.78l.58 2.49c-.07.33-.43.49-.71.62h-.07a7.69 7.69 0 0 1-6.6-1.08l-1.8-1.18a8.62 8.62 0 0 0-6.32-1.23 9.29 9.29 0 0 0-3.32 1.43l-1.66 1.08A7.64 7.64 0 0 1 9.02 27a3.07 3.07 0 0 1-1.59-.63.5.5 0 0 1-.15-.28l.5-2.46a3.22 3.22 0 0 0 2.34.86 5.58 5.58 0 0 0 3.38-1.07z" fill="#fff"/>
  <path d="M8.82 24.89l-.65-.09c.06 0 .06 0 .06.08l-.18 1.21h-.06a.11.11 0 0 0 0 .05 4.23 4.23 0 0 0 .42.08v-.05c-.05 0-.06 0-.06-.06l.07-.48a2.12 2.12 0 0 0 .29.06.44.44 0 0 0 .57-.36c.01-.15-.09-.39-.46-.44zm-.14.6h-.26a2.88 2.88 0 0 0 .07-.35h.24a.3.3 0 0 1 .21.09v.13c0 .11-.07.15-.26.12zm1.38-.49a.64.64 0 0 0-.47.17.79.79 0 0 0-.23.56.67.67 0 0 0 .64.77.63.63 0 0 0 .47-.17.87.87 0 0 0 0-1.14.64.64 0 0 0-.41-.19zm.2 1.15a.33.33 0 0 1-.24.08c-.24 0-.36-.19-.35-.5a.55.55 0 0 1 .14-.39.32.32 0 0 1 .24-.08.33.33 0 0 1 .24.1.7.7 0 0 1 0 .8zm1.28-.72c-.17 0-.32 0-.35-.11s0-.17.17-.19.35 0 .36.07a.09.09 0 0 0 .06 0l.15-.38v-.05h-.22a.87.87 0 0 0-.34 0c-.38.08-.47.34-.43.53s.36.3.6.3.34 0 .37.12v.13a.39.39 0 0 1-.25.13.57.57 0 0 1-.36 0 3.58 3.58 0 0 0-.11.38h.56c.43-.09.57-.37.53-.59s-.48-.3-.73-.31zm1.71.24l-.45-1a2.56 2.56 0 0 0 .29-.12h.14a3.1 3.1 0 0 0-.13-.33h-.06s0 .06-.06.08l-.84.38H12a3.12 3.12 0 0 0 .13.33h.06s0-.05.06-.07l.3-.14.44 1a3.69 3.69 0 0 0 .38-.16c-.09.1-.1.09-.11.06zm1.51-1.12l-.05.07-.53.34a3.58 3.58 0 0 0-.19-.31l.28-.18h.13a2.69 2.69 0 0 0-.17-.29.09.09 0 0 0-.05 0l-.05.07-.29.19-.17-.29.49-.3h.13a2.69 2.69 0 0 0-.17-.29.09.09 0 0 0-.05 0s0 .06-.05.09l-.8.52a.09.09 0 0 0 0 .05h.12l.66 1v.09a.1.1 0 0 0 0 .05l.85-.53h.13a2.79 2.79 0 0 0-.17-.3l-.05.05zm1.23-.65l-.4-.23a.36.36 0 0 0 0-.49.43.43 0 0 0-.64-.08l-.57.37a.09.09 0 0 0 0 .05h.09l.66 1v.07a.11.11 0 0 0 0 .05 3.9 3.9 0 0 0 .35-.21h-.09l-.26-.43a1.3 1.3 0 0 0 .2-.11l.41.24h.07a4.15 4.15 0 0 0 .36-.22.09.09 0 0 0 0-.05c-.07.14-.09.14-.18.06zm-.74-.32l-.26.17a3.11 3.11 0 0 0-.18-.3l.25-.16c.13-.08.22-.07.28 0v.13a.25.25 0 0 1-.09.19zm3.46-1.21a.16.16 0 0 0 0 .07v.09a.34.34 0 0 1-.2.16.37.37 0 0 1-.28 0 .51.51 0 0 1-.24-.32.56.56 0 0 1-.05-.37.38.38 0 0 1 .24-.18c.13 0 .27 0 .3.09s.09-.38.09-.38h-.18a.59.59 0 0 0-.3 0 .69.69 0 0 0-.45.94.68.68 0 0 0 .86.51.62.62 0 0 0 .38-.27v-.05l-.17-.27zm1.48.06l-.25-.43a.36.36 0 0 0 .23-.43c0-.25-.25-.38-.55-.34l-.68.1a.1.1 0 0 0 0 .06c.06 0 .07 0 .07.06l.17 1.2v.06a.13.13 0 0 0 0 .05 3.89 3.89 0 0 0 .41 0v-.05c-.06 0-.07 0-.08-.06l-.07-.48a1.29 1.29 0 0 0 .23 0l.27.39v.07a4 4 0 0 0 .42 0 .09.09 0 0 0 0-.06c-.1-.01-.11-.03-.17-.12zm-.37-.67a.25.25 0 0 1-.17.08h-.31v-.34h.3c.15 0 .23 0 .25.14zm1.62.58h-.63V22h.47v-.3h-.49v-.3h.71v-.34h-1.14v.05c.09 0 .09 0 .09.07v1.22l-.08.06v.05h1.13v-.34h.04s-.03.19-.09.19zm1.25-.63l.26-.31a.06.06 0 0 1-.05 0h-.13a.87.87 0 0 0-.32-.1c-.39-.05-.56.16-.58.35s.24.4.47.49.32.12.31.24l-.06.12a.4.4 0 0 1-.28 0 .58.58 0 0 1-.32-.15v-.05a3.67 3.67 0 0 0-.23.32h.22l.32.1a.69.69 0 0 0 .53-.11.41.41 0 0 0 .16-.27c0-.34-.25-.44-.48-.53s-.3-.11-.29-.22l.05-.1a.22.22 0 0 1 .17 0 .42.42 0 0 1 .29.13v.06zM24.06 23l-.14-.37a.17.17 0 0 0 0 .07l-.06.07a.33.33 0 0 1-.25 0 .42.42 0 0 1-.25-.56.56.56 0 0 1 .23-.36.38.38 0 0 1 .3 0 .31.31 0 0 1 .19.14v.1a3.8 3.8 0 0 0 .28-.27h-.11l-.05-.06a.58.58 0 0 0-.26-.14.69.69 0 0 0-.53.06.78.78 0 0 0-.35.49.67.67 0 0 0 .45.89.63.63 0 0 0 .47 0h.07zm1.15.51l.09-1.23v-.08h.05l-.43-.2-.06.07-.83.92h-.06a3.4 3.4 0 0 0 .34.16v-.06l.16-.18.43.19a2.4 2.4 0 0 0 0 .25 3.61 3.61 0 0 0 .35.16.09.09 0 0 1-.04-.04zm-.18-1.15c0 .11-.07.54-.07.56a2.49 2.49 0 0 0-.28-.14l.37-.43zm1.52 2l.66-1.06h.06l-.41-.27-.31.23-.38.27c0-.08.07-.32.07-.32 0-.2.08-.47.09-.49s-.41-.28-.41-.28v.08l-.66 1.06h-.06a3.6 3.6 0 0 0 .32.22v-.06l.52-.83c0 .16-.16.7-.16.7l-.07.4.38-.26.58-.43c-.13.18-.51.79-.51.79h-.06a3.63 3.63 0 0 0 .33.22s.01-.01.02-.03zm1.71.88h-.11l-.5-.33.6-.9h.1l-.38-.26v.1l-.67 1h-.08l.8.54s.06 0 0 .07a3 3 0 0 0 .21-.29l.03.01zm1-.69v.06l-.06.07-.86.89h-.06a3.23 3.23 0 0 0 .33.17v-.06l.17-.17s.42.21.43.21a2.45 2.45 0 0 0 0 .25 3.45 3.45 0 0 0 .34.18.09.09 0 0 1 0-.09l.13-1.19v-.11h.05l-.42-.21-.07-.05zm.09.37c0 .11-.09.54-.09.56a2.53 2.53 0 0 0-.28-.15l.38-.42zm1.53.2c.05 0 .06 0 0 .08l-.19.78a.27.27 0 0 1-.35.21.29.29 0 0 1-.19-.12.3.3 0 0 1 0-.23l.19-.84h.07l-.42-.12c.07 0 .07.05.06.09l-.19.78a.5.5 0 0 0 .43.68.6.6 0 0 0 .47 0 .55.55 0 0 0 .18-.43l.19-.78h.07a3.79 3.79 0 0 0-.39-.11.12.12 0 0 0 .05-.04zm1.09.06h-.6a.1.1 0 0 0 0 .05c.06 0 .07 0 .07.07v1.22l-.06.06v.05h.56a.65.65 0 0 0 .73-.73.65.65 0 0 0-.73-.77zm.37.73c0 .36-.12.47-.48.47h-.16v-.95h.14c.36 0 .47.12.47.47zm1.74.11a.09.09 0 0 0-.06 0s0 .06-.08.07l-.61.16-.08-.35.33-.08h.13a2.62 2.62 0 0 0-.07-.33.09.09 0 0 0-.06 0s0 .05-.08.07l-.34.09s-.07-.32-.07-.33.56-.13.56-.13h.13a2.61 2.61 0 0 0-.07-.33.09.09 0 0 0-.06 0s0 .06-.08.07l-.93.24a.09.09 0 0 0 0 .06h.11l.31 1.18-.06.07a.11.11 0 0 0 0 .06l1-.24h.13a3.19 3.19 0 0 0-.07-.3zm-16.8-2.73l-.88-.82-.08-.08a.1.1 0 0 0 0-.05l-.43.21v.05h.07v.08l.19 1.23v.07a.11.11 0 0 0 0 .05 3.27 3.27 0 0 0 .34-.16h-.08v-.24s.42-.21.43-.21a2.5 2.5 0 0 0 .18.18 3.45 3.45 0 0 0 .35-.17.1.1 0 0 0 0-.05.09.09 0 0 1-.09-.09zm-.62-.18a2.49 2.49 0 0 0-.29.13l-.1-.56c.07.08.38.39.39.41z" fill="#094183"/>
  <path d="M13.6 10.63l-.54-.19.28.52-.51.36.57.13v.58l.47-.39.44.39v-.61l.6-.05-.57-.37.28-.52-.59.17-.22-.56zm3.44.89l-.54-.18.28.51-.51.35.59.13-.06.59.46-.39.45.39v-.61l.6-.05-.49-.38.28-.52-.59.16-.25-.52zm-3.85 3l.21.55.59-.16-.28.51.49.39-.6.05v.61l-.44-.4-.47.4v-.59l-.57-.13.5-.35-.27-.51.59.11m4.28-.29l.17.51h.55l-.43.33.16.52-.44-.31-.43.31.16-.52-.43-.32h.51m0 3.6l-.54-.18.27.51-.51.35.58.13v.59l.46-.4.44.41v-.6l.61-.07-.49-.39.28-.51-.58.16-.21-.56zM15.94 8c-.17 0-.44.24-.53.33.35-.12.48-.06.56-.16s.06-.17-.03-.17zm.22.09a.56.56 0 0 0 .28.54v-.17a.64.64 0 0 0-.24-.4zm-.1.42c0 .06-.07.14-.06.21s.22.17.28.35a.45.45 0 0 0-.18-.59zm-.12.33l-.06.16c-.14.22.12.39.12.53a.57.57 0 0 0 .12-.47.36.36 0 0 0-.18-.22zm-.53 0c-.09 0-.32.19-.44.17.06.07.31.06.4.07s.27-.17.35-.3zm.25.38c-.31.08-.11.44-.38.65.18 0 .26 0 .37-.25a.46.46 0 0 0 .04-.36zm-2.42-.69a.39.39 0 0 0 .11.44c-.06-.33.34-.47.16-.74a.46.46 0 0 0-.25.33zm1.32.92c0 .07.31.06.44 0s.3-.1.32-.19c-.5-.09-.31.11-.74.22zm.63-.78c0 .07.31 0 .44-.08s.28-.15.29-.24c-.53.01-.31.17-.7.36zM13.44 8c-.08 0-.3.08-.35.12s-.35.27-.3.33c.36-.25.38.02.65-.45zm.74-.94c.19.05.27.16.39.18s.2 0 .23-.09-.44-.15-.62-.09zm.86.82c0-.19.06-.31 0-.43s-.1-.18-.1-.18 0 .46.1.61zm-.89-.67a.68.68 0 0 0-.51.13c.2 0 .32.2.56.11l.15-.08a.36.36 0 0 0-.2-.16zm.31.39a.67.67 0 0 0 .15.51c0-.2.19-.33.09-.57l-.09-.15a.38.38 0 0 0-.15.21zm.78 2h-.17c-.25 0-.25.29-.43.38a.67.67 0 0 0 .51-.15.38.38 0 0 0 .08-.19zm-1.75-2.1c-.23.08-.24.16-.3.34.25-.23.58 0 .7-.28a.45.45 0 0 0-.4-.01zm.54.45a.39.39 0 0 0 .24.38c-.16-.3.16-.56-.09-.75a.46.46 0 0 0-.16.42zm-.29.05a1.07 1.07 0 0 0 .14.75.67.67 0 0 0 0-.56c-.01-.09-.07-.19-.14-.19z" fill="#fff"/>
</svg>
