<svg xmlns="http://www.w3.org/2000/svg" viewBox="0 0 190 150"><g fill="#7DBECD"><path d="M139.72 121.96c-.03-.07-.06-.15-.09-.22l-15.28-32.75c9.28-8.18 15.14-20.16 15.14-33.48 0-24.62-20.03-44.65-44.65-44.65-24.62 0-44.65 20.03-44.65 44.65 0 13.31 5.86 25.29 15.13 33.48l-15.29 32.79c-.39.83-.07 1.81.73 2.26.36.21.77.27 1.16.2l19.63-2.85 10.47 16.92c.32.51.88.82 1.49.82h.1c.64-.04 1.21-.42 1.48-1.01l9.75-20.91 9.75 20.91c.27.59.84.97 1.48 1.01h.1c.61 0 1.17-.31 1.49-.82l10.46-16.92 19.61 2.85c.31.06.65.03.98-.1.86-.34 1.3-1.3 1.01-2.18zM53.69 55.51c0-22.69 18.46-41.15 41.15-41.15 22.69 0 41.15 18.46 41.15 41.15 0 11.9-5.08 22.64-13.19 30.15-.88.83-1.8 1.61-2.76 2.36-4.39 3.4-9.48 5.95-15.02 7.36-1.39.36-2.81.64-4.25.85-1.94.28-3.92.43-5.93.43s-3.99-.15-5.93-.43c-1.44-.21-2.86-.49-4.25-.85-5.54-1.41-10.63-3.96-15.02-7.37-.96-.74-1.88-1.53-2.77-2.35-8.11-7.52-13.18-18.25-13.18-30.15zm29.6 78.2l-9.37-15.13c-.36-.6-1.04-.92-1.73-.81l-17.62 2.55 13.55-29.05c5.34 3.99 11.6 6.82 18.4 8.11l6.39 13.7-9.62 20.63zm34.2-15.94c-.69-.11-1.37.21-1.74.81l-9.36 15.13-9.62-20.63-1.93-4.14-4.19-8.98c1.38.13 2.78.2 4.19.2 1.41 0 2.81-.07 4.19-.2 1.4-.13 2.77-.32 4.12-.58h.01c6.8-1.28 13.05-4.12 18.39-8.11l13.55 29.05-17.61-2.55z"/><path d="M119.98 48.57c-.21-.63-.75-1.09-1.4-1.19l-15.25-2.32-6.93-13.79c-.29-.59-.9-.96-1.56-.96s-1.27.37-1.56.96l-6.93 13.79-15.25 2.32c-.65.1-1.2.56-1.4 1.19-.21.63-.04 1.32.43 1.79L81.11 61.2 78.6 76.42c-.1.66.17 1.31.7 1.7.54.39 1.24.45 1.83.14l13.71-7.08 13.7 7.08c.26.13.53.2.81.2.36 0 .72-.11 1.03-.34.53-.39.8-1.04.69-1.7l-2.5-15.22 10.97-10.84c.47-.47.64-1.16.44-1.79zm-14.51 10.78c-.41.4-.59.97-.5 1.53l2.08 12.67-11.41-5.9c-.25-.13-.53-.19-.8-.19-.28 0-.55.06-.8.19l-11.42 5.9 2.09-12.67c.09-.56-.1-1.13-.5-1.53l-9.14-9.03 12.7-1.94c.56-.09 1.05-.44 1.3-.94l5.77-11.48 5.76 11.48c.26.5.74.85 1.3.94l12.7 1.94-9.13 9.03z"/></g></svg>