<svg xmlns="http://www.w3.org/2000/svg" viewBox="0 0 190 150"><path fill="#7DBECD" d="M168.12 42.07l-35.17 9.73-36.58 10.12L58.69 51.5v-.01l-34.07-9.42L96.37 27.8"/><path fill="#7DBECD" d="M144.95 75.33c-2.02-3.17-5.19-5.25-8.7-5.78v-.17h-4.94l1.29-13.84-35.29 9.76-.47.12h-.95l-.45-.12-36.41-10.07 1.32 14.16H38.38v.01c-2.62-.04-5.19.8-7.39 2.44-4.59 3.43-5.82 10.19-2.83 15.21h-8.48l.5 2.15c1.36 5.85 4.71 10.02 9.44 11.75 1.57.57 3.22.85 4.9.85.15 0 .3 0 .45-.01v.1h64.66v20.3c0 .23.05.46.14.68.26.63.88 1.08 1.61 1.08.29 0 .57-.07.81-.2.01-.01.03-.01.04-.02.07-.04.13-.08.19-.12l10.71-7.03 10.77 7.06c.28.19.61.31.98.31.73 0 1.35-.45 1.62-1.08.09-.22.13-.44.13-.67v-20.31h3.14l1.56-.07v-.02c3.49-.2 6.82-1.41 9.7-3.57 6.91-5.16 8.66-15.44 3.92-22.9zm-111.86-.68c1.53-1.15 3.31-1.75 5.13-1.75.5 0 1.01.05 1.51.14 2.45.45 4.58 1.93 6.01 4.17.18.29.35.58.51.88l-8.46.12 1.68 2.65c1.27 1.99.82 4.72-1 6.08-1.11.83-2.45 1.15-3.76.91-1.39-.26-2.61-1.1-3.42-2.39-2.25-3.54-1.45-8.39 1.8-10.81zm9.59 20.78c-3.7 2.76-8.13 3.59-11.86 2.23-3.05-1.11-5.31-3.55-6.6-7.11h7.64c.69.35 1.44.6 2.22.74 2.29.42 4.59-.13 6.49-1.55 2.48-1.86 3.56-5.11 2.93-8.11l4.04-.06c1.14 5.12-.64 10.7-4.86 13.86zm80.45 23.52l-10-6.55-10 6.55v-16.9h20v16.9zm15.81-23.52c-2.68 2-5.81 3-9.1 2.89l-1.61.01-.01.06H44.56l.22-.16c6.9-5.16 8.66-15.44 3.91-22.9-.57-.91-1.24-1.72-1.98-2.44h77.93l1.53-.01 8.33.04c2.99.01 5.79 1.61 7.49 4.29 3.79 5.95 2.42 14.12-3.05 18.22z"/></svg>