<svg xmlns="http://www.w3.org/2000/svg" viewBox="0 0 190 150"><path fill="#7DBECD" d="M160.635 70.53V45.14c0-6.368-5.182-11.55-11.55-11.55H40.915c-6.368 0-11.55 5.182-11.55 11.55V70.53c-5.45.923-9.615 5.678-9.615 11.388v15.62c0 3.724 1.78 7.033 4.526 9.147v5.074c0 3.666 2.983 6.65 6.65 6.65h4.34c3.668 0 6.65-2.984 6.65-6.65v-2.673h106.815v2.672c0 3.666 2.983 6.65 6.65 6.65h4.342c3.667 0 6.65-2.984 6.65-6.65v-5.615c2.372-2.117 3.876-5.186 3.876-8.608v-15.62c.002-5.71-4.162-10.465-9.613-11.388zM32.865 45.14c0-4.438 3.61-8.05 8.05-8.05h108.17c4.438 0 8.05 3.61 8.05 8.05v25.226h-9.933v-10.06c0-3.666-2.983-6.65-6.65-6.65h-37.417c-3.667 0-6.65 2.984-6.65 6.65v10.06h-5.633v-10.06c0-3.666-2.983-6.65-6.65-6.65H46.786c-3.667 0-6.65 2.984-6.65 6.65v10.06h-7.27V45.142zm110.837 25.225H99.985v-10.06c0-1.736 1.413-3.15 3.15-3.15h37.416c1.738 0 3.15 1.414 3.15 3.15v10.06zm-56.35 0H43.635v-10.06c0-1.736 1.413-3.15 3.15-3.15h37.417c1.736 0 3.15 1.414 3.15 3.15v10.06zm-48.934 41.39c0 1.738-1.413 3.15-3.15 3.15h-4.342c-1.736 0-3.15-1.412-3.15-3.15v-3.225c1.113.357 2.295.554 3.524.554h7.118v2.672zm124.456 0c0 1.738-1.413 3.15-3.15 3.15h-4.342c-1.736 0-3.15-1.412-3.15-3.15v-2.67h6.47c1.472 0 2.876-.29 4.173-.794v3.465zm3.876-14.22c0 4.437-3.61 8.05-8.05 8.05H31.3c-4.438 0-8.05-3.612-8.05-8.05v-15.62c0-4.438 3.61-8.05 8.05-8.05h127.4c4.438 0 8.05 3.61 8.05 8.05v15.62z"/></svg>