<svg xmlns="http://www.w3.org/2000/svg" viewBox="0 0 190 150"><g fill="#7DBECD"><path d="M102.685 78.25h9.796v3.5h-9.795z"/><path d="M159.63 70.148l-9.795-5.49V44.074l-5.665-1.804-8.586-33.683-5.023 18.71-10.994-10.214-6.512 6.513h-40.4v26.26L56.453 36.934v38.708h-4.817L32.393 103.61v37.4H157.88v-1.75h1.75V70.147zM56.453 137.51h-20.56v-32.812l17.582-25.555h2.978v58.367zm16.203 0H59.952V44.202l12.703 10.13v83.178zM156.13 72.2v65.31h-6.295V68.67l6.296 3.53zm-9.795-25.567v90.877h-21.59V45.847l11.976-2.275 8.47 2.697 1.145.363zm-6.097-5.615l-1.02-.324-2.26-.72-.02-.006-.394.075-6.052 1.007 5.003-18.637 4.743 18.605zm-25.11 96.492H76.156V27.096h38.974V137.51zm2.875-113.914l1.652-1.65 9.88 9.177-2.9 10.803-5.39 1.023v94.56h-2.616V23.597h-.627z"/><path d="M102.685 70.603h9.796v3.5h-9.795zM102.685 62.958h9.796v3.5h-9.795zM102.685 55.31h9.796v3.5h-9.795zM102.685 32.372h9.796v3.5h-9.795zM102.685 40.02h9.796v3.5h-9.795zM102.685 47.666h9.796v3.5h-9.795z"/></g></svg>