<svg xmlns="http://www.w3.org/2000/svg" viewBox="0 0 190 150"><g fill="#7DBECD"><path d="M113.95 55.046c.08-1.074.84-13.605-6.512-27.484l-.635-1.198-1.32.315c-.657.156-10.658 2.66-20.123 11.135.807-1.498 1.07-3.385.7-5.296 2.188.97 4.572.954 6.45-.272 1.64-1.07 2.676-2.938 2.84-5.122.066-.906-.013-1.837-.23-2.756 2.502 1.36 5.33 1.556 7.656.25 2.005-1.124 3.318-3.144 3.696-5.686.354-2.377-.164-4.954-1.456-7.258s-3.22-4.09-5.434-5.026c-2.367-1.004-4.775-.938-6.778.188-3.34 1.873-4.588 6.255-3.285 10.513-.246-.113-.494-.215-.746-.304-2.066-.732-4.19-.537-5.833.534-2.474 1.613-3.38 4.873-2.543 8.113-1.504-.496-3.066-.437-4.416.19-1.652.77-2.86 2.336-3.313 4.3-.398 1.722-.207 3.623.537 5.39-1.746-.635-3.528-.485-4.905.414-2.796 1.826-3.18 6.023-.878 9.556.1.152.202.3.31.446-1.1-.166-2.208-.003-3.185.543-1.383.776-2.314 2.223-2.556 3.97-.22 1.593.135 3.316.998 4.854.862 1.54 2.15 2.74 3.622 3.384 1.618.706 3.338.664 4.722-.11.11-.063.217-.13.32-.198-.16.457-.316.922-.467 1.392-.494 1.378-7.768 23.252 17.648 47.84l2.653 2.566.308-3.68c.006-.068.65-7.08 6.204-14.184 3.646-4.66 15.555-21.11 15.95-37.32zM94.517 9.89c.525-.294 1.12-.44 1.756-.44.62 0 1.278.14 1.945.422 1.5.637 2.83 1.886 3.745 3.516.915 1.632 1.287 3.418 1.047 5.032-.216 1.447-.907 2.565-1.947 3.148-2.266 1.272-5.674-.334-7.45-3.497-1.773-3.165-1.36-6.91.903-8.18zm-9.664 10.622c.466-.305.972-.406 1.438-.406.52 0 .995.127 1.314.24 1.192.422 2.336 1.37 3.138 2.6.803 1.23 1.208 2.657 1.114 3.918-.048.64-.275 1.81-1.26 2.452-1.636 1.068-4.336-.046-5.893-2.432-1.554-2.387-1.487-5.306.15-6.372zm-8.776 10.46c.122-.533.465-1.488 1.382-1.915.31-.144.623-.2.922-.2.583 0 1.108.21 1.43.375.97.495 1.83 1.434 2.36 2.573 1.025 2.202.6 4.664-.93 5.376-1.53.717-3.69-.546-4.715-2.746-.53-1.14-.694-2.403-.45-3.463zm2.106 9.52c1.503.532 3.104.53 4.537-.14.004 0 .006 0 .01-.002-1.355 1.403-2.678 2.94-3.94 4.624.047-.26.077-.528.09-.802.063-1.21-.18-2.478-.696-3.68zM69.62 55.574c-.57.323-1.254.11-1.608-.043-.768-.335-1.485-1.022-1.97-1.888-.485-.863-.697-1.834-.583-2.663.052-.382.227-1.072.8-1.395.194-.108.426-.163.68-.163.918 0 2.124.71 2.9 2.093.988 1.766.678 3.557-.22 4.06zm.734-11.944c-1.295-1.984-1.113-4.077-.14-4.712.267-.175.566-.236.855-.236.38 0 .74.106.98.197.904.343 1.785 1.096 2.418 2.065.632.97.966 2.08.916 3.047-.023.448-.154 1.26-.776 1.665-.62.406-1.418.2-1.837.04-.902-.344-1.784-1.097-2.416-2.066zm2.21 5.64c1.306.263 2.584.093 3.654-.5-.815 1.335-1.59 2.747-2.312 4.236-.1-1.066-.434-2.165-1.016-3.202-.1-.184-.21-.362-.325-.535zm16.395 53.55C78.224 91.56 74.754 81.163 73.77 74.243c-1.134-7.973.69-13.183.718-13.256l.022-.066c5.914-18.474 20.514-26.5 27.683-29.417-1.336 2.167-3.068 5.148-4.9 8.724l-9.052 5.06 1.366 2.443 5.53-3.09c-.927 1.998-1.848 4.13-2.73 6.36l-9.028 5.77 1.508 2.36 5.907-3.776c-2.683 7.747-4.67 16.443-4.638 25.19l2.8-.01c-.03-8.496 1.99-17.056 4.686-24.69L95.37 62.6l2.713-.693-2.715-10.62c.996-2.462 2.038-4.783 3.073-6.94l3.033 5.84 2.485-1.292-3.976-7.657c2.188-4.267 4.208-7.634 5.522-9.712 5.762 12.328 4.965 23.17 4.955 23.283l-.006.105c-.275 12.036-8.036 26.123-15.208 35.293-3.744 4.79-5.485 9.536-6.283 12.612z"/><path d="M120.835 112.21c-.09-.105-9.102-10.564-11.23-13.756-1.608-2.413-2.38-7.276-2.54-8.946l-.384-3.98-2.662 2.98c-12.288 13.754-14.947 37.694-5.37 48.333 5.218 5.797 10.6 7.173 14.533 7.173 3.164 0 5.394-.89 5.85-1.088l2.482-1.04.18-.137c3.75-2.865 5.868-6.467 6.3-10.703.953-9.386-6.83-18.46-7.157-18.835zm3.673 18.492c-.33 3.213-1.89 5.875-4.77 8.13l-1.47.616c-.85-1.24-2.106-3.164-3.48-5.578l2.21-4.708-2.535-1.19-1.333 2.838c-.522-1.018-1.045-2.09-1.555-3.21l1.416-6.628-2.737-.586-.562 2.627c-1.575-4.293-2.76-9-2.93-13.72l-2.8.103c.185 5.08 1.433 10.088 3.092 14.62l-2.58-1.506-1.41 2.418 5.713 3.34c.372.835.752 1.645 1.135 2.43l-2.19-1.113-1.268 2.496 5.718 2.905c1.25 2.21 2.416 4.037 3.31 5.362-2.95.537-8.583.43-14.23-5.847-7.72-8.572-6-28.007 2.982-40.65.472 2.15 1.243 4.724 2.46 6.547 2.247 3.37 11.114 13.663 11.494 14.104.074.082 7.13 8.332 6.322 16.202z"/></g></svg>