<svg xmlns="http://www.w3.org/2000/svg" viewBox="0 0 190 150"><g fill="#7DBECD"><path d="M70.675 75.297c-3.276 2.52-8.592 9.258-5.257 16.714l.185.414 6.597 4.95-.323 5.706L56.79 92.22l-8.82-47.855-.5-.406c-.24-.197-5.99-4.8-15.33-4.632l-2.004.034 10.53 68.782 17.62 16.63v15.977h34.117V88.31L71.668 74.534l-.993.764zm18.228 14.89v47.063H61.786v-13.986l-17.844-16.84-9.728-63.546c5.487.377 9.267 2.58 10.557 3.445l8.832 47.914 21.406 15.41.79-13.946-7.354-5.52c-2.035-5.178 1.632-9.547 3.446-11.298l17.013 11.306zM157.86 39.327c-9.343-.2-15.09 4.435-15.33 4.63l-.5.407-8.82 47.855-15.086 10.86-.323-5.706 6.598-4.95.185-.414c3.335-7.456-1.98-14.193-5.257-16.714l-.993-.764-20.736 13.78v52.437h34.117V124.77l17.62-16.63 10.53-68.782-2.003-.033zm-11.802 67.098l-17.844 16.84v13.985h-27.117V90.188l17.007-11.3c1.8 1.756 5.466 6.155 3.45 11.292l-7.353 5.52.79 13.948 21.407-15.41 8.832-47.92c1.282-.87 5.03-3.07 10.555-3.44l-9.727 63.547zM86.49 35.602l-1.6 2.3 8.71 6.07v15.01l-12.75-8.88-1.6 2.3 14.35 9.99v14.56c-11.57-.72-20.72-10.33-20.72-22.08 0-16.61 15.86-37.62 20.72-43.67v29.36l-7.11-4.96zM117.12 54.872c0 11.75-9.15 21.36-20.72 22.08v-14.56l14.35-9.99-1.6-2.3-12.75 8.88v-15.01l8.71-6.07-1.6-2.3-7.11 4.96v-29.36c4.86 6.05 20.72 27.06 20.72 43.67z"/></g></svg>