<svg xmlns="http://www.w3.org/2000/svg" viewBox="0 0 190 150"><g fill="#7DBECD"><path d="M77.632 62.828c-1.616 0-3.148.373-4.563.777l-.233.084c-.142.062-.35.116-.51.012-.143-.093-.224-.29-.224-.544 0-6.312 5.567-13.403 12.95-16.494l1.805-.755-3.517-6.33-1.477.688c-12.9 6.01-20.007 16.597-20.007 29.813 0 2.873.452 8.385 3.48 13.03 2.91 4.476 6.933 6.65 12.295 6.65 7.68 0 13.468-5.79 13.468-13.467 0-7.927-5.537-13.465-13.466-13.465zm0 23.435c-4.198 0-7.086-1.562-9.363-5.062h-.002c-2.533-3.887-2.91-8.634-2.91-11.117 0-11.443 5.704-20.378 16.52-25.927l.058.103c-7.715 3.957-13.333 11.79-13.333 18.9 0 1.438.68 2.74 1.816 3.478 1.08.704 2.46.815 3.71.305 1.142-.322 2.35-.613 3.502-.613 6.055 0 9.967 3.912 9.967 9.967 0 5.68-4.287 9.966-9.968 9.966zM43.546 62.828c-1.617 0-3.148.373-4.563.777l-.23.084c-.144.06-.35.118-.513.01-.142-.09-.223-.29-.223-.542 0-6.312 5.567-13.403 12.95-16.494l1.805-.755-3.517-6.33-1.478.688c-12.9 6.01-20.007 16.597-20.007 29.813 0 2.873.452 8.385 3.48 13.03 2.91 4.475 6.933 6.65 12.295 6.65 7.678 0 13.467-5.79 13.467-13.467 0-7.927-5.537-13.465-13.466-13.465zm0 23.435c-4.198 0-7.086-1.562-9.362-5.062-2.535-3.887-2.913-8.634-2.913-11.117 0-11.443 5.706-20.378 16.523-25.927l.057.103c-7.715 3.957-13.333 11.79-13.333 18.9 0 1.438.68 2.738 1.815 3.478 1.084.704 2.462.815 3.714.305 1.14-.322 2.348-.613 3.5-.613 6.055 0 9.967 3.912 9.967 9.967 0 5.68-4.285 9.966-9.967 9.966zM158.893 63.305c-2.91-4.477-6.932-6.652-12.295-6.652-7.678 0-13.467 5.79-13.467 13.467 0 7.93 5.54 13.467 13.468 13.467 1.628 0 3.22-.393 4.564-.777l.23-.083c.144-.064.347-.116.51-.013.143.092.224.29.224.544 0 6.312-5.567 13.403-12.95 16.493l-1.804.756 3.517 6.33 1.477-.688c12.9-6.01 20.006-16.597 20.006-29.813 0-2.875-.453-8.39-3.48-13.03zM142.35 102.26l-.056-.104c7.714-3.958 13.332-11.79 13.332-18.9 0-1.438-.68-2.738-1.815-3.478-1.083-.704-2.46-.816-3.712-.306-1.137.322-2.343.613-3.5.613-6.055 0-9.967-3.912-9.967-9.967 0-5.682 4.286-9.967 9.968-9.967 4.2 0 7.087 1.563 9.36 5.063l.003.002c2.534 3.884 2.912 8.632 2.912 11.116 0 11.446-5.704 20.38-16.52 25.93zM112.512 56.652c-7.678 0-13.467 5.79-13.467 13.467 0 7.928 5.538 13.466 13.467 13.466 1.628 0 3.22-.393 4.564-.777l.23-.084c.145-.064.35-.116.51-.013.144.093.225.29.225.544 0 6.21-5.687 13.453-12.95 16.493l-1.804.755 3.517 6.33 1.478-.688c12.902-6.01 20.008-16.597 20.008-29.813 0-2.872-.452-8.385-3.48-13.028-2.912-4.478-6.933-6.654-12.296-6.654zm-4.247 45.607l-.057-.104c7.714-3.958 13.333-11.79 13.333-18.9 0-1.438-.678-2.738-1.814-3.478-1.084-.703-2.46-.815-3.714-.306-1.137.322-2.343.613-3.5.613-6.055 0-9.967-3.912-9.967-9.967 0-5.682 4.285-9.967 9.967-9.967 4.2 0 7.087 1.563 9.36 5.063l.003.002c2.534 3.885 2.912 8.632 2.912 11.116 0 11.446-5.705 20.38-16.522 25.93z"/></g></svg>