<svg xmlns="http://www.w3.org/2000/svg" viewBox="0 0 190 150"><path fill="#7DBECD" d="M169.24 69.98c-1.47-3.978-23.48-28.46-27.876-33.33-7.947-8.797-26.782-29.388-30.002-30.557-3.07-1.144-26.786 6.14-40.638 10.58-3.77 1.207-36.944 11.9-41.05 15.327-.92.77-1.002 1.57-.908 2.105.513 2.897 14.953 14.418 27.28 23.793v15.27c-3.61 6.02-5.776 12.778-6.312 19.814-.016.15-.025.302-.03.406-.02.27-.035.538-.048.8-.04.753-.062 1.514-.062 2.352 0 .766.02 1.525.06 2.245.008.256.022.51.04.686.015.34.037.67.068.93.078 1.01.204 2.07.373 3.15 1.16 7.56 4.25 14.74 8.947 20.83l.383.5c.38.48.765.94 1.16 1.4 8.422 9.77 20.634 15.54 33.507 15.82.338.01.67.02 1.007.02s.66-.005 1-.012c12.87-.28 25.08-6.044 33.5-15.81.4-.46.78-.927 1.16-1.4l.38-.485v-.01c4.7-6.083 7.79-13.27 8.95-20.883l.35-3.02v-.004c.04-.325.06-.653.07-.91.02-.254.032-.51.04-.724.044-.76.065-1.52.065-2.37 0-.76-.02-1.52-.06-2.266-.014-.27-.03-.537-.046-.76-.01-.15-.02-.302-.03-.397-.39-5.11-1.626-10.05-3.638-14.67 30.69-3.896 31.78-5.785 32.24-6.6.206-.36.39-.967.085-1.788zm-38.1-1.34l-.328-.426c-.403-.504-.813-1-1.23-1.484l-.53-.607h-.012c-8.398-9.35-20.34-14.847-32.893-15.114-.676-.02-1.337-.02-2.013 0-12.552.26-24.493 5.76-32.892 15.11l-.543.6c-.4.45-.78.92-1.16 1.39V45.84c0-2.776 12.29-7.955 35.79-7.955s35.79 5.18 35.79 7.955v22.79zm-36 68.345c-4.003-4.243-7.35-10.498-9.59-17.94 6.29-.79 12.895-.79 19.18 0-2.238 7.435-5.58 13.686-9.59 17.94zm10.51-21.348c-6.883-.91-14.132-.91-21.022 0-1.348-5.483-2.09-11.31-2.208-17.413h25.44c-.115 6.07-.856 11.912-2.21 17.413zM82.423 94.71c.126-6.078.878-11.917 2.243-17.407 3.435.452 6.948.695 10.476.695 3.53 0 7.04-.243 10.477-.695 1.36 5.472 2.11 11.296 2.24 17.408H82.42zm12.72-38.618c3.972 4.212 7.3 10.418 9.544 17.804-6.27.782-12.826.782-19.092 0 2.242-7.384 5.57-13.59 9.547-17.804zM82.1 73.366c-6.583-1.167-12.503-3.182-17.324-5.902 7.12-7.426 16.742-11.996 26.96-12.823C87.69 59.3 84.34 65.79 82.1 73.37zm26.08 0c-2.24-7.577-5.59-14.072-9.635-18.726 10.22.827 19.84 5.397 26.96 12.823-4.822 2.72-10.742 4.736-17.324 5.903zM53.2 93.608c.004-.083.008-.167.022-.306.64-8.388 3.745-16.307 8.983-22.898l.193-.248c.006-.007.01-.014.017-.02 5.21 3.058 11.633 5.324 18.778 6.622-1.38 5.657-2.14 11.664-2.27 17.952H53.14c.006-.114.004-.228.01-.342.014-.237.027-.474.048-.76zm.397 9.397c-.155-.992-.27-1.96-.348-2.948-.03-.244-.05-.488-.06-.817-.02-.188-.03-.375-.04-.603l-.02-.413h25.79c.11 6.248.86 12.273 2.23 17.96-7.17 1.307-13.61 3.585-18.82 6.66l-.14-.168c-4.54-5.71-7.51-12.51-8.61-19.67zm11.09 22.514c4.824-2.74 10.763-4.77 17.372-5.95 2.24 7.63 5.61 14.18 9.67 18.86-10.27-.84-19.92-5.44-27.05-12.92zm33.86 12.91c4.073-4.69 7.44-11.23 9.677-18.86 6.61 1.17 12.55 3.2 17.373 5.94-7.126 7.48-16.78 12.08-27.05 12.92zm38.544-39.12c-.01.25-.02.49-.05.73l-.35 2.96c-1.1 7.15-4.07 13.95-8.6 19.66l-.13.16c-5.21-3.07-11.65-5.35-18.82-6.66 1.37-5.67 2.12-11.68 2.24-17.96h25.79c0 .15-.01.3-.02.45 0 .19-.01.37-.03.64zm0-5.66c.02.24.03.47.05.72.01.11.01.22.02.33h-25.79c-.12-6.26-.88-12.28-2.27-17.95 7.15-1.3 13.57-3.57 18.78-6.63l.21.26c5.24 6.59 8.35 14.51 8.99 22.95.01.08.02.163.02.293zm-1.79-18.61c-.31-.59-.64-1.16-.97-1.73h.32V45.84c0-7.52-19.77-11.455-39.3-11.455s-39.3 3.938-39.3 11.458v7.644c-10.29-7.9-20.59-16.33-23.28-19.37 8.89-5.007 71.42-25.092 77.44-24.707 4.78 2.77 49.08 51.71 55.13 60.7-4.13 1.253-17.55 3.364-30.03 4.94z"/></svg>