<svg xmlns="http://www.w3.org/2000/svg" viewBox="0 0 190 150"><g fill="#7DBECD"><path d="M121.61 107.817l-.472-3.47c17.36-2.368 29.66-18.43 27.42-35.8-2.232-17.37-18.214-29.788-35.593-27.693l-.42-3.475c19.284-2.34 37.007 11.45 39.483 30.72 2.49 19.27-11.157 37.08-30.417 39.71z"/><path d="M125.356 125.198l-3.22-1.37 6.203-14.577 11.37 7.18.66-13.33 13.19 2.91-4.02-12.72 13.42-1.72L154.78 81l12.01-6.152-11.35-7.166 9.17-9.807-13.19-2.9 5.236-12.303-13.408 1.72.66-13.32-12.028 6.144-4.02-12.73-9.19 9.82L109 21.76l2.77-2.14 7.166 9.28 10.47-11.2 4.58 14.498 13.73-7.013-.75 15.185 15.316-1.97-5.977 14.04 15.07 3.31-10.48 11.21 12.96 8.18-13.718 7.03 9.336 12.073-15.34 1.968 4.582 14.51-15.06-3.31-.756 15.18-12.97-8.173M114.46 99.7l-7.208 1.837c.37 2.88.742 5.76 1.115 8.63.333 2.58.67 5.16 1 7.73 3.134-1.47 6.03-2.82 8.724-4.08-.34-2.73-.7-5.46-1.05-8.19-.27-2.123-.55-4.246-.82-6.37l-1.76.45zm-6.808 18.15c-.684-5.297-1.37-10.594-2.05-15.896-2.05.525-4.21 1.076-6.484 1.656l-5.54 1.414 1.01 7.805 1.46 11.3 6.6-3.09 5.106-2.39-.102-.8zm-15.39 8.05l1.663-.78c-.5-3.878-1-7.76-1.505-11.64l-1.02-7.9-3.51.896-13.42 3.425c.486 3.72.97 7.45 1.45 11.17.51 3.926 1.016 7.85 1.53 11.77l14.82-6.94zm-17.797 8.33c-1.017-7.85-2.035-15.695-3.055-23.55-3.945 1.006-8.18 2.086-12.72 3.247-4.012 1.03-8.27 2.12-12.794 3.27 1.045 8.02 2.092 16.04 3.138 24.05l.603 4.62c9.387-4.398 17.595-8.24 24.833-11.628zm30.35-51.574c.71 5.46 1.415 10.923 2.116 16.38l6.54-1.482 2.46-.557-.84-6.51-1.04-8.06c-2.84.078-5.91.157-9.232.238zm-14.083.36c.792 6.145 1.587 12.288 2.382 18.433l.09.69 12.07-2.74-2.16-16.71-3.52.09c-2.775.07-5.725.14-8.866.22zM41.61 84.26c1.244 9.574 2.492 19.146 3.744 28.715 6.3-1.43 12.09-2.74 17.42-3.946l8.197-1.86-1.69-13.03-1.37-10.56-9.65.24-16.65.42zm72.163-4.098c-.317-2.47-.635-4.937-.954-7.406l-.93-7.172-2.04-.39c-2.34-.45-4.83-.926-7.46-1.433l.95 7.41c.38 3 .77 5.99 1.15 8.99l9.262.02zm-13.127-16.736c-2.047-.394-4.19-.804-6.44-1.235-2.015-.38-4.116-.78-6.31-1.21l2.473 19.15 1.87.01c3.79.01 7.31.01 10.56.02l-2.16-16.72zM86.67 68.918l-1.082-8.38c-3.003-.574-6.187-1.185-9.572-1.834L67.64 57.1l1.438 11.095 1.54 11.893 8.68.014 8.825.015-1.45-11.203zM64.39 56.476l-7.25-1.39-19.83-3.8 2.06 15.823 1.687 12.93 26.397.04C66.44 72.29 65.43 64.5 64.42 56.7l-.03-.23zm37.684 4.77c2.09.453 4.084.887 5.99 1.302l3.54.77c-.357-2.795-.72-5.593-1.08-8.39l-.797-6.19-3.622-1.44c-1.954-.775-4-1.586-6.144-2.44.71 5.464 1.41 10.925 2.12 16.388zm-3.915-17.1l-5.71-2.267-7.41-2.95c.66 5.08 1.31 10.15 1.97 15.23l.5 3.91 5.78 1.25 7.01 1.522-2.16-16.718zm-14.63.536l-.87-6.69c-5.53-2.19-11.65-4.62-18.47-7.333l1.14 8.82c.61 4.73 1.22 9.45 1.84 14.18l4.51.98 13.52 2.93c-.56-4.3-1.12-8.6-1.67-12.9zm-19.59 8.276c-.69-5.27-1.37-10.543-2.06-15.816l-1.02-7.81L33.01 18.27c.68 5.193 1.355 10.384 2.03 15.575l1.722 13.204 17.29 3.75 9.888 2.15zm33.58-27.013c.7 5.46 1.4 10.92 2.11 16.38l3.08 1.298c2.363.995 4.6 1.937 6.716 2.833-.25-1.976-.5-3.953-.76-5.93l-1.11-8.642-10.04-5.94zm-1.23 3.685l-.62-4.78-13.48-7.976 1.11 8.606 1.36 10.54 4.595 1.94 8.57 3.61-1.54-11.93zM79.75 15.428c-5.67-3.36-11.963-7.085-18.98-11.238.998 7.67 1.993 15.344 2.986 23.01 6.846 2.887 12.99 5.477 18.53 7.81l-2.53-19.582zm8.754 67.67l-17.44.415 2.98 22.96 16.99-3.844-2.53-19.54z"/></g></svg>