<!DOCTYPE svg PUBLIC "-//W3C//DTD SVG 1.1//EN" "http://www.w3.org/Graphics/SVG/1.1/DTD/svg11.dtd">
<svg xmlns="http://www.w3.org/2000/svg">
  <symbol id="chevron-right" viewBox="0 0 10 10">
    <path d="M1.92 1.18L5.72 5l-3.8 3.83L3.08 10l5-5-5-5-1.16 1.18z" />
  </symbol>
  <symbol id="chevron-left" viewBox="0 0 10 10">
    <path d="M8.08 1.18L4.28 5l3.8 3.83L6.92 10l-5-5 5-5 1.16 1.18z"/>
  </symbol>
  <symbol id="chevron-down" viewBox="0 0 10 10">
    <path d="M1.18 1.92L5 5.72l3.83-3.8L10 3.08l-5 5-5-5z"/>
  </symbol>
  <symbol id="download" viewBox="0 0 10 10">
    <path d="M9.1 3.53H6.76V0H3.24v3.53H.9L5 7.65zM.9 8.83V10h8.2V8.82z"/>
  </symbol>
  <symbol id="play" viewBox="0 0 10 10">
    <path d="M1.3.1C.96-.13.67.04.67.45v9.08c0 .4.3.58.65.37l7.76-4.5c.36-.2.36-.55 0-.76L1.3.1z"/>
  </symbol>
  <symbol id="home" viewBox="0 0 10 10">
    <path d="M4 9.25v-3h2v3h2.5v-4H10L5 .75l-5 4.5h1.5v4z"/>
  </symbol>
  <symbol id="search" viewBox="0 0 10 10">
    <path d="M7.148 6.29h-.454l-.157-.158c.557-.65.896-1.493.896-2.416C7.433 1.664 5.77 0 3.716 0 1.664 0 0 1.664 0 3.716 0 5.77 1.664 7.432 3.716 7.432c.923 0 1.766-.338 2.416-.895l.158.157v.453L9.147 10 10 9.148zm-3.432 0c-1.42 0-2.572-1.153-2.572-2.574 0-1.42 1.15-2.573 2.572-2.573S6.29 2.295 6.29 3.716c0 1.42-1.153 2.573-2.574 2.573z"/>
  </symbol>
  <symbol id="close" viewBox="0 0 10 10">
    <path d="M10 1L9 0 5 4 1 0 0 1l4 4-4 4 1 1 4-4 4 4 1-1-4-4z"/>
  </symbol>

  <!-- Focus marks -->
  <symbol id="focus-top-left" viewBox="0 0 112 112">
    <path d="m0 0v112l32-32v-48h48l32-32h-112z"/>
  </symbol>
  <symbol id="focus-bottom-right" viewBox="0 0 112 112">
    <path d="m112 0-32 32v48h-48l-32 32h112v-112z"/>
  </symbol>

  <!-- Social icons -->
  <symbol id="facebook" viewBox="0 0 48 48">
    <path d="M45.35 0H2.65C1.2 0 0 1.2 0 2.65v42.7C0 46.8 1.2 48 2.65 48h23V29.4h-6.27v-7.23h6.26v-5.34c0-6.2 3.78-9.58 9.32-9.58 2.64 0 4.92.2 5.58.3V14l-3.83.02c-3 0-3.57 1.43-3.57 3.52v4.63h7.17l-.94 7.24h-6.24V48h12.23C46.8 48 48 46.8 48 45.35V2.65C48 1.2 46.8 0 45.35 0"/>
  </symbol>
  <symbol id="twitter" viewBox="0 0 48 48">
    <path d="M43.2 14.2v1.32c0 13-10 28.03-28.04 28.03-5.54 0-10.83-1.57-15.16-4.45.84.12 1.56.12 2.4.12 4.58 0 8.9-1.57 12.28-4.2-4.33-.13-7.94-2.9-9.27-6.87.66.12 1.26.12 1.86.12.84 0 1.8-.12 2.64-.36-4.6-.9-7.95-4.9-7.95-9.6v-.1c1.32.72 2.88 1.2 4.45 1.2-2.65-1.8-4.45-4.8-4.45-8.18 0-1.8.48-3.5 1.32-4.93 4.8 6 12.15 9.84 20.33 10.32-.14-.7-.26-1.43-.26-2.27 0-5.42 4.45-9.87 9.86-9.87 2.9 0 5.43 1.2 7.23 3.12 2.3-.5 4.33-1.2 6.26-2.4-.76 2.27-2.3 4.2-4.37 5.4 2.04-.24 3.85-.73 5.65-1.57-1.2 1.93-2.9 3.73-4.8 5.18z"/>
  </symbol>
  <symbol id="linkedin" viewBox="0 0 48 48">
    <path d="M48 39c0 4.92-4.08 9-9 9H9c-4.92 0-9-4.08-9-9V9c0-4.92 4.08-9 9-9h30c4.92 0 9 4.08 9 9zM11.04 8.04c-2.52 0-4.08 1.68-4.08 3.72s1.56 3.72 3.96 3.72c2.52 0 4.08-1.68 4.08-3.72.12-2.04-1.44-3.72-3.96-3.72zm3.6 32.16V18.48h-7.2V40.2zm25.92 0V27.72c0-6.6-3.6-9.72-8.28-9.72-3.84 0-5.64 2.16-6.48 3.6h.12v-3.12h-7.2s.12 2.04 0 21.72h7.2V28.08c0-.6 0-1.32.24-1.8.48-1.32 1.68-2.64 3.72-2.64 2.64 0 3.6 1.92 3.6 4.92V40.2z"/>
  </symbol>

  <!-- Footer icons (popular links) -->
  <symbol id="faculty" viewBox="0 0 48 48">
    <path d="M24 12V2.4H0v43.2h48V12zM9.6 40.8H4.8V36h4.8zm0-9.6H4.8v-4.8h4.8zm0-9.6H4.8v-4.8h4.8zm0-9.6H4.8V7.2h4.8zm9.6 28.8h-4.8V36h4.8zm0-9.6h-4.8v-4.8h4.8zm0-9.6h-4.8v-4.8h4.8zm0-9.6h-4.8V7.2h4.8zm24 28.8H24V36h4.8v-4.8H24v-4.8h4.8v-4.8H24v-4.8h19.2zm-4.8-19.2h-4.8v4.8h4.8zm0 9.6h-4.8V36h4.8z"/>
  </symbol>
  <symbol id="library" viewBox="0 0 48 48">
    <path d="M38.4 0H9.6C6.95 0 4.8 2.15 4.8 4.8v38.4c0 2.65 2.15 4.8 4.8 4.8h28.8c2.65 0 4.8-2.15 4.8-4.8V4.8c0-2.65-2.15-4.8-4.8-4.8zM9.6 4.8h12V24l-6-3.6-6 3.6z"/>
  </symbol>
  <symbol id="phone" viewBox="0 0 48 48">
    <path d="M9.67 20.8c3.84 7.53 10 13.7 17.57 17.55l5.87-5.88c.75-.74 1.8-.95 2.7-.66 3 1 6.2 1.54 9.54 1.54 1.48 0 2.67 1.2 2.67 2.67v9.34C48 46.8 46.8 48 45.34 48 20.3 48 0 27.7 0 2.67 0 1.2 1.2 0 2.67 0H12c1.48 0 2.67 1.2 2.67 2.67 0 3.32.53 6.53 1.52 9.52.27.9.06 1.95-.68 2.7z"/>
  </symbol>
  <symbol id="location" viewBox="0 0 48 48">
    <path d="M24 0C14.72 0 7.2 7.52 7.2 16.8 7.2 29.4 24 48 24 48s16.8-18.6 16.8-31.2C40.8 7.52 33.28 0 24 0zm0 22.8c-3.3 0-6-2.7-6-6s2.7-6 6-6 6 2.7 6 6-2.7 6-6 6z"/>
  </symbol>
  <symbol id="campaign" viewBox="0 0 48 48">
    <path d="M6.86 20.57v16h6.85v-16zm13.7 0v16h6.87v-16zM2.3 48h43.4v-6.86H2.3zm32-27.43v16h6.84v-16zM24 0L2.3 11.43V16h43.4v-4.57z"/>
  </symbol>
  <symbol id="jobs" viewBox="0 0 48 48">
    <path d="M43.2 10.8h-9.6V6c0-2.66-2.14-4.8-4.8-4.8h-9.6c-2.66 0-4.8 2.14-4.8 4.8v4.8H4.8c-2.66 0-4.78 2.14-4.78 4.8L0 42c0 2.66 2.14 4.8 4.8 4.8h38.4c2.66 0 4.8-2.14 4.8-4.8V15.6c0-2.66-2.14-4.8-4.8-4.8zm-14.4 0h-9.6V6h9.6z"/>
  </symbol>
</svg>
