<svg xmlns="http://www.w3.org/2000/svg" viewBox="0 0 497.5 264"><title>The Melbourne Operating Model</title><circle cx="248.75" cy="132" r="90.78" fill="#fff"/><text transform="translate(33.08 35.23)" font-size="13" fill="#007fc1" font-family="SourceSansPro-Bold, Source Sans Pro" font-weight="700"><tspan letter-spacing="-0.01em">A</tspan><tspan x="7.32" y="0">CADEMIC DIVISIONS</tspan></text><text transform="translate(52.89 54.2)" font-size="11" fill="#094183" font-family="SourceSansPro-Regular, Source Sans Pro"><tspan letter-spacing="-0.07em">T</tspan><tspan x="5.17" y="0" letter-spacing="-0.01em">e</tspan><tspan x="10.47" y="0">aching and l</tspan><tspan x="66.15" y="0" letter-spacing="-0.01em">e</tspan><tspan x="71.45" y="0">arning</tspan><tspan x="59.33" y="13.2" letter-spacing="-0.01em">R</tspan><tspan x="65.48" y="13.2">es</tspan><tspan x="75.55" y="13.2" letter-spacing="-0.01em">e</tspan><tspan x="80.85" y="13.2">a</tspan><tspan x="86.39" y="13.2" letter-spacing="-0.01em">r</tspan><tspan x="90.1" y="13.2">ch</tspan><tspan x="43.22" y="26.4">En</tspan><tspan x="55.03" y="26.4" letter-spacing="-0.02em">g</tspan><tspan x="60.4" y="26.4">a</tspan><tspan x="65.94" y="26.4" letter-spacing="-0.01em">g</tspan><tspan x="71.33" y="26.4">ement</tspan></text><text transform="translate(360.99 98.23)" font-size="13" fill="#007fc1" font-family="SourceSansPro-Bold, Source Sans Pro" font-weight="700">CHANCELLE<tspan x="67.7" y="0" letter-spacing="-0.02em">R</tspan><tspan x="75.47" y="0">Y</tspan></text><text transform="translate(360.99 117.2)" font-size="11" fill="#094183" font-family="SourceSansPro-Regular, Source Sans Pro">Uni<tspan x="15.82" y="0" letter-spacing="0em">v</tspan><tspan x="20.91" y="0">e</tspan><tspan x="26.37" y="0" letter-spacing="0em">r</tspan><tspan x="30.14" y="0">sity </tspan><tspan x="48.51" y="0" letter-spacing="-0.02em">s</tspan><tspan x="52.9" y="0">t</tspan><tspan x="56.62" y="0" letter-spacing="-0.02em">r</tspan><tspan x="60.17" y="0" letter-spacing="-0.01em">at</tspan><tspan x="69.12" y="0" letter-spacing="-0.01em">e</tspan><tspan x="74.47" y="0" letter-spacing="0.02em">g</tspan><tspan x="80.18" y="0">y</tspan><tspan x="0" y="13.2" letter-spacing="-0.02em">P</tspan><tspan x="5.96" y="13.2">oli</tspan><tspan x="17.43" y="13.2" letter-spacing="0.01em">c</tspan><tspan x="22.52" y="13.2">y</tspan><tspan x="0" y="26.4">Ca</tspan><tspan x="11.83" y="26.4" letter-spacing="-0.01em">p</tspan><tspan x="17.78" y="26.4">ability</tspan><tspan x="0" y="39.6">Capi</tspan><tspan x="20.64" y="39.6" letter-spacing="-0.02em">t</tspan><tspan x="24.12" y="39.6" letter-spacing="0em">al</tspan><tspan x="0" y="52.8">B</tspan><tspan x="6.47" y="52.8" letter-spacing="-0.02em">r</tspan><tspan x="10.02" y="52.8">and</tspan></text><text transform="translate(27.88 196.23)" font-size="13" fill="#007fc1" font-family="SourceSansPro-Bold, Source Sans Pro" font-weight="700">UNIVE<tspan x="35.55" y="0" letter-spacing="-0.01em">R</tspan><tspan x="43.34" y="0">SI</tspan><tspan x="54.48" y="0" letter-spacing="-0.02em">T</tspan><tspan x="61.47" y="0">Y SE</tspan><tspan x="85.25" y="0" letter-spacing="-0.01em">R</tspan><tspan x="93.05" y="0">VICES</tspan></text><text transform="translate(92.6 215.2)" font-size="11" fill="#094183" font-family="SourceSansPro-Regular, Source Sans Pro"><tspan letter-spacing="-0.03em">E</tspan><tspan x="5.46" y="0">xpert advi</tspan><tspan x="51.15" y="0" letter-spacing="-0.02em">c</tspan><tspan x="55.93" y="0">e</tspan><tspan x="-31.67" y="13.2">Ope</tspan><tspan x="-12.8" y="13.2" letter-spacing="-0.02em">r</tspan><tspan x="-9.25" y="13.2" letter-spacing="-0.01em">a</tspan><tspan x="-3.86" y="13.2">tional support</tspan></text><line x1="165.49" y1="25.87" x2="165.49" y2="81.87" fill="none" stroke="#b3b3b3" stroke-miterlimit="10"/><line x1="349.49" y1="89.37" x2="349.49" y2="145.37" fill="none" stroke="#b3b3b3" stroke-miterlimit="10"/><line x1="165.49" y1="180.37" x2="165.49" y2="236.37" fill="none" stroke="#b3b3b3" stroke-miterlimit="10"/><polyline points="165.49 53.87 242.99 53.87 242.99 95.37" fill="none" stroke="#b3b3b3" stroke-miterlimit="10"/><line x1="165.49" y1="208.37" x2="266.99" y2="208.37" fill="none" stroke="#b3b3b3" stroke-miterlimit="10"/><line x1="349.99" y1="117.87" x2="299.99" y2="117.87" fill="none" stroke="#b3b3b3" stroke-miterlimit="10"/><polygon points="327.76 54.53 304.77 146.63 281.78 238.73 213.51 172.77 211.16 170.49 145.25 106.81 236.5 80.67 327.58 54.58 327.76 54.53" fill="#009ce3"/><polygon points="327.76 54.53 304.77 146.63 296.17 181.06 281.78 238.73 213.51 172.77 211.16 170.49 277.21 104.72 327.58 54.58 327.76 54.53" fill="#007fc1"/><polygon points="296.17 181.06 281.78 238.73 213.51 172.77 211.16 170.49 277.21 104.72 296.17 181.06" fill="#094183"/></svg>