<svg width="40" height="40" viewBox="0 0 40 40" fill="none" xmlns="http://www.w3.org/2000/svg">
<path d="M33.7515 11.25H6.25146C5.56111 11.25 5.00146 11.8096 5.00146 12.5V32.5C5.00146 33.1904 5.56111 33.75 6.25146 33.75H33.7515C34.4418 33.75 35.0015 33.1904 35.0015 32.5V12.5C35.0015 11.8096 34.4418 11.25 33.7515 11.25Z" stroke="#595959" stroke-width="2.47694" stroke-linecap="round" stroke-linejoin="round"/>
<path d="M26.25 11.25V8.75C26.25 8.08696 25.9866 7.45107 25.5178 6.98223C25.0489 6.51339 24.413 6.25 23.75 6.25H16.25C15.587 6.25 14.9511 6.51339 14.4822 6.98223C14.0134 7.45107 13.75 8.08696 13.75 8.75V11.25" stroke="#595959" stroke-width="2.47694" stroke-linecap="round" stroke-linejoin="round"/>
<path d="M35.0012 19.7358C30.4423 22.3734 25.2669 23.7583 20 23.75C14.7339 23.7583 9.55935 22.3739 5.00098 19.7372" stroke="#595959" stroke-width="2.47694" stroke-linecap="round" stroke-linejoin="round"/>
<path d="M18.125 18.75H21.875" stroke="#595959" stroke-width="2.47694" stroke-linecap="round" stroke-linejoin="round"/>
</svg>
