<svg width="40" height="40" viewBox="0 0 40 40" fill="none" xmlns="http://www.w3.org/2000/svg">
<path d="M37.6121 19.0289L33.75 20.96L28.75 11.3847L32.6515 9.43397C32.9446 9.28741 33.2835 9.26182 33.5953 9.36272C33.9071 9.46362 34.1668 9.68292 34.3185 9.97342L38.1611 17.3323C38.238 17.4795 38.2847 17.6405 38.2987 17.8059C38.3126 17.9713 38.2935 18.1378 38.2424 18.2958C38.1913 18.4537 38.1092 18.5999 38.001 18.7258C37.8928 18.8516 37.7606 18.9547 37.6121 19.0289V19.0289Z" stroke="#595959" stroke-width="2.47694" stroke-linecap="round" stroke-linejoin="round"/>
<path d="M6.24989 20.7925L2.38776 18.8615C2.23928 18.7872 2.10708 18.6842 1.99887 18.5583C1.89066 18.4324 1.8086 18.2862 1.75749 18.1283C1.70639 17.9703 1.68725 17.8038 1.7012 17.6384C1.71515 17.473 1.76191 17.312 1.83874 17.1648L5.68139 9.80594C5.83308 9.51545 6.09278 9.29614 6.40458 9.19524C6.71637 9.09434 7.05532 9.11993 7.34844 9.26649L11.2499 11.2172L6.24989 20.7925Z" stroke="#595959" stroke-width="2.47694" stroke-linecap="round" stroke-linejoin="round"/>
<path d="M33.75 20.9599L31.25 23.8846L25.5004 29.6342C25.3478 29.7868 25.1583 29.8973 24.9502 29.9549C24.7422 30.0126 24.5228 30.0153 24.3134 29.963L15.2576 27.699C15.0878 27.6566 14.9287 27.5789 14.7908 27.4711L6.25 20.7925" stroke="#595959" stroke-width="2.47694" stroke-linecap="round" stroke-linejoin="round"/>
<path d="M31.2503 23.8845L24.3753 18.8845L22.3753 20.3845C21.5098 21.0336 20.4572 21.3845 19.3753 21.3845C18.2935 21.3845 17.2408 21.0336 16.3753 20.3845L15.5283 19.7493C15.385 19.6418 15.2665 19.5048 15.1808 19.3476C15.0951 19.1904 15.0442 19.0165 15.0315 18.8379C15.0188 18.6593 15.0446 18.48 15.1072 18.3122C15.1699 18.1444 15.2678 17.992 15.3944 17.8654L21.5092 11.7506C21.6253 11.6346 21.7631 11.5425 21.9147 11.4797C22.0664 11.4169 22.2289 11.3845 22.3931 11.3845H28.7503" stroke="#595959" stroke-width="2.47694" stroke-linecap="round" stroke-linejoin="round"/>
<path d="M11.3398 11.217L19.3586 8.8793C19.645 8.79579 19.9519 8.8175 20.2237 8.9405L25.6251 11.3845" stroke="#595959" stroke-width="2.47694" stroke-linecap="round" stroke-linejoin="round"/>
<path d="M17.5 33.2596L12.7907 32.0823C12.5996 32.0345 12.4225 31.9423 12.2738 31.813L8.75 28.75" stroke="#595959" stroke-width="2.47694" stroke-linecap="round" stroke-linejoin="round"/>
</svg>
