<svg xmlns="http://www.w3.org/2000/svg" fill="currentColor" viewBox="0 0 40 40">
  <path d="M33.8 10h-6.3V8.8c0-1-.4-1.9-1.1-2.6-.7-.8-1.7-1.2-2.6-1.2h-7.5c-1 0-1.9.4-2.6 1.1-.7.7-1.1 1.6-1.1 2.6V10H6.3c-1.4 0-2.5 1.1-2.5 2.5v20c0 1.4 1.1 2.5 2.5 2.5h27.5c1.4 0 2.5-1.1 2.5-2.5v-20c-.1-1.4-1.2-2.5-2.5-2.5zM15 8.8c0-.3.1-.7.4-.9.2-.2.6-.4.9-.4h7.5c.3 0 .7.1.9.4.2.2.3.5.3.9V10H15V8.8zm18.8 3.7V19c-4.2 2.3-8.9 3.5-13.7 3.5H20c-4.8 0-9.5-1.2-13.7-3.5v-6.5h27.5zm-27.6 20V21.8c4.3 2.1 9 3.2 13.7 3.2h.1c4.8 0 9.5-1.1 13.7-3.2v10.7H6.2z"/>
  <path d="M18.1 20h3.8c.7 0 1.2-.6 1.2-1.2s-.6-1.2-1.2-1.2h-3.8c-.7 0-1.2.6-1.2 1.2s.5 1.2 1.2 1.2z"/>
</svg>
