<svg xmlns="http://www.w3.org/2000/svg" fill="currentColor" viewBox="0 0 40 40">
  <path d="M20 37.5c-1.6 0-2.8-1.2-3.9-2.2-.6-.6-1.3-1.2-1.8-1.4-.5-.2-1.4-.2-2.2-.2-1.5 0-3.2 0-4.4-1.2-1.2-1.2-1.2-2.9-1.2-4.4 0-.8 0-1.7-.2-2.2-.2-.6-.8-1.2-1.4-1.8-1-1.1-2.2-2.3-2.2-3.9s1.2-2.8 2.2-3.9c.6-.6 1.2-1.3 1.4-1.8.2-.5.2-1.4.2-2.2 0-1.5 0-3.2 1.2-4.4 1.2-1.2 2.9-1.2 4.4-1.2.8 0 1.7 0 2.2-.2.6-.2 1.2-.8 1.8-1.4 1.1-1 2.3-2.2 3.9-2.2s2.8 1.2 3.9 2.2c.6.6 1.3 1.2 1.8 1.4.5.2 1.4.2 2.2.2 1.5 0 3.2 0 4.4 1.2 1.2 1.2 1.2 2.9 1.2 4.4 0 .8 0 1.7.2 2.2.2.6.8 1.2 1.4 1.8 1 1.1 2.2 2.3 2.2 3.9s-1.2 2.8-2.2 3.9c-.6.6-1.2 1.3-1.4 1.8-.2.5-.2 1.4-.2 2.2 0 1.5 0 3.2-1.2 4.4-1.2 1.2-2.9 1.2-4.4 1.2-.8 0-1.7 0-2.2.2-.6.2-1.2.8-1.8 1.4-1.1 1-2.3 2.2-3.9 2.2zM20 5c-.6 0-1.4.8-2.2 1.5-.8.8-1.6 1.5-2.6 1.9-1 .4-2 .4-3.1.4s-2.2 0-2.7.5c-.5.6-.5 1.7-.5 2.8 0 1.1 0 2.1-.4 3.1S7.3 17 6.6 17.8C5.8 18.6 5 19.4 5 20c0 .6.8 1.4 1.5 2.2.8.8 1.5 1.6 1.9 2.6.4 1 .4 2 .4 3.1s0 2.2.5 2.7 1.6.5 2.7.5 2.1 0 3.1.4 1.8 1.2 2.6 1.9 1.6 1.5 2.2 1.5c.6 0 1.4-.8 2.2-1.5.8-.7 1.6-1.5 2.6-1.9 1-.4 2-.4 3.1-.4s2.2 0 2.7-.5.5-1.6.5-2.7 0-2.1.4-3.1 1.2-1.8 1.9-2.6 1.5-1.6 1.5-2.2c0-.6-.8-1.4-1.5-2.2-.7-.8-1.5-1.6-1.9-2.6-.4-1-.4-2-.4-3.1s0-2.2-.5-2.7-1.6-.5-2.7-.5-2.1 0-3.1-.4-1.8-1.2-2.6-1.9C21.4 5.8 20.6 5 20 5z"/>
  <path d="M17.7 26.2c-.3 0-.6-.1-.9-.3l-4.6-4.4c-.5-.5-.5-1.3 0-1.8s1.3-.5 1.8 0l3.7 3.6 8.3-7.9c.5-.5 1.3-.5 1.8 0s.5 1.3 0 1.8l-9.2 8.7c-.3.2-.6.3-.9.3z"/>
</svg>
