<svg xmlns="http://www.w3.org/2000/svg" width="10" height="10" fill="currentColor" viewBox="0 0 10 10">
  <path d="M8.125 6.33c.06.081.1.162.1.243v.483c0 .101-.04.182-.1.242l-.181.182a.32.32 0 01-.242.1h-.303c-.08 0-.161-.02-.222-.1l-.262-.262c-.161-.121-.322-.182-.504-.141l-.443.12h-.283c-.1 0-.181-.02-.221-.1l-.242-.242a.11.11 0 01-.06-.101v-.202c0-.08.04-.12.12-.16l.787-.323c.04 0 .06-.02.1-.06l.484-.344c.02 0 .06-.02.101-.02h.242c.06 0 .1.04.141.101l.121.262c0 .04.02.04.06.04H7.4c.04 0 .06-.02.08-.06l.081-.282c0-.04.04-.06.081-.06h.121c.04 0 .08.04.08.08v.262c0 .04 0 .08.041.12l.242.223zM5 0c.887 0 1.734.242 2.5.685A4.897 4.897 0 019.315 2.5C9.758 3.266 10 4.113 10 5c0 .907-.242 1.734-.685 2.5A4.95 4.95 0 017.5 9.335 4.939 4.939 0 015 10a4.885 4.885 0 01-2.5-.665A5.005 5.005 0 01.665 7.5 4.885 4.885 0 010 5c0-.887.222-1.734.665-2.5A4.95 4.95 0 012.5.685 4.903 4.903 0 015 0zm0 9.032a3.93 3.93 0 002.016-.544 4.118 4.118 0 001.472-1.472c.363-.605.544-1.29.544-2.016 0-.887-.262-1.673-.786-2.379A4.218 4.218 0 006.25 1.169l-1.028.766c-.04.04-.06.101-.06.162 0 .06.02.1.08.12l.222.122c.12.06.181.161.181.282v1.573c0 .04-.02.08-.06.12-.04.04-.06.04-.101.04h-.06c-.081 0-.122-.02-.142-.08-.02-.04-.04-.06-.08-.06s-.081.02-.081.04l-.343.585c-.08.12-.161.161-.282.161-.1 0-.181.04-.242.1l-.1.102c-.041.04-.061.08-.061.12 0 .04.02.081.06.122l.101.1c.06.081.1.162.1.242v.182c0 .1-.04.181-.1.242a.303.303 0 01-.222.08h-.12c-.142 0-.243-.06-.283-.181l-.464-.907c-.04-.04-.08-.081-.12-.081-.061 0-.101 0-.142.04l-.383.383a.32.32 0 01-.242.101h-1.25c.08.645.323 1.21.706 1.734.363.524.847.927 1.411 1.21.565.302 1.19.443 1.855.443z"/>
</svg>
