<svg xmlns="http://www.w3.org/2000/svg" fill="currentColor" viewBox="0 0 40 40">
  <path d="M39.3 16.8l-3.8-7.4c-.3-.6-.8-1-1.4-1.2-.7-.2-1.4-.2-2 .1l-3.6 1.8h-2.6l-5.2-2.3c-.5-.2-1.2-.3-1.7-.1l-7.6 2.2-3.5-1.7C7.3 7.9 6.6 7.8 6 8c-.6.2-1.1.6-1.4 1.2L.8 16.6c-.2.3-.2.6-.3.9 0 .3 0 .7.1 1 .1.3.3.6.5.9.2.3.5.5.8.6l3.8 1.9 8.4 6.6c.3.2.6.4.9.5l9.1 2.3c.2 0 .4.1.6.1.2 0 .4 0 .7-.1.4-.1.8-.3 1.1-.6l5.8-5.8 2.3-2.7 3.6-1.8c.3-.1.6-.4.8-.6.2-.3.4-.5.5-.9.1-.3.1-.6.1-1-.1-.5-.2-.8-.3-1.1zm-8.2 5.4l-6-4.3c-.4-.3-1-.3-1.5 0l-2 1.5c-1.3 1-3.2 1-4.5 0l-.8-.7 6.1-6.1H28l4.3 8.2-1.2 1.4zM6.8 10.4l2.8 1.4-3.9 7.4-2.8-1.4 3.9-7.4zm17.8 18.4l-9.1-2.3-7.7-6 4.3-8.2 7.6-2.2 1.2.6-.3.3-6.1 6c-.3.3-.4.6-.6.9-.1.3-.2.7-.2 1 0 .4.1.7.3 1 .2.3.4.6.7.8l.8.6c2.1 1.6 5.3 1.6 7.5 0l1.3-1 5 3.6-4.7 4.9zm12.5-10.9l-2.8 1.4-3.9-7.4 2.8-1.4 3.9 7.4zM17.8 32.1l-4.7-1.2-3.5-3.1c-.5-.4-1.3-.4-1.7.1-.4.5-.4 1.3.1 1.7l3.5 3.1c.3.3.6.4 1 .5l4.7 1.2h.3c.6 0 1.1-.4 1.2-.9.2-.6-.2-1.3-.9-1.4z"/>
</svg>
