<svg xmlns="http://www.w3.org/2000/svg" width="10" height="10" fill="currentColor" viewBox="0 0 10 10">
  <path d="M5 9.178l-.728-.657a97.307 97.307 0 01-1.807-1.667c-.376-.36-.798-.805-1.268-1.338C.743 4.984.43 4.507.258 4.085A3.631 3.631 0 010 2.746C0 1.98.258 1.33.775.798 1.307.266 1.964 0 2.746 0 3.654 0 4.406.352 5 1.056 5.595.352 6.346 0 7.254 0c.782 0 1.431.266 1.948.798.532.532.798 1.182.798 1.948 0 .61-.203 1.245-.61 1.902a9.422 9.422 0 01-1.338 1.714c-.47.485-1.244 1.212-2.324 2.183L5 9.178z"/>
</svg>
