<svg xmlns="http://www.w3.org/2000/svg" viewBox="0 0 18 18"><path d="M7.84208 1.75C4.47752 1.75 1.75 4.47752 1.75 7.84208C1.75 11.2066 4.47752 13.9342 7.84208 13.9342C11.2066 13.9342 13.9342 11.2066 13.9342 7.84208C13.9342 4.47752 11.2066 1.75 7.84208 1.75ZM0.25 7.84208C0.25 3.64909 3.64909 0.25 7.84208 0.25C12.0351 0.25 15.4342 3.64909 15.4342 7.84208C15.4342 12.0351 12.0351 15.4342 7.84208 15.4342C3.64909 15.4342 0.25 12.0351 0.25 7.84208Z" /><path d="M13.2335 12.1729L17.7806 16.7201L16.72 17.7807L12.1729 13.2336L13.2335 12.1729Z" /></svg>