<svg xmlns="http://www.w3.org/2000/svg" viewBox="0 0 48 48"><path d="M43.2 14.2v1.32c0 13-10 28.03-28.04 28.03-5.54 0-10.83-1.57-15.16-4.45.84.12 1.56.12 2.4.12 4.58 0 8.9-1.57 12.28-4.2-4.33-.13-7.94-2.9-9.27-6.87.66.12 1.26.12 1.86.12.84 0 1.8-.12 2.64-.36-4.6-.9-7.95-4.9-7.95-9.6v-.1c1.32.72 2.88 1.2 4.45 1.2-2.65-1.8-4.45-4.8-4.45-8.18 0-1.8.48-3.5 1.32-4.93 4.8 6 12.15 9.84 20.33 10.32-.14-.7-.26-1.43-.26-2.27 0-5.42 4.45-9.87 9.86-9.87 2.9 0 5.43 1.2 7.23 3.12 2.3-.5 4.33-1.2 6.26-2.4-.76 2.27-2.3 4.2-4.37 5.4 2.04-.24 3.85-.73 5.65-1.57-1.2 1.93-2.9 3.73-4.8 5.18z"/></svg>
