<svg xmlns="http://www.w3.org/2000/svg" width="10" height="10" fill="currentColor" viewBox="0 0 10 10">
  <path d="M2.16 7.84c.798.783 1.745 1.174 2.84 1.174 1.095 0 2.034-.391 2.817-1.174.798-.798 1.197-1.745 1.197-2.84 0-1.095-.399-2.034-1.197-2.817C7.034 1.385 6.095.986 5 .986c-1.095 0-2.042.399-2.84 1.197C1.377 2.966.986 3.905.986 5c0 1.095.391 2.042 1.174 2.84zM1.455 1.48C2.441.493 3.623 0 5 0c1.377 0 2.55.493 3.521 1.479C9.507 2.449 10 3.623 10 5c0 1.377-.493 2.559-1.479 3.545C7.551 9.515 6.377 10 5 10c-1.377 0-2.559-.485-3.545-1.455C.485 7.559 0 6.377 0 5c0-1.377.485-2.55 1.455-3.521zm2.536 5.775V2.746L6.995 5 3.991 7.254z"/>
</svg>