<svg xmlns="http://www.w3.org/2000/svg" viewBox="0 0 10 10">
  <path d="M6.46484375,3.4765625 C6.34765566,3.4765625 6.22721416,3.49121079 6.10351562,3.52050781 C5.97981709,3.54980483 5.85286523,3.59374971 5.72265625,3.65234375 C5.84635479,3.2486959 5.99609287,2.89713691 6.171875,2.59765625 C6.34765713,2.29817559 6.5527332,2.05078223 6.78710938,1.85546875 C7.02148555,1.66015527 7.28515479,1.51692754 7.578125,1.42578125 C7.87109521,1.33463496 8.19010244,1.29557285 8.53515625,1.30859375 C9.04948174,1.3151042 9.42870972,1.48437334 9.67285156,1.81640625 C9.91699341,2.14843916 10.0260418,2.64322588 10,3.30078125 C9.9869791,3.54166787 9.93489629,3.80859229 9.84375,4.1015625 C9.75260371,4.38802227 9.62239668,4.69726396 9.453125,5.02929688 C9.28385332,5.36132979 9.07226689,5.71939912 8.81835938,6.10351562 C8.5709623,6.48112168 8.28125166,6.8815083 7.94921875,7.3046875 C7.61067539,7.7408876 7.28515781,8.12499834 6.97265625,8.45703125 C6.66015469,8.78906416 6.36067852,9.06738169 6.07421875,9.29199219 C5.78775898,9.51660269 5.51432422,9.68424424 5.25390625,9.79492188 C4.99348828,9.90559951 4.74609492,9.9609375 4.51171875,9.9609375 C4.21874854,9.9609375 3.95019653,9.82584771 3.70605469,9.55566406 C3.46191284,9.28548042 3.23567812,8.88021104 3.02734375,8.33984375 C2.89062432,7.84504961 2.75553452,7.35189048 2.62207031,6.86035156 C2.4886061,6.36881265 2.35677148,5.87239834 2.2265625,5.37109375 C2.07031172,4.83723691 1.91243569,4.43685029 1.75292969,4.16992188 C1.59342368,3.90299346 1.42578213,3.76953125 1.25,3.76953125 C1.2109373,3.76953125 1.12793032,3.80859336 1.00097656,3.88671875 C0.874022803,3.96484414 0.696615723,4.08203047 0.46875,4.23828125 L0,3.6328125 C0.240886621,3.41145723 0.483397217,3.19173286 0.727539062,2.97363281 C0.971680908,2.75553276 1.21744668,2.53906357 1.46484375,2.32421875 C1.78385576,2.04426943 2.06868364,1.82942783 2.31933594,1.6796875 C2.56998823,1.52994717 2.77994707,1.4453126 2.94921875,1.42578125 C3.3268248,1.38671855 3.6360665,1.49902212 3.87695312,1.76269531 C4.11783975,2.02636851 4.28385371,2.44791377 4.375,3.02734375 C4.47265674,3.63932598 4.55566372,4.13574028 4.62402344,4.51660156 C4.69238315,4.89746284 4.74609355,5.16275967 4.78515625,5.3125 C4.88932344,5.82031504 5.00488218,6.20117061 5.13183594,6.45507812 C5.2587897,6.70898564 5.39062432,6.8359375 5.52734375,6.8359375 C5.63151094,6.8359375 5.76171797,6.75455811 5.91796875,6.59179688 C6.07421953,6.42903564 6.25650938,6.18489746 6.46484375,5.859375 C6.66666768,5.52734209 6.82617129,5.23437627 6.94335938,4.98046875 C7.06054746,4.72656123 7.12890615,4.51171963 7.1484375,4.3359375 C7.1744793,4.05598818 7.13053442,3.84277417 7.01660156,3.69628906 C6.9026687,3.54980396 6.71875127,3.4765625 6.46484375,3.4765625 Z"/>
</svg>
