<svg xmlns="http://www.w3.org/2000/svg" viewBox="0 0 10 10">
  <path d="M9.90234375,2.6328125 C9.90234375,2.6328125 9.91861963,2.80045405 9.95117188,3.13574219 C9.98372412,3.47103032 10,3.8372376 10,4.234375 L10,4.99609375 C10,5.40625205 9.98372412,5.77896968 9.95117188,6.11425781 L9.90234375,6.6171875 L9.81445312,6.99804688 C9.75585908,7.25195439 9.65494863,7.45703047 9.51171875,7.61328125 C9.31640527,7.80859473 9.12272231,7.92740864 8.93066406,7.96972656 C8.73860581,8.01204448 8.59375049,8.0364583 8.49609375,8.04296875 C8.15103994,8.06901055 7.77343955,8.0885416 7.36328125,8.1015625 C6.9596334,8.1145834 6.58203301,8.12434893 6.23046875,8.13085938 C5.87890449,8.13736982 5.58593867,8.140625 5.3515625,8.140625 L4.58007812,8.140625 C4.30012881,8.13411455 3.97298364,8.1276042 3.59863281,8.12109375 C3.22428198,8.1145833 2.84830918,8.10481777 2.47070312,8.09179688 C2.09309707,8.07877598 1.80338643,8.0625001 1.6015625,8.04296875 C1.49088486,8.0234374 1.32649849,7.99576841 1.10839844,7.95996094 C0.890298389,7.92415347 0.683594727,7.80859473 0.48828125,7.61328125 C0.338540918,7.45703047 0.236002881,7.25195439 0.180664062,6.99804688 L0.09765625,6.6171875 L0.048828125,6.11425781 C0.0162758789,5.77896968 0,5.40625205 0,4.99609375 L0,4.234375 C0,3.83072715 0.0162758789,3.46289229 0.048828125,3.13085938 L0.09765625,2.6328125 L0.185546875,2.2421875 C0.244140918,1.98176953 0.345051367,1.77994863 0.48828125,1.63671875 C0.683594727,1.42838438 0.877277686,1.30631528 1.06933594,1.27050781 C1.26139419,1.23470034 1.40624951,1.2135417 1.50390625,1.20703125 C1.84896006,1.18098945 2.22656045,1.1614584 2.63671875,1.1484375 C3.0403666,1.1354166 3.41796699,1.12565107 3.76953125,1.11914062 C4.12109551,1.11263018 4.41406133,1.109375 4.6484375,1.109375 L5.3515625,1.109375 C5.58593867,1.109375 5.87890449,1.11263018 6.23046875,1.11914062 C6.58203301,1.12565107 6.9596334,1.1354166 7.36328125,1.1484375 C7.77343955,1.1614584 8.15103994,1.18098945 8.49609375,1.20703125 C8.59375049,1.22005215 8.73860581,1.24446597 8.93066406,1.28027344 C9.12272231,1.31608091 9.31640527,1.43489482 9.51171875,1.63671875 C9.66145908,1.78645908 9.76399712,1.98990757 9.81933594,2.24707031 L9.90234375,2.6328125 Z M6.34765625,4.703125 L6.6796875,4.52734375 L3.984375,3.12109375 L3.984375,5.93359375 L6.34765625,4.703125 Z"/>
</svg>
