<?xml version="1.0" encoding="UTF-8" standalone="no"?>
<!-- Created with Inkscape (http://www.inkscape.org/) -->

<svg
   xmlns:dc="http://purl.org/dc/elements/1.1/"
   xmlns:cc="http://creativecommons.org/ns#"
   xmlns:rdf="http://www.w3.org/1999/02/22-rdf-syntax-ns#"
   xmlns:svg="http://www.w3.org/2000/svg"
   xmlns="http://www.w3.org/2000/svg"
   xmlns:sodipodi="http://sodipodi.sourceforge.net/DTD/sodipodi-0.dtd"
   xmlns:inkscape="http://www.inkscape.org/namespaces/inkscape"
   width="128"
   height="128"
   viewBox="0 0 128 128"
   id="svg2"
   version="1.1"
   inkscape:version="0.91 r13725"
   sodipodi:docname="icon-world.svg">
  <defs
     id="defs4" />
  <sodipodi:namedview
     id="base"
     pagecolor="#ffffff"
     bordercolor="#666666"
     borderopacity="1.0"
     inkscape:pageopacity="0.0"
     inkscape:pageshadow="2"
     inkscape:zoom="0.35"
     inkscape:cx="-236.42857"
     inkscape:cy="520"
     inkscape:document-units="px"
     inkscape:current-layer="svg2"
     showgrid="false"
     units="px"
     inkscape:window-width="2560"
     inkscape:window-height="1292"
     inkscape:window-x="1440"
     inkscape:window-y="1"
     inkscape:window-maximized="1" />
  <metadata
     id="metadata7">
    <rdf:RDF>
      <cc:Work
         rdf:about="">
        <dc:format>image/svg+xml</dc:format>
        <dc:type
           rdf:resource="http://purl.org/dc/dcmitype/StillImage" />
        <dc:title></dc:title>
      </cc:Work>
    </rdf:RDF>
  </metadata>
  <g
     inkscape:label="Layer 1"
     inkscape:groupmode="layer"
     id="layer1"
     transform="translate(0,-924.36216)" />
  <path
     style="fill:#547fc4;fill-opacity:1;fill-rule:evenodd;stroke:none;stroke-width:1px;stroke-linecap:butt;stroke-linejoin:miter;stroke-opacity:0"
     d="M 63.99907,115.95116 C 92.64312,115.95116 115.95,92.64603 115.95,64 115.95,35.35396 92.64498,12.04884 63.99907,12.04884 35.35316,12.04884 12.05,35.35396 12.05,64 c 0,28.64417 23.30502,51.95116 51.94907,51.95116 z m 0,-6.32467 c -0.89077,0 -1.77596,-0.0335 -2.65557,-0.0837 -3.60398,-5.28699 -6.5013,-11.58376 -8.58782,-18.53513 3.46823,-0.36635 6.99969,-0.57277 10.58508,-0.57277 3.44963,0 6.85463,0.17109 10.18711,0.50769 -2.09768,7.00344 -5.01359,13.34298 -8.64919,18.65972 -0.29196,0.007 -0.58393,0.0242 -0.87961,0.0242 z M 51.15639,84.83551 C 49.91415,79.20821 49.16471,73.26291 48.97503,67.1614 l 28.32047,0 c -0.19154,6.08105 -0.93354,12.00403 -2.16834,17.61646 -3.85318,-0.42772 -7.78632,-0.6639 -11.78269,-0.6639 -4.13212,-0.002 -8.19915,0.26035 -12.18808,0.72155 z m 28.70542,6.99414 c 5.75744,0.97817 11.24896,2.46589 16.34438,4.45757 -6.26885,6.25214 -14.33969,10.69113 -23.35895,12.47081 2.88058,-5.07684 5.24419,-10.78224 7.01457,-16.92838 z m 1.53234,-6.14614 C 82.67172,79.75866 83.4286,73.5307 83.61642,67.1614 l 25.8862,0 c -0.6174,8.98954 -3.8383,17.27614 -8.93371,24.09175 C 94.63293,88.74263 88.18556,86.87554 81.39415,85.68351 Z M 83.61642,60.83859 C 83.4286,54.59575 82.6866,48.47007 81.44436,42.62519 88.2804,41.422 94.76869,39.53073 100.73814,36.98487 c 4.99499,6.77285 8.15452,14.96832 8.76448,23.85372 l -25.8862,0 z m -6.32278,0 -28.32047,0 c 0.18968,-5.97319 0.92052,-11.81249 2.12743,-17.35982 4.00567,0.46491 8.0913,0.73084 12.24202,0.73084 4.0131,0 7.96484,-0.23989 11.83661,-0.67133 1.19947,5.52873 1.92659,11.34944 2.11441,17.30031 z m -34.64325,0 -24.15488,0 c 0.59881,-8.70316 3.64676,-16.7387 8.46137,-23.426 5.56776,2.27993 11.57626,4.00197 17.88417,5.14007 -1.2534,5.86534 -2.00284,12.01706 -2.19066,18.28593 z m 0,6.32281 c 0.18968,6.39533 0.95214,12.65119 2.23715,18.59649 -6.25769,1.12509 -12.22156,2.82853 -17.75585,5.07684 C 22.2148,84.09722 19.10176,75.97056 18.49365,67.1614 l 24.15674,0 0,0 z M 31.43118,95.91158 c 4.70489,-1.76295 9.74823,-3.08702 14.998,-4.00569 1.71459,5.93972 3.98893,11.4666 6.74492,16.4114 -8.39442,-2.04933 -15.8832,-6.42508 -21.74292,-12.40571 z m 65.00003,-63.9645 c -5.14191,2.02702 -10.69108,3.5352 -16.50804,4.53197 -1.77595,-6.25958 -4.15815,-12.084 -7.07593,-17.23709 9.12712,1.80014 17.28536,6.33025 23.58397,12.70512 z M 64.88984,18.39582 c 3.67465,5.37997 6.61102,11.84783 8.71427,18.96842 -3.35665,0.34404 -6.78397,0.5207 -10.26149,0.5207 -3.61329,0 -7.17078,-0.20642 -10.66133,-0.58207 2.09396,-7.07224 5.01174,-13.49547 8.65663,-18.84754 0.88333,-0.0502 1.76852,-0.0837 2.66301,-0.0837 0.29568,0.002 0.59136,0.0204 0.88891,0.0242 z m -11.72876,1.28874 c -2.79132,5.01919 -5.0731,10.67066 -6.79513,16.7201 C 41.05482,35.47112 35.95568,34.12101 31.20802,32.32459 37.0975,26.22494 44.66252,21.76365 53.16108,19.68456 Z"
     id="path4136"
     inkscape:connector-curvature="0" />
</svg>
