<?xml version="1.0" encoding="UTF-8"?>
<svg width="132px" height="148px" viewBox="0 0 132 148" version="1.1" xmlns="http://www.w3.org/2000/svg" xmlns:xlink="http://www.w3.org/1999/xlink">
    <!-- Generator: Sketch 46 (44423) - http://www.bohemiancoding.com/sketch -->
    <title>graph</title>
    <desc>Created with Sketch.</desc>
    <defs></defs>
    <g id="Page-1" stroke="none" stroke-width="1" fill="none" fill-rule="evenodd">
        <g id="Research" transform="translate(-1424.000000, -1947.000000)" fill-rule="nonzero" fill="#5D7EBD">
            <g id="graph" transform="translate(1424.000000, 1947.000000)">
                <path d="M131.791125,84.4248549 L131.791125,0 L0.73626327,0 L0.73626327,84.4248549 L64.7911677,84.4248549 L64.7911677,128.109809 L24.7875301,144.307601 C24.0512668,144.553022 23.5604246,145.534706 24.0512668,146.27097 C24.2966879,147.007233 25.2783723,147.498075 26.0146355,147.007233 L66.2636943,130.809441 L106.758174,147.252654 C107.003595,147.252654 107.249016,147.252654 107.249016,147.252654 C107.739858,147.252654 108.476122,147.007233 108.721543,146.27097 C108.966964,145.534706 108.721543,144.553022 107.98528,144.307601 L67.9816419,128.109809 L67.9816419,84.4248549 L131.791125,84.4248549 Z M3.68131635,81.4798018 L3.68131635,2.94505308 L128.846072,2.94505308 L128.846072,81.4798018 L3.68131635,81.4798018 Z M15.7069498,70.6812739 L37.3040057,70.6812739 L37.3040057,37.7948478 L15.7069498,37.7948478 L15.7069498,70.6812739 L15.7069498,70.6812739 Z M18.6520028,40.7399009 L34.3589526,40.7399009 L34.3589526,67.4907997 L18.6520028,67.4907997 L18.6520028,40.7399009 Z M42.2124275,70.6812739 L63.8094834,70.6812739 L63.8094834,29.941373 L42.2124275,29.941373 L42.2124275,70.6812739 Z M45.1574805,32.886426 L60.8644303,32.886426 L60.8644303,67.4907997 L45.1574805,67.4907997 L45.1574805,32.886426 Z M68.7179052,70.6812739 L90.3149611,70.6812739 L90.3149611,37.5494268 L68.7179052,37.5494268 L68.7179052,70.6812739 Z M71.6629582,40.7399009 L87.369908,40.7399009 L87.369908,67.4907997 L71.6629582,67.4907997 L71.6629582,40.7399009 Z M95.2233829,70.6812739 L116.820439,70.6812739 L116.820439,28.2234253 L95.2233829,28.2234253 L95.2233829,70.6812739 Z M98.168436,31.1684784 L113.875386,31.1684784 L113.875386,67.4907997 L98.168436,67.4907997 L98.168436,31.1684784 Z M102.586016,11.5347912 L119.27465,9.08058033 L107.98528,21.5970559 L106.758174,20.3699505 L111.666596,14.9706865 L80.0072753,31.6593206 L53.5017976,18.8974239 L27.7325832,34.3589526 L26.2600566,31.6593206 L53.5017976,15.4615287 L80.0072753,28.2234253 L110.194069,12.2710545 L102.831437,13.2527389 L102.586016,11.5347912 Z" id="Shape"></path>
            </g>
        </g>
    </g>
</svg>