<?xml version="1.0" encoding="UTF-8"?>
<svg width="101px" height="155px" viewBox="0 0 101 155" version="1.1" xmlns="http://www.w3.org/2000/svg" xmlns:xlink="http://www.w3.org/1999/xlink">
    <!-- Generator: Sketch 46 (44423) - http://www.bohemiancoding.com/sketch -->
    <title>clipboard</title>
    <desc>Created with Sketch.</desc>
    <defs></defs>
    <g id="Page-1" stroke="none" stroke-width="1" fill="none" fill-rule="evenodd">
        <g id="Learning-and-Teaching" transform="translate(-1539.000000, -1042.000000)" fill-rule="nonzero" fill="#59B17F">
            <g id="clipboard" transform="translate(1539.000000, 1042.000000)">
                <path d="M2.16313473,154.36916 L98.5209545,154.36916 C99.7008461,154.36916 100.487441,153.582566 100.487441,152.402674 L100.487441,23.9911306 C100.487441,22.811239 99.7008461,22.0246445 98.5209545,22.0246445 L78.6594447,22.0246445 L78.6594447,20.254807 C78.6594447,15.1419431 74.1365266,11.2089709 68.4337169,11.2089709 L63.1242044,11.2089709 C62.1409613,4.91621529 56.6348002,0 50.145396,0 C43.6559918,0 38.1498307,4.91621529 37.1665876,11.2089709 L31.8570751,11.2089709 C26.1542654,11.2089709 21.6313473,15.3385917 21.6313473,20.254807 L21.6313473,22.0246445 L1.96648612,22.0246445 C0.786594447,22.0246445 0,22.811239 0,23.9911306 L0,152.402674 C0.196648612,153.582566 1.17989167,154.36916 2.16313473,154.36916 Z M25.9576167,20.254807 C25.9576167,17.3050778 28.7106973,15.1419431 32.2503723,15.1419431 L39.3297223,15.1419431 C40.509614,15.1419431 41.2962085,14.3553487 41.2962085,13.175457 C41.2962085,8.06259308 45.4258293,3.93297223 50.5386932,3.93297223 C55.6515571,3.93297223 59.781178,8.06259308 59.781178,13.175457 C59.781178,14.3553487 60.5677724,15.1419431 61.7476641,15.1419431 L68.8270141,15.1419431 C72.3666891,15.1419431 75.1197697,17.5017264 75.1197697,20.254807 L75.1197697,29.6939404 L25.9576167,29.6939404 L25.9576167,20.254807 Z M4.12962085,25.9576167 L21.8279959,25.9576167 L21.8279959,31.6604265 C21.8279959,32.8403182 22.6145903,33.6269126 23.794482,33.6269126 L76.6929586,33.6269126 C77.8728502,33.6269126 78.6594447,32.8403182 78.6594447,31.6604265 L78.6594447,25.9576167 L96.3578197,25.9576167 L96.3578197,150.436188 L3.93297223,150.436188 L3.93297223,25.9576167 L4.12962085,25.9576167 Z" id="Shape"></path>
                <path d="M73.0639116,92.5598848 C74.8337491,90.7900473 76.6035866,89.0202098 77.9801269,87.2503723 C83.0929908,80.9576167 84.6661797,75.8447528 82.503045,72.3050778 C80.3399102,68.7654028 75.0303977,67.9788084 66.9678046,69.9452945 C65.3946157,70.3385917 64.0180755,70.7318889 62.4448866,71.3218348 C60.2817518,61.8827014 56.3487796,55 51.0392671,55 C45.7297546,55 41.7967823,61.8827014 39.436999,71.5184834 C29.9978656,68.175457 21.9352726,67.5855111 18.9855434,72.3050778 C15.8391656,77.2212931 20.5587323,85.0872376 28.4246767,92.5598848 C20.5587323,100.032532 15.8391656,107.898477 18.9855434,112.814692 C20.5587323,115.174475 23.3118128,116.157718 26.8514879,116.157718 C30.3911629,116.157718 34.7174323,115.174475 39.2403504,113.601286 C41.4034851,123.237068 45.3364574,130.513067 50.8426185,130.513067 C56.3487796,130.513067 60.0851032,123.433717 62.4448866,113.797935 C64.0180755,114.387881 65.5912644,114.781178 66.9678046,115.174475 C69.7208852,115.96107 72.2773172,116.157718 74.4404519,116.157718 C78.1767755,116.157718 80.9298561,114.977827 82.3063963,112.814692 C85.4527741,107.898477 80.9298561,100.032532 73.0639116,92.5598848 Z M67.9510477,73.6816181 C74.8337491,71.9117806 78.1767755,72.8950237 79.1600186,74.2715639 C80.1432616,75.6481042 79.3566672,79.1877792 75.0303977,84.6939404 C73.6538574,86.4637779 72.0806685,88.0369668 70.310831,89.8068043 C68.5409935,88.2336154 66.5745074,86.6604265 64.6080213,85.2838862 C64.4113727,81.9408598 64.0180755,78.4011848 63.4281296,75.254807 C64.8046699,74.6648612 66.3778588,74.0749153 67.9510477,73.6816181 Z M55.9554824,100.819127 C54.1856449,101.999018 52.4158074,102.982261 50.6459699,103.965504 C48.8761324,102.982261 47.1062949,101.999018 45.3364574,100.819127 C43.7632685,99.8358835 42.3867282,98.8526404 41.2068365,98.066046 C41.2068365,96.2962085 41.0101879,94.5263709 41.0101879,92.7565334 C41.0101879,90.7900473 41.0101879,88.8235612 41.2068365,87.0537237 C42.5833768,86.0704806 43.9599171,85.0872376 45.3364574,84.3006431 C47.1062949,83.1207515 48.8761324,82.1375084 50.6459699,81.1542654 C52.4158074,82.1375084 54.1856449,83.1207515 55.9554824,84.3006431 C57.5286713,85.2838862 59.1018602,86.4637779 60.6750491,87.4470209 C60.6750491,89.2168584 60.8716977,90.9866959 60.8716977,92.7565334 C60.8716977,94.5263709 60.8716977,96.0995598 60.6750491,97.6727487 C59.1018602,98.6559918 57.5286713,99.8358835 55.9554824,100.819127 Z M60.2817518,102.588964 C60.0851032,104.55545 59.8884546,106.521936 59.4951574,108.291774 C57.9219685,107.701828 56.3487796,106.915233 54.7755907,106.128639 C55.9554824,105.538693 56.9387254,104.752099 58.1186171,104.162153 C58.9052116,103.572207 59.4951574,103.17891 60.2817518,102.588964 Z M46.516349,106.128639 C44.9431601,106.915233 43.5666198,107.505179 42.1900796,108.095125 C41.993431,106.521936 41.6001337,104.752099 41.6001337,102.982261 C42.1900796,103.375558 42.7800254,103.768856 43.3699712,104.162153 C44.3532143,104.752099 45.533106,105.538693 46.516349,106.128639 Z M37.0772157,94.9196682 C36.0939726,94.1330737 34.9140809,93.3464793 34.1274865,92.3632362 C35.1107295,91.5766418 36.0939726,90.7900473 37.0772157,89.8068043 C37.0772157,90.7900473 37.0772157,91.5766418 37.0772157,92.5598848 C37.0772157,93.3464793 37.0772157,94.1330737 37.0772157,94.9196682 Z M41.6001337,81.9408598 C41.7967823,80.1710223 41.993431,78.4011848 42.3867282,76.8279959 C43.7632685,77.4179417 45.1398087,78.0078876 46.7129976,78.794482 C45.533106,79.3844278 44.5498629,80.1710223 43.3699712,80.7609681 C42.7800254,81.1542654 42.1900796,81.5475626 41.6001337,81.9408598 Z M54.7755907,78.794482 C56.3487796,78.0078876 57.9219685,77.2212931 59.4951574,76.6313473 C59.8884546,78.4011848 60.0851032,80.1710223 60.2817518,82.1375084 C59.4951574,81.7442112 58.9052116,81.1542654 58.1186171,80.7609681 C56.9387254,80.1710223 55.9554824,79.5810765 54.7755907,78.794482 Z M64.6080213,90.3967501 C65.5912644,91.1833445 66.3778588,91.7732904 67.1644532,92.5598848 C66.3778588,93.3464793 65.3946157,93.9364251 64.6080213,94.7230196 C64.6080213,94.1330737 64.6080213,93.5431279 64.6080213,92.7565334 C64.6080213,91.969939 64.6080213,91.1833445 64.6080213,90.3967501 Z M50.8426185,58.9329722 C53.3990504,58.9329722 56.5454282,63.8491875 58.7085629,72.6983751 C56.152131,73.6816181 53.3990504,75.0581584 50.6459699,76.4346987 C48.0895379,75.0581584 45.533106,73.8782667 42.976674,72.8950237 C45.1398087,64.0458361 48.2861865,58.9329722 50.8426185,58.9329722 Z M22.3285698,74.2715639 C22.9185156,73.2883209 24.4917045,72.6983751 26.8514879,72.6983751 C29.801217,72.6983751 33.7341893,73.4849695 38.6504046,75.254807 C38.0604587,78.2045362 37.6671615,81.5475626 37.4705129,84.6939404 C35.3073782,86.2671293 33.1442434,88.0369668 31.3744059,89.6101557 C23.7051101,82.7274542 20.7553809,76.6313473 22.3285698,74.2715639 Z M22.3285698,110.651557 C20.7553809,108.291774 23.9017587,102.195667 31.3744059,95.1163168 C33.340892,96.8861543 35.3073782,98.4593432 37.4705129,100.032532 C37.6671615,103.375558 38.0604587,106.521936 38.6504046,109.668314 C29.801217,112.814692 23.7051101,112.814692 22.3285698,110.651557 Z M50.8426185,126.383446 C48.2861865,126.383446 44.9431601,121.270582 42.976674,112.028097 C45.533106,111.044854 48.0895379,109.668314 50.6459699,108.488422 C53.3990504,109.864963 56.152131,111.241503 58.7085629,112.224746 C56.7420768,121.270582 53.3990504,126.383446 50.8426185,126.383446 Z M79.1600186,110.651557 C78.1767755,112.028097 74.8337491,113.01134 67.9510477,111.241503 C66.3778588,110.848206 64.8046699,110.454908 63.231481,109.864963 C63.8214268,106.718585 64.2147241,103.375558 64.4113727,99.8358835 C66.3778588,98.2626946 68.3443449,96.8861543 70.1141824,95.3129654 C77.5868297,102.195667 80.5365588,108.291774 79.1600186,110.651557 Z" id="Shape"></path>
            </g>
        </g>
    </g>
</svg>