<svg xmlns:rdf="http://www.w3.org/1999/02/22-rdf-syntax-ns#" xmlns="http://www.w3.org/2000/svg" version="1.1" xmlns:cc="http://creativecommons.org/ns#" xmlns:dc="http://purl.org/dc/elements/1.1/" viewBox="0 0 128 128">
 <path style="fill:#547fc4;fill-rule:evenodd" d="m64 116c28.6 0 52-23.4 52-52s-23.4-52-52-52-52 23.4-52 52 23.3 52 51.9 52zm0-6.32c-.891 0-1.78-.0335-2.66-.0837-3.6-5.29-6.5-11.6-8.59-18.5 3.47-.366 7-.573 10.6-.573 3.45 0 6.85.171 10.2.508-2.1 7-5.01 13.3-8.65 18.7-.292.007-.584.0242-.880.0242zm-12.8-25.2c-1.3-5.6-2-11.5-2.2-17.6h28.3c-.192 6.08-.934 12-2.17 17.6-3.85-.428-7.79-.664-11.8-.664-4.13-.002-8.2.260-12.2.722zm28.7 6.99c5.76.978 11.2 2.47 16.3 4.46-6.27 6.25-14.3 10.7-23.4 12.5 2.88-5.08 5.24-10.8 7.01-16.9zm1.53-6.15c1.3-5.8 2-12.1 2.2-18.4h25.9c-.617 8.99-3.84 17.3-8.93 24.1-6.4-2.6-12.8-4.4-19.6-5.6zm2.2-24.8c-.2-6.2-.9-12.3-2.2-18.2 6.9-1.2 13.4-3.1 19.6-5.6 4.99 6.77 8.15 15 8.76 23.9h-25.9zm-6.32 0h-28.3c.190-5.97.921-11.8 2.13-17.4 4.01.465 8.09.731 12.2.731 4.01 0 7.96-.240 11.8-.671 1.2 5.53 1.93 11.3 2.11 17.3zm-34.6 0h-24.2c.599-8.7 3.65-16.7 8.46-23.4 5.57 2.28 11.6 4 17.9 5.14-1.25 5.87-2 12-2.19 18.3zm0 6.32c.190 6.4.952 12.7 2.24 18.6-6.26 1.13-12.2 2.83-17.8 5.08-4.9-6.7-8-14.8-8.6-23.6h24.2zm-11.3 28.8c4.7-1.76 9.75-3.09 15-4.01 1.71 5.94 3.99 11.5 6.74 16.4-8.39-2.05-15.9-6.43-21.7-12.4zm65-64c-5.14 2.03-10.7 3.54-16.5 4.53-1.78-6.26-4.16-12.1-7.08-17.2 9.13 1.8 17.3 6.33 23.6 12.7zm-31.5-13.5c3.67 5.38 6.61 11.8 8.71 19-3.36.344-6.78.521-10.3.521-3.61 0-7.17-.206-10.7-.582 2.09-7.07 5.01-13.5 8.66-18.8.883-.0502 1.77-.0837 2.66-.0837.296.002.591.0204.889.0242zm-11.7 1.29c-2.79 5.02-5.07 10.7-6.8 16.7-5.3-.9-10.4-2.3-15.2-4.1 5.9-6.1 13.5-10.5 22-12.6z"/>
</svg>
