<?xml version="1.0" encoding="UTF-8"?>
<svg width="179px" height="96px" viewBox="0 0 179 96" version="1.1" xmlns="http://www.w3.org/2000/svg" xmlns:xlink="http://www.w3.org/1999/xlink">
    <!-- Generator: Sketch 46 (44423) - http://www.bohemiancoding.com/sketch -->
    <title>noun_125155_cc</title>
    <desc>Created with Sketch.</desc>
    <defs></defs>
    <g id="Page-1" stroke="none" stroke-width="1" fill="none" fill-rule="evenodd">
        <g id="Learning-and-Teaching" transform="translate(-1111.000000, -1072.000000)" fill-rule="nonzero" fill="#ECAE65">
            <g id="noun_125155_cc" transform="translate(1111.000000, 1072.000000)">
                <path d="M89.312286,0.00456464041 C86.7792903,0.00456464041 84.2512564,0.30227226 82.0184493,1.04654131 L4.01905287,27.6913733 C2.9770762,28.1379347 2.08395334,28.5820153 1.33968429,29.1799114 C0.59541524,29.7778075 0,30.6684495 0,31.85928 C0,33.0476295 0.59541524,33.9432333 1.33968429,34.5386485 C2.08395334,35.2829176 2.9770762,35.5806252 4.01905287,36.0271866 L40.1905287,48.3820529 L40.1905287,76.2177153 C40.1905287,77.1108382 40.7859439,77.8551072 41.530213,78.1528149 L88.5680169,95.1221492 C89.0145783,95.2734839 89.4586589,95.2734839 89.9077012,95.1221492 L137.094359,78.1528149 C137.987482,77.8551072 138.434043,77.1108382 138.434043,76.2177153 L138.434043,48.3820529 L160.464407,40.7880277 L160.464407,55.6734087 C158.380454,56.5665315 156.891916,58.6504849 156.891916,61.0321458 C156.891916,64.009222 159.424911,66.5422177 162.401988,66.5422177 C165.527918,66.5422177 168.055951,64.009222 168.055951,61.0321458 C168.055951,58.6504849 166.567413,56.5665315 164.485941,55.6734087 L164.485941,39.4483434 L174.608,36.0247057 C175.649977,35.5781443 176.543099,35.2804367 177.287369,34.5361676 C178.031638,33.9407524 178.627053,33.0451487 178.627053,31.8567991 C178.627053,30.6659686 178.031638,29.7728457 177.287369,29.1774305 C176.543099,28.5820153 175.649977,28.1354538 174.608,27.6888924 L96.6086035,1.04406041 C94.3733155,0.30227226 91.8428007,0.00456464041 89.312286,0.00456464041 L89.312286,0.00456464041 Z M89.312286,4.02361751 C91.5426122,4.02361751 93.7779003,4.31884423 95.2639575,4.76788656 L173.263354,31.4127185 C173.709915,31.5615723 173.709915,31.7079453 174.007623,31.85928 C173.709915,32.0081338 173.709915,32.1569876 173.263354,32.3058414 L136.347609,44.9608961 C136.049901,44.9608961 135.60334,44.9608961 135.454486,45.2561229 L95.2639575,58.9531543 C92.2868813,59.9951309 86.3327289,59.9951309 83.3556527,58.9531543 L43.1676049,45.1047882 L43.1676049,45.1047882 C42.8698973,45.1047882 42.7185626,44.9559343 42.5721896,44.9559343 L5.35873716,32.3008796 C4.90969483,32.1520258 4.90969483,32.003172 4.61446811,31.8543182 C4.90969483,31.7029835 4.90969483,31.5566106 5.35873716,31.5566106 L83.3556527,4.76292476 C84.8466717,4.31884423 87.0794788,4.02361751 89.312286,4.02361751 L89.312286,4.02361751 Z M134.561363,49.7217372 L134.561363,74.878031 L89.312286,91.2519501 L44.2095815,74.8755501 L44.2095815,49.7192563 L82.0159684,62.6695377 C86.3327289,64.1605567 92.2868813,64.1605567 96.6036417,62.6695377 L134.561363,49.7217372 L134.561363,49.7217372 Z M162.399507,59.248381 C163.441483,59.248381 164.036899,59.99265 164.036899,61.0346267 C164.036899,61.9277496 163.441483,62.6720186 162.399507,62.6720186 C161.506384,62.6720186 160.762115,61.9277496 160.762115,61.0346267 C160.762115,59.9901691 161.506384,59.248381 162.399507,59.248381 L162.399507,59.248381 Z" id="Shape"></path>
            </g>
        </g>
    </g>
</svg>