<?xml version="1.0" encoding="UTF-8"?>
<svg width="126px" height="156px" viewBox="0 0 126 156" version="1.1" xmlns="http://www.w3.org/2000/svg" xmlns:xlink="http://www.w3.org/1999/xlink">
    <!-- Generator: Sketch 46 (44423) - http://www.bohemiancoding.com/sketch -->
    <title>globe</title>
    <desc>Created with Sketch.</desc>
    <defs></defs>
    <g id="Page-1" stroke="none" stroke-width="1" fill="none" fill-rule="evenodd">
        <g id="Learning-and-Teaching" transform="translate(-747.000000, -1041.000000)" fill-rule="nonzero" fill="#3FA7C2">
            <g id="globe" transform="translate(746.212386, 1040.800781)">
                <g id="Group">
                    <path d="M120.182829,39.388057 C110.883212,21.2487422 92.4349969,9.98074392 72.0372772,9.98074392 C63.4206736,9.98074392 55.136996,11.9868801 47.4179195,15.9442367 C20.8936763,29.5410004 10.3773356,62.1849027 23.9740992,88.710862 C33.2719997,106.848461 51.7202149,118.118175 72.1179345,118.118175 C80.7345381,118.118175 89.0199319,116.110323 96.7407245,112.152966 C123.263252,98.5544864 133.779592,65.9123002 120.182829,39.388057 Z M120.925906,66.0049703 L104.921435,74.2097068 C103.38723,67.4602342 100.838802,60.2834494 97.2761517,53.0586135 L116.3456,43.2819175 C119.78469,50.6080041 121.243387,58.3871445 120.925906,66.0049703 Z M98.6593389,105.10489 C97.765244,105.68322 96.8385429,106.225512 95.898113,106.750642 L86.1334298,87.7000714 L102.318092,79.4026649 C104.068527,90.41153 102.867248,99.8261262 98.6593389,105.10489 Z M89.1263309,109.638861 C82.296201,109.638861 74.3231398,105.152941 66.7928358,97.6140565 L83.0787485,89.2651665 L92.8417156,108.310589 C91.8566668,108.77394 90.8647534,109.204684 89.8608273,109.59939 C89.6171392,109.613119 89.3751673,109.638861 89.1263309,109.638861 Z M45.5010212,22.9905969 C46.3951161,22.4139829 47.3201011,21.8716912 48.260531,21.3465606 L58.0269303,40.3971315 L41.8422682,48.6945381 C40.0901168,37.6839568 41.2913959,28.2693606 45.5010212,22.9905969 Z M55.0323131,18.4583424 C61.862443,18.4583424 69.8355042,22.9442619 77.3640921,30.4831465 L61.0798954,38.8320364 L51.3169283,19.7866139 C52.3019772,19.3232633 53.2938906,18.892519 54.2978167,18.497813 C54.5432209,18.4840841 54.7817606,18.4583424 55.0323131,18.4583424 Z M79.8284304,33.0761933 C84.4790968,38.2159518 88.8740623,44.5106545 92.6460788,51.577608 L72.8249731,61.7404294 L62.6449905,41.8850015 L79.8284304,33.0761933 Z M59.5920254,43.4500966 L69.772008,63.3038084 L49.9354573,73.4717782 C46.4036967,66.2761162 43.918765,59.0083775 42.4961073,52.2125698 L59.5920254,43.4500966 Z M71.335387,66.3584896 L81.5136534,86.2122014 L64.3302135,95.0210097 C59.6795472,89.8829672 55.2845817,83.5882646 51.5125652,76.5213111 L71.335387,66.3584896 Z M84.5666185,84.6471063 L74.3883521,64.7933945 L94.2214705,54.6254247 C97.7549473,61.8193706 100.239879,69.0871094 101.662537,75.882917 L84.5666185,84.6471063 Z M114.766776,40.237533 L95.6973277,50.0125129 C91.9562013,43.000475 87.5852614,36.7263657 82.9225823,31.4905048 L99.0334515,23.2308527 C105.455147,27.4748003 110.874632,33.2495207 114.766776,40.237533 Z M95.5789159,21.1440593 L80.4874178,28.882013 C74.3900682,22.6353615 67.935767,18.2043576 61.8418496,16.2222471 C65.1693928,15.508344 68.572445,15.1290831 72.0372772,15.1290831 C80.4633923,15.1290831 88.5085302,17.2742244 95.5789159,21.1440593 Z M39.0982035,27.941583 C37.1710085,34.0011782 36.9770877,41.7700219 38.5215895,50.3952061 L23.5553676,58.0679475 C24.9797415,46.6575119 30.3992264,35.8923348 39.0982035,27.941583 Z M23.2327384,62.0905165 L39.2372086,53.88578 C40.7714137,60.6369687 43.3198416,67.8137535 46.8824922,75.0385894 L27.8130441,84.8135693 C24.3739536,77.4909149 22.9135414,69.7100584 23.2327384,62.0905165 Z M29.3918681,87.8613861 L48.4596001,78.0864062 C52.2024427,85.0984441 56.5716665,91.3708372 61.2360617,96.6084142 L45.1251925,104.86635 C38.7017814,100.622403 33.2840125,94.8476823 29.3918681,87.8613861 Z M48.5780119,106.953144 L63.66951,99.2151899 C69.7668597,105.461841 76.2228769,109.892845 82.3167943,111.874956 C78.9892512,112.588859 75.5844829,112.969836 72.1196506,112.969836 C63.6935356,112.969836 55.6466815,110.824695 48.5780119,106.953144 Z M105.060441,100.15562 C106.985919,94.0960247 107.181556,86.327181 105.635338,77.7019968 L120.60156,70.0292554 C119.177186,81.439691 113.759418,92.2031521 105.060441,100.15562 Z" id="Shape"></path>
                    <path d="M101.770652,116.324837 C101.458319,115.717333 100.91946,115.257415 100.269053,115.048049 C99.6203622,114.842115 98.9150397,114.895315 98.3041035,115.207647 C90.0942187,119.417273 81.2854104,121.552117 72.124799,121.552117 C50.4296979,121.552117 30.8093775,109.5685 20.919418,90.274241 C13.9125284,76.6105489 12.6494692,61.035107 17.3584834,46.4189722 C22.0674976,31.8028374 32.1874162,19.894729 45.8511083,12.8895555 C47.1158836,12.2408648 47.6169886,10.6894986 46.9682979,9.4247233 L43.053844,1.78973637 C42.7415115,1.18223235 42.202652,0.722314053 41.5522451,0.512948262 C40.9035544,0.303582471 40.1965158,0.361930314 39.5890118,0.672546775 C4.6438019,18.5870508 -9.21209482,61.5945598 8.70240924,96.5397697 C19.0900415,116.801916 38.5009961,130.819128 60.9340258,134.386927 L60.9340258,141.968714 L50.6373476,141.968714 C49.9543346,141.968714 49.3004955,142.23986 48.8165516,142.722088 L44.526269,147.01237 C44.0440413,147.494598 43.7728954,148.150153 43.7728954,148.833166 L43.7728954,153.123449 C43.7728954,154.544391 44.9244072,155.697619 46.347065,155.697619 L89.249891,155.697619 C90.6708326,155.697619 91.8240606,154.544391 91.8240606,153.123449 L91.8240606,148.833166 C91.8240606,148.151869 91.5529147,147.496314 91.070687,147.01237 L86.7804044,142.722088 C86.2981766,142.23986 85.6426214,141.968714 84.9596084,141.968714 L74.6629302,141.968714 L74.6629302,135.217525 C85.1295036,134.855426 95.1773455,132.240069 104.567916,127.424656 C105.832691,126.775965 106.33208,125.224599 105.68339,123.959824 L101.770652,116.324837 Z M72.0904767,130.113805 L72.0904767,130.113805 C71.4074637,130.113805 70.7519086,130.384951 70.2679647,130.865463 C69.7857369,131.349407 69.514591,132.003246 69.514591,132.687975 L69.514591,144.542884 C69.514591,145.963825 70.667819,147.117053 72.0887606,147.117053 L83.8939022,147.117053 L86.6757215,149.898873 L86.6757215,150.549279 L48.9212345,150.549279 L48.9212345,149.898873 L51.7030538,147.117053 L63.5081954,147.117053 C64.9308531,147.117053 66.082365,145.963825 66.082365,144.542884 L66.082365,132.154264 C66.082365,130.856882 65.1179094,129.762002 63.8325408,129.600687 C42.1391558,126.851474 23.2430351,113.615094 13.2844311,94.190411 C-2.94313387,62.538422 8.92722005,23.7576994 39.6696691,6.47300886 L41.2364803,9.52940619 C27.4955632,17.284521 17.3258773,29.7349212 12.4589807,44.8401482 C7.3278027,60.7656772 8.70584147,77.734603 16.3391123,92.6235997 C27.1145861,113.642552 48.4904902,126.69874 72.1265151,126.69874 C81.2562365,126.69874 90.0616125,124.754384 98.3401418,120.917155 L99.906953,123.973553 C91.1599249,128.051037 81.8294182,130.113805 72.0904767,130.113805 Z" id="Shape"></path>
                </g>
            </g>
        </g>
    </g>
</svg>