<?xml version="1.0" encoding="utf-8"?>
<!-- Generator: Adobe Illustrator 21.1.0, SVG Export Plug-In . SVG Version: 6.00 Build 0)  -->
<svg version="1.1" id="Layer_1" xmlns="http://www.w3.org/2000/svg" xmlns:xlink="http://www.w3.org/1999/xlink" x="0px" y="0px"
	 viewBox="0 0 190 150" enable-background="new 0 0 190 150" xml:space="preserve">
<g>
	<g>
		<circle fill="none" stroke="#605C5A" stroke-width="1.65" stroke-miterlimit="10" cx="94.991" cy="54.743" r="16.27"/>
		<path fill="none" stroke="#605C5A" stroke-width="1.65" stroke-miterlimit="10" d="M131.018,92.547v-1.28
			c-3.249-18.518-19.755-17.906-19.755-17.906s-9.589-0.047-16.34-0.047c-6.665,0-16.152,0.047-16.152,0.047
			s-16.506-0.612-19.755,17.906v1.906c0,0.009-0.003,0.018-0.003,0.027v32.714c0,3.832,3.106,6.938,6.938,6.938
			c3.832,0,6.938-3.106,6.938-6.938V97.37h2.301v35.393h39.634V97.37h2.382v28.543c0,3.832,3.106,6.938,6.938,6.938
			s6.938-3.106,6.938-6.938V93.201C131.081,92.978,131.038,92.765,131.018,92.547z"/>
	</g>
	<g>
		<path fill="none" stroke="#605C5A" stroke-width="1.65" stroke-miterlimit="10" d="M112.616,44.62c0,0,13.967-1.738,14.47-2.625
			c0.503-0.888-23.008-23.613-24.929-24.31c-1.818-0.672-35.404,10.155-35.18,11.424c0.225,1.269,11.968,10.181,11.968,10.181"/>
		<path fill="none" stroke="#605C5A" stroke-width="1.65" stroke-miterlimit="10" d="M95.402,30.135
			c-9.089,0-16.457,1.905-16.457,4.254v12.04c0,0,4.205-2.408,16.457-2.408s16.457,2.408,16.457,2.408v-12.04
			C111.859,32.039,104.491,30.135,95.402,30.135z"/>
	</g>
</g>
</svg>
