<?xml version="1.0" encoding="utf-8"?>
<!-- Generator: Adobe Illustrator 21.1.0, SVG Export Plug-In . SVG Version: 6.00 Build 0)  -->
<svg version="1.1" id="Layer_1" xmlns="http://www.w3.org/2000/svg" xmlns:xlink="http://www.w3.org/1999/xlink" x="0px" y="0px"
	 viewBox="0 0 190 150" enable-background="new 0 0 190 150" xml:space="preserve">
<polygon fill-rule="evenodd" clip-rule="evenodd" fill="none" stroke="#605C5A" stroke-width="1.65" stroke-miterlimit="10" points="
	138.647,67.068 121.686,59.069 121.686,63.005 98.911,61.327 98.911,59.104 107.033,59.703 107.033,45.969 98.911,46.568 
	98.911,44.345 121.686,42.666 121.686,46.603 138.647,38.604 121.686,30.605 121.686,34.542 98.911,32.863 98.911,30.641 
	107.033,31.239 107.033,17.505 98.911,18.104 98.911,12.239 91.76,12.239 91.76,18.631 68.985,20.31 68.985,16.373 52.024,24.372 
	68.985,32.371 68.985,28.434 91.76,30.113 91.76,32.336 83.638,31.737 83.638,45.471 91.76,44.872 91.76,47.095 68.985,48.774 
	68.985,44.837 52.024,52.836 68.985,60.835 68.985,56.898 91.76,58.577 91.76,60.799 83.638,60.201 83.638,73.935 91.76,73.336 
	91.76,75.559 68.985,77.237 68.985,73.301 52.024,81.3 68.985,89.299 68.985,85.362 91.76,87.041 91.76,89.263 83.638,88.664 
	83.638,102.398 91.76,101.8 91.76,137.023 98.911,137.023 98.911,101.273 121.686,99.594 121.686,103.53 138.647,95.531 
	121.686,87.532 121.686,91.469 98.911,89.79 98.911,87.568 107.033,88.167 107.033,74.433 98.911,75.031 98.911,72.809 
	121.686,71.13 121.686,75.067 "/>
</svg>
