<?xml version="1.0" encoding="utf-8"?>
<!-- Generator: Adobe Illustrator 21.1.0, SVG Export Plug-In . SVG Version: 6.00 Build 0)  -->
<svg version="1.1" id="Layer_1" xmlns="http://www.w3.org/2000/svg" xmlns:xlink="http://www.w3.org/1999/xlink" x="0px" y="0px"
	 viewBox="0 0 190 150" enable-background="new 0 0 190 150" xml:space="preserve">
<g>
	<g>
		<path fill="none" stroke="#605C5A" stroke-width="1.65" stroke-miterlimit="10" d="M48.51,80.645
			c2.023,21.704,19.297,38.977,41,41.001v-9.331c-4.305-0.507-8.377-1.77-12.083-3.651l9.937-2.663l4.247-15.852L80.006,78.545
			l-15.852,4.247l-2.662,9.937c-1.88-3.706-3.144-7.779-3.651-12.084H48.51z"/>
		
			<ellipse transform="matrix(0.7071 -0.7071 0.7071 0.7071 -69.0897 71.0564)" fill="none" stroke="#605C5A" stroke-width="1.65" stroke-miterlimit="10" cx="51.228" cy="118.927" rx="12.411" ry="12.412"/>
	</g>
	<g>
		
			<ellipse transform="matrix(0.7071 -0.7071 0.7071 0.7071 -43.7 132.3561)" fill="none" stroke="#605C5A" stroke-width="1.65" stroke-miterlimit="10" cx="137.915" cy="118.928" rx="12.412" ry="12.411"/>
		<path fill="none" stroke="#605C5A" stroke-width="1.65" stroke-miterlimit="10" d="M101.78,106.001l8.897,2.384
			c-3.848,2.035-8.107,3.398-12.621,3.929l0,9.331c21.703-2.023,38.977-19.296,40.999-41h-9.331
			c-0.41,3.488-1.319,6.825-2.648,9.936l-2.087-7.79l-15.852-4.246L97.533,90.149L101.78,106.001z"/>
	</g>
	<g>
		<path fill="none" stroke="#605C5A" stroke-width="1.65" stroke-miterlimit="10" d="M98.055,31.101v9.331
			c3.713,0.437,7.253,1.438,10.535,2.91l-6.811,1.825l-4.247,15.852l11.604,11.605l15.852-4.248l1.825-6.811
			c1.473,3.282,2.473,6.822,2.91,10.536l9.331,0C137.033,50.397,119.759,33.123,98.055,31.101z"/>
		
			<ellipse transform="matrix(0.7071 -0.7071 0.7071 0.7071 17.5972 106.9646)" fill="none" stroke="#605C5A" stroke-width="1.65" stroke-miterlimit="10" cx="137.915" cy="32.241" rx="12.411" ry="12.412"/>
	</g>
	<g>
		<path fill="none" stroke="#605C5A" stroke-width="1.65" stroke-miterlimit="10" d="M57.841,72.1
			c0.531-4.514,1.895-8.773,3.929-12.621l2.384,8.897l15.852,4.248l11.604-11.605l-4.247-15.852l-7.789-2.087
			c3.113-1.33,6.448-2.238,9.936-2.648l0-9.331c-21.703,2.023-38.977,19.296-41,41L57.841,72.1z"/>
		
			<ellipse transform="matrix(0.7071 -0.7071 0.7071 0.7071 -7.7931 45.6668)" fill="none" stroke="#605C5A" stroke-width="1.65" stroke-miterlimit="10" cx="51.229" cy="32.241" rx="12.412" ry="12.411"/>
	</g>
</g>
</svg>
