<?xml version="1.0" encoding="utf-8"?>
<!-- Generator: Adobe Illustrator 21.1.0, SVG Export Plug-In . SVG Version: 6.00 Build 0)  -->
<svg version="1.1" id="Layer_1" xmlns="http://www.w3.org/2000/svg" xmlns:xlink="http://www.w3.org/1999/xlink" x="0px" y="0px"
	 viewBox="0 0 190 150" enable-background="new 0 0 190 150" xml:space="preserve">
<g>
	<path fill="none" stroke="#605C5A" stroke-width="1.65" stroke-miterlimit="10" d="M82.254,101.315
		c-9.124-13.946-5.214-32.648,8.732-41.772s32.648-5.214,41.772,8.732s5.214,32.648-8.732,41.772S91.378,115.262,82.254,101.315z
		 M127.711,115.681c17.057-11.159,21.839-34.033,10.68-51.09s-34.033-21.839-51.09-10.68c-15.626,10.222-20.94,30.274-13.145,46.681
		l-44.042,28.812l5.517,8.433l44.042-28.812C91.584,122.74,112.085,125.903,127.711,115.681z"/>
	<g>
		<polyline fill="none" stroke="#605C5A" stroke-width="1.65" stroke-miterlimit="10" points="80.047,45.473 67.319,36.963 
			108.733,12.163 159.885,38.54 146.684,49.187 		"/>
		<path fill="none" stroke="#605C5A" stroke-width="1.65" stroke-miterlimit="10" d="M137.292,62.332l7.453,1.117l1.939-14.262
			c0.612-4.503-13.649-10.159-31.853-12.633c-18.204-2.474-33.458-0.83-34.07,3.672l-1.939,14.262l6.409,0.985"/>
	</g>
</g>
</svg>
