<?xml version="1.0" encoding="utf-8"?>
<!-- Generator: Adobe Illustrator 21.1.0, SVG Export Plug-In . SVG Version: 6.00 Build 0)  -->
<svg version="1.1" id="Layer_1" xmlns="http://www.w3.org/2000/svg" xmlns:xlink="http://www.w3.org/1999/xlink" x="0px" y="0px"
	 viewBox="0 0 190 150" enable-background="new 0 0 190 150" xml:space="preserve">
<g>
	<g>
		<polygon fill="none" stroke="#605C5A" stroke-width="1.65" stroke-miterlimit="10" points="95.183,12.282 91.727,22.918 
			80.542,22.918 89.591,29.494 86.134,40.131 95.183,33.557 104.232,40.131 100.777,29.494 109.826,22.918 98.64,22.918 		"/>
		<polygon fill="none" stroke="#605C5A" stroke-width="1.65" stroke-miterlimit="10" points="70.388,21.333 67.795,29.309 
			59.406,29.309 66.192,34.24 63.6,42.22 70.388,37.289 77.173,42.22 74.581,34.24 81.371,29.309 72.98,29.309 		"/>
		<polygon fill="none" stroke="#605C5A" stroke-width="1.65" stroke-miterlimit="10" points="50.945,39.822 49.217,45.14 
			43.623,45.14 48.148,48.426 46.42,53.746 50.945,50.459 55.468,53.746 53.74,48.426 58.265,45.14 52.673,45.14 		"/>
		<polygon fill="none" stroke="#605C5A" stroke-width="1.65" stroke-miterlimit="10" points="119.978,21.335 117.387,29.311 
			108.999,29.311 115.784,34.243 113.194,42.221 119.978,37.29 126.764,42.221 124.174,34.243 130.96,29.311 122.573,29.311 		"/>
		<polygon fill="none" stroke="#605C5A" stroke-width="1.65" stroke-miterlimit="10" points="141.15,45.143 139.421,39.824 
			137.693,45.143 132.099,45.143 136.624,48.431 134.898,53.749 139.421,50.462 143.945,53.749 142.218,48.431 146.742,45.143 		"/>
	</g>
	<path fill="none" stroke="#605C5A" stroke-width="1.65" stroke-miterlimit="10" d="M120.224,131.35h-3.977
		c9.383-6.233,15.582-16.897,15.582-29.011c0-16.285-11.185-29.907-26.274-33.714l6.55-12.42c0.742-1.53,0.17-3.332-1.269-4.034
		l-15.667-7.581c-0.697-0.34-1.496-0.363-2.244-0.091c-0.737,0.283-1.36,0.861-1.711,1.598L72.661,81.249
		c-1.479,3.06-0.34,6.675,2.538,8.069l-2.527,5.213l10.448,5.054l2.528-5.201l0,0c2.89,1.394,6.425,0.045,7.91-3.026l6.301-11.944
		c11.446,1.428,20.365,11.095,20.365,22.926c0,12.794-10.414,23.209-23.209,23.209c-5.836,0-13.35-2.221-17.407-5.802v-2.901
		c0-1.609,1.298-2.901,2.901-2.901h14.506v-5.802H74.634H62.723H50.597v5.802h13.644h0.861c1.603,0,2.901,1.292,2.901,2.901v2.901
		v11.604c-6.408,0-11.604-0.612-11.604,5.802h75.429C131.828,130.738,126.632,131.35,120.224,131.35z M99.916,52.034
		c-0.782,0.363-1.451,1.054-1.864,1.904L84.697,79.13l-5.088-2.47c0.102-0.385,0.124-0.771,0.306-1.145l12.749-23.617
		c0.351-0.736,0.974-1.315,1.711-1.598c0.748-0.272,1.547-0.249,2.244,0.091l3.365,1.632C99.962,52.034,99.939,52.023,99.916,52.034
		z"/>
</g>
</svg>
