<?xml version="1.0" encoding="utf-8"?>
<!-- Generator: Adobe Illustrator 21.1.0, SVG Export Plug-In . SVG Version: 6.00 Build 0)  -->
<svg version="1.1" id="Layer_1" xmlns="http://www.w3.org/2000/svg" xmlns:xlink="http://www.w3.org/1999/xlink" x="0px" y="0px"
	 viewBox="0 0 190 150" enable-background="new 0 0 190 150" xml:space="preserve">
<g>
	<g>
		<g>
			<circle fill="none" stroke="#605C5A" stroke-width="1.65" stroke-miterlimit="10" cx="89.708" cy="69.925" r="50.341"/>
			<path fill="none" stroke="#605C5A" stroke-width="1.65" stroke-miterlimit="10" d="M130.093,63.266
				c-1.647-10.069-6.925-18.907-14.496-25.089c-4.125-3.371-8.926-5.941-14.164-7.503c-3.714-1.109-7.646-1.724-11.725-1.724
				c-5.004,0-9.778,0.941-14.213,2.582c-4.06,1.505-7.817,3.614-11.154,6.251c-7.902,6.246-13.417,15.332-15.054,25.729
				c-0.331,2.093-0.552,4.223-0.552,6.412c0,2.187,0.221,4.316,0.552,6.411c1.636,10.398,7.152,19.486,15.054,25.729
				c3.337,2.636,7.093,4.747,11.152,6.251c4.434,1.643,9.207,2.586,14.215,2.586c4.08,0,8.01-0.615,11.729-1.724
				c5.237-1.566,10.034-4.136,14.16-7.504c7.571-6.18,12.849-15.023,14.496-25.091c0.359-2.173,0.588-4.384,0.588-6.657
				C130.681,67.65,130.452,65.439,130.093,63.266z M103.508,77.891l-14.435,8.391l-12.642-7.961V61.527l12.642-7.962l14.435,8.391
				V77.891z M76.431,78.321V32.209 M89.073,86.282L49.577,61.891 M103.508,77.891L63.113,101.05 M103.508,61.957v46.687
				 M89.073,53.566l41.02,23.016 M76.431,61.527l38.075-24.202"/>
		</g>
	</g>
	<g>
		<g>
			<g>
				<path fill="none" stroke="#605C5A" stroke-width="1.65" stroke-miterlimit="10" d="M68.408,126.214
					c10.797,4.193,22.918,5.315,35.059,2.545c30.816-7.031,50.645-36.597,46.07-67.348"/>
				<g>
					<polygon fill="#605C5A" points="155.692,70.468 154.223,71.223 149.28,61.612 146.889,72.152 145.281,71.787 148.674,56.826 
											"/>
				</g>
			</g>
		</g>
	</g>
</g>
</svg>
