<?xml version="1.0" encoding="utf-8"?>
<!-- Generator: Adobe Illustrator 21.1.0, SVG Export Plug-In . SVG Version: 6.00 Build 0)  -->
<svg version="1.1" id="Layer_1" xmlns="http://www.w3.org/2000/svg" xmlns:xlink="http://www.w3.org/1999/xlink" x="0px" y="0px"
	 viewBox="0 0 190 150" enable-background="new 0 0 190 150" xml:space="preserve">
<g id="XMLID_720_">
	<g id="XMLID_920_">
		<path id="XMLID_922_" fill="none" stroke="#605C5A" stroke-width="1.65" stroke-miterlimit="10" d="M50.804,45.296l17.387,15.835
			l22.417-24.478c0,0-2.158-14.884-19.114-13.894L50.804,45.296z"/>
		<path id="XMLID_921_" fill="none" stroke="#605C5A" stroke-width="1.65" stroke-miterlimit="10" d="M77.743,20.422
			c0,0,13.535,1.25,16.791,14.92c1.949,8.181,4.313,16.561,4.313,16.561l-11.733,4.259l30.384,4.603l16.726-15.629L122.97,46.14
			c0,0-3.335-13.161-4.411-15.658C115.004,22.23,95.919,17.302,77.743,20.422z"/>
	</g>
	<g id="XMLID_762_">
		<path id="XMLID_913_" fill="none" stroke="#605C5A" stroke-width="1.65" stroke-miterlimit="10" d="M141.402,55.777l-21.668,9.14
			l12.816,30.618c0,0,14.416,4.284,20.63-11.523L141.402,55.777z"/>
		<path id="XMLID_763_" fill="none" stroke="#605C5A" stroke-width="1.65" stroke-miterlimit="10" d="M152.681,90.665
			c0,0-6.812,11.762-20.588,8.983c-8.244-1.663-16.843-3.032-16.843-3.032l1.057-12.438L99.382,109.83l7.171,21.739l3.809-10.637
			c0,0,13.346,2.494,16.064,2.565C135.409,123.731,147.888,108.474,152.681,90.665z"/>
	</g>
	<g id="XMLID_734_">
		<path id="XMLID_745_" fill="none" stroke="#605C5A" stroke-width="1.65" stroke-miterlimit="10" d="M86.913,130.656l4.331-23.114
			l-32.607-6.203c0,0-11.527,9.659-1.772,23.564L86.913,130.656z"/>
		<path id="XMLID_735_" fill="none" stroke="#605C5A" stroke-width="1.65" stroke-miterlimit="10" d="M51.592,120.815
			c0,0-6.052-12.171,3.866-22.127c5.936-5.958,11.821-12.375,11.821-12.375l9.791,7.743L65.014,65.789l-22.088-6.013l6.771,9.046
			c0,0-9.443,9.755-11.002,11.983C33.543,88.167,39.383,106.992,51.592,120.815z"/>
	</g>
</g>
</svg>
