<?xml version="1.0" encoding="utf-8"?>
<!-- Generator: Adobe Illustrator 21.1.0, SVG Export Plug-In . SVG Version: 6.00 Build 0)  -->
<svg version="1.1" id="Layer_1" xmlns="http://www.w3.org/2000/svg" xmlns:xlink="http://www.w3.org/1999/xlink" x="0px" y="0px"
	 viewBox="0 0 190 150" enable-background="new 0 0 190 150" xml:space="preserve">
<g>
	<g>
		<path fill="#605C5A" d="M27.802,72.353c-0.8,0-1.554-0.154-2.261-0.46c-0.707-0.307-1.32-0.721-1.841-1.241
			c-0.52-0.521-0.934-1.133-1.241-1.841C22.153,68.105,22,67.351,22,66.551V50.743c0-0.8,0.153-1.553,0.46-2.261
			c0.306-0.706,0.721-1.321,1.241-1.841c0.52-0.521,1.133-0.934,1.841-1.241c0.706-0.306,1.461-0.46,2.261-0.46
			c0.801,0,1.547,0.154,2.241,0.46c0.693,0.307,1.3,0.72,1.821,1.241c0.52,0.52,0.933,1.134,1.241,1.841
			c0.306,0.707,0.46,1.461,0.46,2.261v15.807c0,0.8-0.154,1.554-0.46,2.261c-0.307,0.707-0.721,1.32-1.241,1.841
			c-0.52,0.52-1.127,0.934-1.821,1.241C29.349,72.198,28.603,72.353,27.802,72.353z M27.802,46.262c-0.614,0-1.194,0.12-1.74,0.361
			c-0.547,0.241-1.02,0.562-1.421,0.962s-0.721,0.869-0.96,1.403c-0.24,0.534-0.361,1.109-0.361,1.722v15.833
			c0,0.615,0.12,1.196,0.361,1.744c0.24,0.547,0.56,1.022,0.96,1.422c0.4,0.402,0.873,0.722,1.421,0.962
			c0.547,0.24,1.126,0.361,1.74,0.361c0.614,0,1.187-0.12,1.721-0.361c0.533-0.24,1-0.561,1.4-0.962
			c0.4-0.401,0.721-0.875,0.96-1.422c0.24-0.548,0.361-1.128,0.361-1.744V50.71c0-0.614-0.12-1.188-0.361-1.722
			c-0.24-0.534-0.56-1.002-0.96-1.403s-0.867-0.721-1.4-0.962C28.989,46.382,28.416,46.262,27.802,46.262z"/>
		<path fill="#605C5A" d="M44.61,52.224v1.321h-1.561c-0.56,0-1.081,0.106-1.561,0.319c-0.48,0.214-0.908,0.5-1.281,0.861
			c-0.374,0.361-0.667,0.787-0.88,1.281c-0.214,0.493-0.32,1.02-0.32,1.581v4.682v9.884h-1.321v-9.884v-4.682v-3.842h-1.32v-1.32
			h1.32h1.321v1.32v0.32c1.014-1.173,2.321-1.787,3.922-1.841H44.61z"/>
		<path fill="#605C5A" d="M56.335,52.424v5.162v9.403v9.084c0,0.746-0.14,1.447-0.421,2.1c-0.28,0.654-0.66,1.221-1.14,1.701
			c-0.48,0.481-1.047,0.861-1.701,1.141c-0.654,0.279-1.354,0.42-2.101,0.42c-0.747,0-1.447-0.141-2.101-0.42
			c-0.654-0.28-1.22-0.66-1.7-1.141c-0.48-0.48-0.86-1.047-1.141-1.701c-0.28-0.654-0.42-1.354-0.42-2.1h1.32
			c0,0.56,0.106,1.081,0.32,1.56c0.213,0.481,0.5,0.907,0.86,1.281c0.36,0.373,0.786,0.666,1.28,0.88
			c0.493,0.214,1.02,0.32,1.581,0.32s1.087-0.106,1.581-0.32c0.493-0.214,0.92-0.507,1.281-0.88c0.36-0.374,0.646-0.8,0.86-1.281
			c0.213-0.48,0.32-1,0.32-1.56v-5.562c-0.507,0.56-1.107,1.007-1.801,1.34c-0.694,0.333-1.441,0.5-2.241,0.5
			c-0.747,0-1.447-0.141-2.101-0.42c-0.654-0.28-1.22-0.66-1.7-1.141c-0.48-0.48-0.86-1.046-1.141-1.7
			c-0.28-0.654-0.42-1.354-0.42-2.101v-9.403c0-0.747,0.14-1.447,0.42-2.101c0.28-0.654,0.66-1.22,1.141-1.701
			c0.48-0.48,1.047-0.86,1.7-1.14c0.654-0.28,1.354-0.42,2.101-0.42c0.801,0,1.547,0.16,2.241,0.48
			c0.693,0.32,1.294,0.775,1.801,1.361v-1.64H56.335z M50.972,71.032c0.56,0,1.087-0.106,1.581-0.32
			c0.493-0.213,0.92-0.5,1.281-0.86c0.36-0.361,0.646-0.786,0.86-1.281c0.213-0.493,0.32-1.02,0.32-1.581v-9.403
			c0-0.561-0.107-1.087-0.32-1.581c-0.214-0.493-0.5-0.92-0.86-1.281c-0.361-0.361-0.787-0.647-1.281-0.861
			c-0.494-0.213-1.02-0.319-1.581-0.319s-1.087,0.106-1.581,0.319c-0.494,0.214-0.92,0.5-1.28,0.861
			c-0.36,0.361-0.647,0.787-0.86,1.281c-0.214,0.493-0.32,1.02-0.32,1.581v9.403c0,0.561,0.106,1.087,0.32,1.581
			c0.213,0.494,0.5,0.92,0.86,1.281c0.36,0.36,0.786,0.647,1.28,0.86C49.885,70.925,50.412,71.032,50.972,71.032z"/>
		<path fill="#605C5A" d="M64.818,52.224c0.746,0,1.427,0.14,2.041,0.42c0.613,0.28,1.14,0.66,1.58,1.14
			c0.441,0.481,0.787,1.047,1.04,1.701c0.254,0.655,0.381,1.354,0.381,2.101v4.682v4.722v5.162H68.54v-1.64
			c-0.507,0.56-1.107,1.007-1.801,1.34c-0.694,0.333-1.441,0.5-2.241,0.5c-0.747,0-1.447-0.141-2.101-0.42
			c-0.654-0.28-1.22-0.66-1.7-1.141c-0.48-0.48-0.86-1.046-1.141-1.7c-0.28-0.654-0.42-1.354-0.42-2.101V65.87
			c0-1.654,1.014-2.854,3.041-3.601c0.24-0.106,0.646-0.267,1.22-0.481c0.573-0.213,1.187-0.446,1.841-0.7
			c0.653-0.254,1.287-0.493,1.901-0.721c0.614-0.226,1.081-0.406,1.4-0.54v-2.24c0-1.121-0.34-2.074-1.02-2.862
			c-0.68-0.786-1.581-1.18-2.701-1.18c-0.56,0-1.081,0.106-1.561,0.319c-0.48,0.214-0.908,0.5-1.281,0.861
			c-0.374,0.361-0.667,0.787-0.88,1.281c-0.214,0.493-0.32,1.02-0.32,1.581h-1.321c0-0.747,0.14-1.447,0.421-2.101
			c0.28-0.654,0.66-1.22,1.14-1.701c0.48-0.48,1.047-0.86,1.701-1.14C63.37,52.364,64.071,52.224,64.818,52.224z M68.54,62.268v-1
			c-0.4,0.16-0.894,0.347-1.481,0.56c-0.587,0.214-1.174,0.434-1.761,0.66c-0.587,0.227-1.121,0.434-1.601,0.62
			c-0.48,0.187-0.827,0.32-1.04,0.401c-0.507,0.187-1,0.467-1.481,0.84c-0.48,0.373-0.721,0.88-0.721,1.52v1.121
			c0,0.561,0.106,1.087,0.32,1.581c0.213,0.494,0.5,0.92,0.86,1.281c0.36,0.36,0.786,0.647,1.28,0.86
			c0.493,0.214,1.02,0.32,1.581,0.32c0.56,0,1.087-0.106,1.581-0.32c0.493-0.213,0.92-0.5,1.281-0.86
			c0.36-0.361,0.646-0.786,0.86-1.281c0.213-0.493,0.32-1.02,0.32-1.581V62.268z"/>
		<path fill="#605C5A" d="M78.024,52.224c0.747,0,1.447,0.14,2.101,0.42c0.654,0.28,1.221,0.66,1.701,1.14
			c0.48,0.481,0.86,1.047,1.14,1.701c0.28,0.655,0.421,1.354,0.421,2.101v4.682v9.884h-1.321v-9.884v-4.682
			c0-0.561-0.107-1.087-0.32-1.581c-0.214-0.493-0.5-0.92-0.86-1.281c-0.361-0.361-0.787-0.647-1.281-0.861
			c-0.494-0.213-1.02-0.319-1.581-0.319s-1.087,0.106-1.581,0.319c-0.494,0.214-0.92,0.5-1.28,0.861
			c-0.36,0.361-0.647,0.787-0.86,1.281c-0.214,0.493-0.32,1.02-0.32,1.581v4.682v9.884h-1.32v-9.884v-4.682v-5.162h1.32v1.64
			c0.507-0.586,1.107-1.04,1.801-1.361C76.476,52.384,77.223,52.224,78.024,52.224z"/>
		<path fill="#605C5A" d="M87.548,52.104h1.321v1.361v18.407h-1.321V53.465h-1.32v-1.361H87.548z M87.868,47.543
			c-0.294,0-0.534-0.094-0.721-0.28c-0.187-0.187-0.28-0.427-0.28-0.72c0-0.294,0.093-0.533,0.28-0.721
			c0.187-0.186,0.426-0.279,0.721-0.279c0.266,0,0.5,0.094,0.7,0.279c0.2,0.188,0.3,0.427,0.3,0.721c0,0.293-0.1,0.533-0.3,0.72
			C88.368,47.449,88.134,47.543,87.868,47.543z"/>
		<path fill="#605C5A" d="M97.551,61.668c0.586,0.294,1.18,0.608,1.781,0.941c0.6,0.334,1.141,0.714,1.621,1.14
			c0.48,0.427,0.873,0.901,1.18,1.421c0.307,0.521,0.461,1.127,0.461,1.821c0,0.747-0.14,1.448-0.421,2.101
			c-0.28,0.654-0.66,1.22-1.14,1.7c-0.48,0.481-1.047,0.861-1.701,1.141c-0.654,0.279-1.354,0.42-2.101,0.42
			s-1.447-0.141-2.101-0.42c-0.654-0.28-1.22-0.66-1.7-1.141c-0.48-0.48-0.86-1.046-1.141-1.7c-0.28-0.654-0.42-1.354-0.42-2.101
			h1.32c0,0.561,0.106,1.087,0.32,1.581c0.213,0.494,0.5,0.92,0.86,1.281c0.36,0.36,0.786,0.647,1.28,0.86
			c0.493,0.214,1.02,0.32,1.581,0.32s1.087-0.106,1.581-0.32c0.493-0.213,0.92-0.5,1.281-0.86c0.36-0.361,0.646-0.786,0.86-1.281
			c0.213-0.493,0.32-1.02,0.32-1.581c0-0.48-0.12-0.913-0.36-1.3c-0.24-0.387-0.56-0.741-0.96-1.061c-0.4-0.319-0.86-0.619-1.38-0.9
			c-0.52-0.28-1.061-0.567-1.621-0.861c-0.614-0.293-1.221-0.607-1.821-0.94c-0.6-0.333-1.14-0.707-1.62-1.121
			c-0.48-0.413-0.874-0.88-1.181-1.401c-0.307-0.52-0.46-1.126-0.46-1.82c0-0.747,0.14-1.447,0.42-2.101
			c0.28-0.654,0.66-1.22,1.141-1.701c0.48-0.48,1.047-0.86,1.7-1.14s1.354-0.42,2.101-0.42s1.447,0.14,2.101,0.42
			c0.654,0.28,1.221,0.66,1.701,1.14c0.48,0.481,0.86,1.047,1.14,1.701c0.28,0.655,0.421,1.354,0.421,2.101h-1.321
			c0-0.561-0.107-1.087-0.32-1.581c-0.214-0.493-0.5-0.92-0.86-1.281c-0.361-0.361-0.787-0.647-1.281-0.861
			c-0.494-0.213-1.02-0.319-1.581-0.319s-1.087,0.106-1.581,0.319c-0.494,0.214-0.92,0.5-1.28,0.861
			c-0.36,0.361-0.647,0.787-0.86,1.281c-0.214,0.493-0.32,1.02-0.32,1.581c0,0.48,0.12,0.913,0.361,1.3
			c0.24,0.387,0.566,0.74,0.98,1.06c0.413,0.32,0.88,0.62,1.4,0.901C96.45,61.127,96.991,61.402,97.551,61.668z"/>
		<path fill="#605C5A" d="M110.877,52.224c0.746,0,1.427,0.14,2.041,0.42c0.613,0.28,1.14,0.66,1.58,1.14
			c0.441,0.481,0.787,1.047,1.04,1.701c0.254,0.655,0.381,1.354,0.381,2.101v4.682v4.722v5.162h-1.321v-1.64
			c-0.507,0.56-1.107,1.007-1.801,1.34c-0.694,0.333-1.441,0.5-2.241,0.5c-0.747,0-1.447-0.141-2.101-0.42
			c-0.654-0.28-1.22-0.66-1.7-1.141c-0.48-0.48-0.86-1.046-1.141-1.7c-0.28-0.654-0.42-1.354-0.42-2.101V65.87
			c0-1.654,1.014-2.854,3.041-3.601c0.24-0.106,0.646-0.267,1.22-0.481c0.573-0.213,1.187-0.446,1.841-0.7
			c0.653-0.254,1.287-0.493,1.901-0.721c0.614-0.226,1.081-0.406,1.4-0.54v-2.24c0-1.121-0.34-2.074-1.02-2.862
			c-0.68-0.786-1.581-1.18-2.701-1.18c-0.56,0-1.081,0.106-1.561,0.319c-0.48,0.214-0.908,0.5-1.281,0.861
			c-0.374,0.361-0.667,0.787-0.88,1.281c-0.214,0.493-0.32,1.02-0.32,1.581h-1.321c0-0.747,0.14-1.447,0.421-2.101
			c0.28-0.654,0.66-1.22,1.14-1.701c0.48-0.48,1.047-0.86,1.701-1.14C109.429,52.364,110.13,52.224,110.877,52.224z M114.599,62.268
			v-1c-0.4,0.16-0.894,0.347-1.481,0.56c-0.587,0.214-1.174,0.434-1.761,0.66c-0.587,0.227-1.121,0.434-1.601,0.62
			c-0.48,0.187-0.827,0.32-1.04,0.401c-0.507,0.187-1,0.467-1.481,0.84c-0.48,0.373-0.721,0.88-0.721,1.52v1.121
			c0,0.561,0.106,1.087,0.32,1.581c0.213,0.494,0.5,0.92,0.86,1.281c0.36,0.36,0.786,0.647,1.28,0.86
			c0.493,0.214,1.02,0.32,1.581,0.32s1.087-0.106,1.581-0.32c0.493-0.213,0.92-0.5,1.281-0.86c0.36-0.361,0.646-0.786,0.86-1.281
			c0.213-0.493,0.32-1.02,0.32-1.581V62.268z"/>
		<path fill="#605C5A" d="M120.641,62.268v4.722c0,0.561,0.093,1.087,0.28,1.581c0.186,0.494,0.44,0.92,0.76,1.281
			c0.32,0.36,0.694,0.647,1.121,0.86c0.426,0.214,0.88,0.32,1.36,0.32v1.321c-0.667,0-1.294-0.141-1.881-0.42
			c-0.587-0.28-1.101-0.66-1.541-1.141c-0.44-0.48-0.787-1.046-1.04-1.7s-0.38-1.354-0.38-2.101v-4.722v-8.524v-1.32v-5.603h1.32
			v5.603h4.322v1.32h-4.322V62.268z"/>
		<path fill="#605C5A" d="M127.924,52.104h1.321v1.361v18.407h-1.321V53.465h-1.32v-1.361H127.924z M128.244,47.543
			c-0.294,0-0.534-0.094-0.721-0.28c-0.187-0.187-0.28-0.427-0.28-0.72c0-0.294,0.093-0.533,0.28-0.721
			c0.187-0.186,0.426-0.279,0.721-0.279c0.266,0,0.5,0.094,0.7,0.279c0.2,0.188,0.3,0.427,0.3,0.721c0,0.293-0.1,0.533-0.3,0.72
			C128.745,47.449,128.511,47.543,128.244,47.543z"/>
		<path fill="#605C5A" d="M137.407,72.353c-0.747,0-1.447-0.141-2.101-0.42c-0.654-0.28-1.22-0.66-1.7-1.141
			c-0.48-0.48-0.86-1.046-1.141-1.7c-0.28-0.654-0.42-1.354-0.42-2.101v-9.403c0-0.747,0.14-1.447,0.42-2.101
			c0.28-0.654,0.66-1.22,1.141-1.701c0.48-0.48,1.047-0.86,1.7-1.14s1.354-0.42,2.101-0.42s1.447,0.14,2.101,0.42
			c0.654,0.28,1.221,0.66,1.701,1.14c0.48,0.481,0.86,1.047,1.14,1.701c0.28,0.655,0.421,1.354,0.421,2.101v9.403
			c0,0.747-0.14,1.448-0.421,2.101c-0.28,0.654-0.66,1.22-1.14,1.7c-0.48,0.481-1.047,0.861-1.701,1.141
			C138.854,72.212,138.154,72.353,137.407,72.353z M137.407,53.545c-0.56,0-1.087,0.106-1.581,0.319
			c-0.494,0.214-0.92,0.5-1.28,0.861c-0.36,0.361-0.647,0.787-0.86,1.281c-0.214,0.493-0.32,1.02-0.32,1.581v9.403
			c0,0.561,0.106,1.087,0.32,1.581c0.213,0.494,0.5,0.92,0.86,1.281c0.36,0.36,0.786,0.647,1.28,0.86
			c0.493,0.214,1.02,0.32,1.581,0.32s1.087-0.106,1.581-0.32c0.493-0.213,0.92-0.5,1.281-0.86c0.36-0.361,0.646-0.786,0.86-1.281
			c0.213-0.493,0.32-1.02,0.32-1.581v-9.403c0-0.561-0.107-1.087-0.32-1.581c-0.214-0.493-0.5-0.92-0.86-1.281
			c-0.361-0.361-0.787-0.647-1.281-0.861C138.494,53.652,137.968,53.545,137.407,53.545z"/>
		<path fill="#605C5A" d="M150.933,52.224c0.747,0,1.447,0.14,2.101,0.42c0.654,0.28,1.221,0.66,1.701,1.14
			c0.48,0.481,0.86,1.047,1.14,1.701c0.28,0.655,0.421,1.354,0.421,2.101v4.682v9.884h-1.321v-9.884v-4.682
			c0-0.561-0.107-1.087-0.32-1.581c-0.214-0.493-0.5-0.92-0.86-1.281c-0.361-0.361-0.787-0.647-1.281-0.861
			c-0.494-0.213-1.02-0.319-1.581-0.319s-1.087,0.106-1.581,0.319c-0.494,0.214-0.92,0.5-1.28,0.861
			c-0.36,0.361-0.647,0.787-0.86,1.281c-0.214,0.493-0.32,1.02-0.32,1.581v4.682v9.884h-1.32v-9.884v-4.682v-5.162h1.32v1.64
			c0.507-0.586,1.107-1.04,1.801-1.361C149.386,52.384,150.133,52.224,150.933,52.224z"/>
	</g>
	<g>
		<path fill="none" stroke="#605C5A" stroke-width="1.65" stroke-miterlimit="10" d="M167.199,74.957
			c-1.899,0.167-3.479,1.222-4.929,2.383c-1.472,1.178-2.844,2.41-4.572,3.205c-1.482,0.683-3.206,1.263-4.215,2.617
			c1.675,0.219,3.343,0.663,4.732,1.556c0.915,0.587,1.798,1.453,2.218,2.475c2.025-1.725,4.084-3.409,6.101-5.145
			c1.085-0.934,2.159-1.882,3.204-2.861c0.867-0.811,1.816-1.584,2.61-2.473C171.166,75.279,168.974,74.801,167.199,74.957z"/>
		<path fill="none" stroke="#605C5A" stroke-width="1.65" stroke-miterlimit="10" d="M154.769,79.581
			c-1.539,0.988-3.079,2.016-4.299,3.384c0.181,0.002,0.363,0.005,0.544,0.011c0.531,0.016,1.077,0.045,1.627,0.093
			c0.003-0.005,0.005-0.01,0.009-0.014c1.082-1.689,2.951-2.366,4.693-3.167c1.876-0.864,3.323-2.273,4.946-3.513
			c1.619-1.237,3.481-2.271,5.584-2.182c0.5,0.02,1.008,0.072,1.508,0.164c0.254-0.374,0.566-0.778,0.7-1.217
			c-1.395-1.351-3.691-1.109-5.381-0.456c-1.91,0.74-3.501,2.095-5.058,3.388C158.089,77.362,156.468,78.489,154.769,79.581z"/>
		<path fill="none" stroke="#605C5A" stroke-width="1.65" stroke-miterlimit="10" d="M154.608,78.793
			c0.927-0.593,1.863-1.178,2.743-1.839c0.839-0.629,1.635-1.31,2.445-1.976c1.223-1.006,2.529-2.056,3.99-2.732
			c-1.763-0.359-3.687-0.194-5.335,0.475c-1.804,0.731-3.278,2.024-4.664,3.36c-1.423,1.372-2.831,2.69-4.418,3.874
			c-1.382,1.032-2.8,2.043-4.003,3.283c1.373-0.123,2.748-0.236,4.124-0.267C150.863,81.217,152.751,79.98,154.608,78.793z"/>
		<path fill="none" stroke="#605C5A" stroke-width="1.65" stroke-miterlimit="10" d="M154.897,84.327
			c-2.62-0.7-5.353-0.7-8.044-0.587c-2.672,0.114-5.36-0.335-8.035-0.364c-2.52-0.027-5.096-0.983-7.328-2.226
			c-0.027-0.01-0.056-0.023-0.083-0.042c-0.012-0.008-0.024-0.017-0.037-0.025c-0.004-0.002-0.007-0.004-0.01-0.006
			c-0.01-0.004-0.016-0.011-0.025-0.017c-3.681-2.455-7.658-5.648-12.29-5.723c-2.44-0.039-4.787,0.656-7.148,1.175
			c-1.158,0.255-2.355,0.512-3.544,0.554c-1.182,0.042-2.364,0.04-3.546,0.051c-2.757,0.026-5.492,0.215-8.078,1.255
			c-2.467,0.993-4.822,2.266-6.977,3.828c-2.159,1.565-3.993,3.438-5.887,5.301c-0.121,0.119-0.242,0.238-0.364,0.356l10.303,14.9
			c0.594-0.448,1.212-0.861,1.859-1.228c2.341-1.327,4.876-1.968,7.565-1.97c2.73-0.003,5.475,0.443,8.138,1.009
			c2.98,0.634,5.926,1.409,8.882,2.141c2.94,0.727,5.899,1.428,8.894,1.886c2.9,0.442,5.999,0.683,8.881-0.012
			c0.028-0.007,0.055-0.01,0.083-0.011c2.717-1.682,4.96-3.974,7.182-6.246c1.108-1.133,2.216-2.269,3.39-3.334
			c0.903-0.818,1.837-1.676,2.873-2.347c-2.885,0.039-5.806-0.502-8.668-0.835l-1.848-0.163c-0.09-0.012-0.175-0.014-0.22-0.034
			c-0.492-0.038-0.986-0.068-1.479-0.089l-1.235-0.04c-0.02-0.012-0.178,0.018-0.194,0.004c-0.667-0.005-1.334,0.009-2,0.045
			l-0.706,0.049c-0.615,0.05-1.228,0.121-1.837,0.216c-2.762,0.434-5.381,1.32-7.867,2.592c-0.429,0.22-0.82-0.421-0.388-0.641
			c2.764-1.415,5.693-2.387,8.78-2.776c2.353-0.296,4.728-0.283,7.087-0.097c0.044,0.001,0.088,0.004,0.133,0.01
			c0.348,0.029,0.695,0.061,1.043,0.096c2.317,0.236,4.616,0.637,6.941,0.807c2.341,0.172,4.809,0.188,7.045-0.625
			c1.742-0.633,4.3-1.508,3.7-3.74C159.261,85.266,156.861,84.852,154.897,84.327z"/>
	</g>
</g>
</svg>
