<?xml version="1.0" encoding="utf-8"?>
<!-- Generator: Adobe Illustrator 21.1.0, SVG Export Plug-In . SVG Version: 6.00 Build 0)  -->
<svg version="1.1" id="Layer_1" xmlns="http://www.w3.org/2000/svg" xmlns:xlink="http://www.w3.org/1999/xlink" x="0px" y="0px"
	 viewBox="0 0 190 150" enable-background="new 0 0 190 150" xml:space="preserve">
<g>
	<g>
		<path fill="none" stroke="#605C5A" stroke-width="1.65" stroke-miterlimit="10" d="M91.793,134.651v-11.236V96.396l-14.541-9.663
			c0,0-6.443,4.957-3.634,11.236l5.37,4.031l-0.428,7.556l-14.029-10.1l-6.791-36.843c0,0-4.142-3.374-10.916-3.258l7.793,50.909
			l13.635,12.867v11.52H91.793z"/>
		<path fill="none" stroke="#605C5A" stroke-width="1.65" stroke-miterlimit="10" d="M98.478,134.651v-11.236V96.396l14.541-9.663
			c0,0,6.443,4.957,3.634,11.236l-5.37,4.031l0.428,7.556l14.029-10.1l6.791-36.843c0,0,4.142-3.374,10.916-3.258l-7.793,50.909
			l-13.635,12.867v11.52H98.478z"/>
	</g>
	<circle fill="none" stroke="#605C5A" stroke-width="1.65" stroke-miterlimit="10" cx="95.135" cy="48.838" r="32.79"/>
	<circle fill="none" stroke="#605C5A" stroke-width="1.65" stroke-miterlimit="10" cx="95.135" cy="48.346" r="28.119"/>
	<path fill="none" stroke="#605C5A" stroke-width="1.65" stroke-miterlimit="10" d="M92.754,64.428
		c-3.477-0.158-6.827-0.936-10.05-2.334v-7.906c1.841,0.937,3.842,1.719,6.001,2.346c2.159,0.628,4.056,0.941,5.692,0.941
		c1.349,0,2.337-0.163,2.965-0.488c0.627-0.325,0.941-0.869,0.941-1.631c0-0.524-0.226-0.968-0.679-1.334
		c-0.453-0.365-1.207-0.778-2.262-1.238c-1.056-0.46-2.481-1.016-4.275-1.667c-2.016-0.746-3.644-1.584-4.882-2.512
		c-1.238-0.929-2.14-1.968-2.703-3.12c-0.564-1.151-0.845-2.584-0.845-4.299c0-2.619,0.841-4.668,2.524-6.144
		c1.683-1.477,4.207-2.389,7.573-2.739v-5.284h4.93v5.237c3.159,0.175,6.342,0.953,9.55,2.334l-2.834,6.787
		c-3.318-1.492-6.311-2.239-8.978-2.239c-1.27,0-2.163,0.155-2.679,0.464c-0.516,0.31-0.774,0.766-0.774,1.369
		c0,0.524,0.186,0.957,0.56,1.298c0.373,0.342,1.02,0.723,1.941,1.143c0.921,0.421,2.199,0.909,3.834,1.465
		c3.318,1.175,5.699,2.512,7.144,4.013c1.444,1.5,2.167,3.433,2.167,5.799c0,2.667-0.845,4.834-2.536,6.501
		c-1.69,1.667-4.156,2.699-7.394,3.096v6.373h-4.93V64.428z"/>
</g>
</svg>
